<?xml version="1.0" standalone="no"?>
<!DOCTYPE svg PUBLIC "-//W3C//DTD SVG 1.1//EN" "http://www.w3.org/Graphics/SVG/1.1/DTD/svg11.dtd" >
<svg xmlns="http://www.w3.org/2000/svg" xmlns:xlink="http://www.w3.org/1999/xlink" version="1.1">
<metadata>
Created by FontForge 20170731 at Tue Nov 17 10:31:10 2020
 By Aleksey,,,
Copyright (c) 2016 by Youssef Habchi. All rights reserved.
</metadata>
<defs>
<font id="InfiniteStroke-Bolder" horiz-adv-x="1012" >
  <font-face 
    font-family="Infinite Stroke"
    font-weight="700"
    font-stretch="normal"
    units-per-em="2048"
    panose-1="0 0 0 0 0 0 0 0 0 0"
    ascent="1418"
    descent="-630"
    x-height="830"
    cap-height="1490"
    bbox="-1849.53 -1041.53 11553.2 1948"
    underline-thickness="78"
    underline-position="-235"
    unicode-range="U+000D-2122"
  />
<missing-glyph horiz-adv-x="302" 
 />
    <glyph glyph-name="f_g" unicode="fg" horiz-adv-x="1362" 
d="M161 775q43 64 118 159q339 438 474 438q72 0 135 -50t65 -96q0 -38 -65.5 -96t-113.5 -78q-2 -1 -4 0.5t-2 4.5t2 6q31 44 55 97.5t29.5 85t-2.5 41.5q-73 0 -290 -272q-101 -123 -208 -275q47 -4 119 -4q125 0 219 20q7 0 7 -6q0 -3 -4 -6q-160 -88 -408 -103l-10 -12
q-111 -162 -268.5 -421.5t-265.5 -480.5q80 102 211 239t279.5 284t193.5 194q77 85 170 164q121 101 240 165t200 64q115 0 190.5 -52t75.5 -125q0 -38 -57.5 -79.5t-106.5 -57.5l9 -9l10.5 -10.5t9 -9.5t9.5 -11t6.5 -10t5.5 -11t2 -10q0 -1 -1 -8.5t-1 -8.5
q-24 -117 -138 -314q-117 -204 -254 -383q-59 -77 -131.5 -154t-164 -156.5t-192.5 -131.5t-188 -57q-85 -4 -176.5 28.5t-130.5 88.5q-13 19 2 19q9 0 19 -8q37 -30 104 -30q149 0 334 124q186 125 343 337q138 185 220.5 321t173.5 310q-21 -20 -98.5 -95.5t-115.5 -109.5
q-126 -110 -221 -173.5t-129 -63.5q-41 0 -110.5 60t-69.5 117q0 30 16 66q-644 -708 -674 -881q-3 -43 6 -72q0 -13 -44.5 11.5t-81.5 74.5t-22 101q60 213 240.5 550.5t370.5 631.5q-90 12 -90 46q0 17 27.5 60.5t53.5 65.5q36 -29 93 -43zM1112 548q29 31 54 81t25 85
q0 22 -7 33.5t-31 11.5q-70 0 -184.5 -75t-213.5 -167q-134 -125 -231 -246t-97 -161q0 -11 13 -11q30 0 196 109t281 205q6 5 20.5 17t21 18t19.5 17t19.5 17.5l16 16t15 15.5t10.5 13t7.5 12.5t2.5 10.5q0 18 -19 27l2 1h5q15 0 38 -8t37 -22z" />
    <glyph glyph-name="f_j" unicode="fj" horiz-adv-x="915" 
d="M849 1267q-4 20 -23 14q-26 -9 -97.5 -79.5t-166.5 -186.5q-118 -146 -208 -275q47 -4 119 -4q111 0 184 12q28 63 0 76l16 3q26 1 53 -20q43 -34 72.5 -72.5t27.5 -55.5q0 -11 -27.5 -50.5t-95 -128t-98.5 -130.5q-121 -163 -306 -463l40 43q148 153 319 324t232 225
q7 5 12.5 2t8.5 -9.5t0 -9.5q-59 -54 -251 -262.5t-328 -375.5q-220 -268 -294 -427q-19 -44 -25.5 -84t4.5 -56q0 -13 -47 12t-85 75.5t-20 99.5q54 140 173.5 349.5t287.5 449.5q32 46 92.5 130t111 156t94.5 139l17 29q-144 -62 -354 -76l-10 -12q-152 -224 -283 -460
q-161 -291 -253.5 -503t-58.5 -252q0 -13 -45.5 11.5t-84 74.5t-23.5 101q41 145 136.5 339t189.5 351t222 355q-90 12 -90 46q0 17 27.5 60.5t53.5 65.5q39 -35 93 -43q43 64 118 159q268 346 409 419q29 16 63 19q74 0 152 -78t78 -160q0 -27 -108.5 -105.5t-176.5 -106.5
q-11 -4 -14 3.5t3 13.5q89 103 132 189.5t32 138.5z" />
    <glyph glyph-name="f_p" unicode="fp" horiz-adv-x="1447" 
d="M1553 540q-114 -11 -223 -28q-46 -104 -141 -210q-53 -58 -113 -110t-133 -101t-154.5 -78.5t-156.5 -29.5q-44 0 -110 28.5t-97 68.5q-32 -52 -54 -88t-56 -93t-57.5 -98.5t-54 -96.5t-51 -97t-42.5 -88.5t-34 -82t-20 -68t-6 -55.5t13 -36q0 -13 -52 13t-95 78t-25 101
q51 135 180.5 363t242.5 396l100 147q-126 -133 -245 -265t-253 -290t-218.5 -284t-91.5 -187q-4 -40 6 -72q0 -13 -44.5 11.5t-81.5 74.5t-22 101q60 212 240.5 549t371.5 633q-90 12 -90 46q0 17 27 60.5t53 65.5q30 -27 93 -43q43 64 118 159q339 438 474 438
q72 0 135.5 -50t65.5 -96q0 -38 -66 -96t-114 -78q-2 -1 -4 0.5t-1.5 4.5t2.5 6q31 44 55 97.5t29.5 85t-2.5 41.5q-73 0 -290 -272q-101 -123 -208 -275q147 -18 242 -1q8 0 8 -6q0 -4 -4 -7q-94 -63 -314 -85l-9 -12q-111 -162 -268.5 -421.5t-265.5 -480.5q51 66 128 152
t144 157.5t165 169t147 145.5t136 132t89 86l87 123q33 49 43 86t-10 49h19q24 -4 49 -20q51 -32 85 -84q146 107 296 107q87 0 165 -61t78 -125q0 -41 -21 -99q150 18 210 22q7 0 9 -12.5t-8 -14.5zM602 343q124 70 236 106.5t258 65.5l27 5q88 123 88 200q0 52 -55 52
q-43 0 -112 -33t-140 -85q-132 -95 -302 -311zM480 104q0 -24 48 -24q109 0 262.5 113.5t288.5 269.5q-103 -21 -245 -88t-248 -145.5t-106 -125.5z" />
    <glyph glyph-name="f_t_l" unicode="ftl" horiz-adv-x="1433" 
d="M1256 630l-21 -29q-21 -29 -49 -68.5t-64.5 -91.5t-70.5 -103t-63.5 -97.5t-47 -82t-17.5 -48.5q0 -8 8 -8q25 0 185.5 133.5t317.5 285.5q10 10 21 1q6 -5 1 -12q-59 -77 -215 -241q-94 -98 -200 -190.5t-138 -92.5q-16 0 -43 13t-47 28q-77 59 -74 99q0 9 6 25
q24 64 115 203l-80 -85q-93 -98 -200 -190.5t-139 -92.5q-16 0 -43 13t-47 28q-77 59 -74 99q0 6 7 25q48 124 304 479q120 166 190 266q-172 -9 -334 -34l-257 -363q39 -122 43 -275q1 -139 -27 -271.5t-74.5 -233t-103 -186t-114 -140.5t-106.5 -85.5t-81 -30.5
q-75 0 -154 60t-80 127q-2 212 375 851q82 135 193 293q-80 67 -80 88q2 44 37 109.5t78 92.5q68 39 186 60l31 5q123 182 172 272q60 111 21 131l21 2q27 -3 53 -19q50 -30 76 -76t24 -69q0 -6 -3 -10l-146 -211q139 4 307 -6q125 175 173 263q60 111 21 131q46 0 77 -22
q45 -32 71.5 -73t26.5 -69q0 -4 -4 -10l-170 -238q107 -11 229 -36q165 232 211 317q60 111 20 131q48 -1 78 -22q45 -32 71 -73t26 -69q0 -5 -3 -10zM-28 -312q111 171 167 376t22 398q-186 -284 -360 -642.5t-174 -441.5q0 -10 4 -15t7 -5.5t8 -0.5q36 0 137 96.5
t189 234.5zM794 630q0 -1 -16.5 -23.5t-39 -54t-53 -75t-61 -87.5t-60 -90t-52 -83t-36.5 -66t-14 -41q0 -8 7 -8q25 0 184.5 133t316.5 285q25 38 79 110q27 38 90.5 124.5t95.5 132.5l-88 8l-161 5zM85 646l121 168q-26 0 -92.5 -32.5t-66.5 -58.5q0 -39 38 -77z" />
    <glyph glyph-name="o_o" unicode="oo" horiz-adv-x="1717" 
d="M638 187q4 90 77 198t180 193q15 26 31 46q-12 -4 -51 -19.5t-65 -22.5t-49 -7q-4 -63 -68.5 -163.5t-157 -194.5t-209.5 -162t-214 -68q-124 0 -211 56.5t-87 153.5q0 92 81.5 210.5t198.5 211t218 121.5q35 35 99 66t114 31q97 0 163 -61.5t79 -148.5q122 2 282 109
q154 102 289 94q100 -7 178 -75.5t78 -162.5q0 -47 -38 -116q142 69 282 157q7 4 10 -4q4 -15 -25 -37q-175 -125 -307 -187q-66 -99 -158.5 -191.5t-206 -159.5t-207.5 -67q-64 0 -134.5 24t-122 71.5t-49.5 104.5zM-35 110q0 -18 2 -27.5t11 -17t27 -7.5q67 0 186 83
t233.5 206t170.5 231q-25 2 -53 7.5t-42 9.5t-46.5 14t-37.5 12q-84 -28 -170 -97.5t-145.5 -147t-97.5 -151t-38 -115.5zM1467 703q-14 74 -100 74q-98 0 -184 -76q27 5 46 5q51 0 85.5 -33t34.5 -70q0 -3 -5 0q-1 0 -11 5t-22 8t-25 3q-49 0 -119 -35.5t-129 -82.5
q-17 -59 14.5 -94.5t111.5 -39.5q44 -3 125 16q88 96 137.5 182t40.5 138zM819 68q54 -20 176 56t242 199q-63 -8 -103 -5q-59 4 -110.5 27.5t-82.5 60.5q-67 -77 -107.5 -149.5t-45.5 -122.5q-3 -29 3 -43.5t28 -22.5zM636 707q0 44 -17.5 64.5t-54.5 13.5
q-35 -6 -58.5 -28t-28.5 -47q-4 -28 34 -46t111 -28q14 36 14 71z" />
    <glyph glyph-name="t_l" unicode="tl" horiz-adv-x="921" 
d="M744 630l-21 -29q-21 -29 -49 -68.5t-64.5 -91.5t-70.5 -103t-63.5 -97.5t-47 -82t-17.5 -48.5q0 -8 8 -8q25 0 185.5 133.5t317.5 285.5q10 10 21 1q6 -5 1 -12q-59 -77 -215 -241q-94 -98 -200 -190.5t-138 -92.5q-16 0 -43 13t-47 28q-77 59 -74 99q0 9 6 25
q24 64 115 203l-80 -85q-93 -98 -200 -190.5t-139 -92.5q-16 0 -43 13t-47 28q-77 59 -74 99q0 6 7 25q48 124 304 479q32 45 116 162t126 178q-116 -23 -178 -55q-11 15 35 86t72 78q66 18 163 21q54 83 86 140q60 111 21 131q46 0 77 -22q45 -32 71.5 -73t26.5 -69
q0 -4 -4 -10l-75 -105q95 -7 228 -35q81 116 117 183q60 111 20 131q48 -1 78 -22q45 -32 71 -73t26 -69q0 -5 -3 -10zM282 630q0 -1 -16.5 -23.5t-39 -54t-53 -75t-61 -87.5t-60 -90t-52 -83t-36.5 -66t-14 -41q0 -8 7 -8q25 0 184.5 133t316.5 285q25 38 79 110
q36 51 132.5 185t143.5 201q-116 -3 -266 -17z" />
    <glyph glyph-name="t_t" unicode="tt" horiz-adv-x="921" 
d="M744 630l-21 -29q-21 -29 -49 -68.5t-64.5 -91.5t-70.5 -103t-63.5 -97.5t-47 -82t-17.5 -48.5q0 -8 8 -8q25 0 185.5 133.5t317.5 285.5q10 10 21 1q6 -5 1 -12q-59 -77 -215 -241q-94 -98 -200 -190.5t-138 -92.5q-16 0 -43 13t-47 28q-77 59 -74 99q0 9 6 25
q24 64 115 203l-80 -85q-93 -98 -200 -190.5t-139 -92.5q-16 0 -43 13t-47 28q-77 59 -74 99q0 6 7 25q48 124 304 479q126 175 247 347l-77 -11q-122 -19 -208 -51q-9 10 15 48.5t62 75t61 39.5q28 4 70 7q73 7 160 10q65 97 90 145q60 111 21 131q46 0 77 -22
q45 -32 71.5 -73t26.5 -69q0 -4 -4 -10l-72 -101q144 -4 246 -11q53 79 96 155q60 111 20 131q48 -1 78 -22q45 -32 71 -73t26 -69q0 -5 -3 -10l-91 -127q129 -12 242 -33t158 -40q4 -1 2 -3t-4 -2q-157 15 -442 18zM282 630q0 -1 -16.5 -23.5t-39 -54t-53 -75t-61 -87.5
t-60 -90t-52 -83t-36.5 -66t-14 -41q0 -8 7 -8q25 0 184.5 133t316.5 285q25 38 79 110q215 299 271 380q-153 -3 -263 -11z" />
    <glyph glyph-name="t_t_l" unicode="ttl" horiz-adv-x="1381" 
d="M1204 630l-21 -29q-21 -29 -49 -68.5t-64.5 -91.5t-70.5 -103t-63.5 -97.5t-47 -82t-17.5 -48.5q0 -8 8 -8q25 0 185.5 133.5t317.5 285.5q10 10 21 1q6 -5 1 -12q-59 -77 -215 -241q-94 -98 -200 -190.5t-138 -92.5q-16 0 -43 13t-47 28q-77 59 -74 99q0 9 6 25
q24 64 115 203l-80 -85q-93 -98 -200 -190.5t-139 -92.5q-16 0 -43 13t-47 28q-77 59 -74 99q0 6 7 25q24 64 115 203l-81 -85q-94 -98 -200 -190.5t-138 -92.5q-16 0 -43 13t-47 28q-77 59 -74 99q0 9 6 25q48 124 304 479q125 175 247 347l-77 -11q-122 -19 -208 -51
q-9 10 15.5 48.5t62.5 75t61 39.5q30 4 69 7q73 7 161 10q65 97 90 145q60 111 20 131q46 0 77 -22q45 -32 71.5 -73t26.5 -69q0 -5 -3 -10l-73 -101q143 -4 246 -11q53 79 96 155q60 111 21 131q46 0 77 -22q45 -32 71.5 -73t26.5 -69q0 -4 -4 -10l-91 -127
q130 -13 232 -32q99 148 129 202q60 111 20 131q48 -1 78 -22q45 -32 71 -73t26 -69q0 -5 -3 -10zM742 630q0 -1 -16.5 -23.5t-39 -54t-53 -75t-61 -87.5t-60 -90t-52 -83t-36.5 -66t-14 -41q0 -8 7 -8q25 0 184.5 133t316.5 285q25 38 79 110q29 41 125 174t143 201
q-45 2 -136 3t-116 2zM280 630q0 -1 -16.5 -23.5t-39 -54t-53 -75t-61 -87.5t-60 -90t-52 -83t-36.5 -66t-14 -41q0 -8 8 -8q25 0 184.5 133t316.5 285q25 38 79 110q215 299 271 380q-153 -3 -263 -11z" />
    <glyph glyph-name="preview" unicode="Infinite&#x20;Stroke" horiz-adv-x="11878" 
d="M8707 112q-120 -100 -210.5 -208t-142.5 -203q-45 -82 -34 -100q11 -9 -6 -12q-7 -1 -15 0q-20 4 -76.5 59t-46.5 86q11 35 60 110l62 93q-11 -13 -36 -39t-37 -40q-93 -98 -200 -190.5t-139 -92.5q-35 0 -89 41q-77 59 -74 99q0 9 6 25q38 103 209 345q-98 19 -219 32
q32 -59 32 -117q0 -88 -75 -191t-191 -193.5t-259 -168.5q-225 -122 -485 -193.5t-438 -71.5q-108 0 -229 38.5t-211.5 112.5t-90.5 161q0 144 178 286t462 242q438 154 921 158q107 0 232 -13q-51 60 -160.5 105.5t-269.5 89.5q-37 10 -124.5 32.5t-142.5 38.5t-92 30
q-56 20 -87 57q-24 28 -24 63q0 40 30 91q-280 -217 -532.5 -355t-390.5 -138q-74 0 -160.5 77t-88.5 137q-3 56 35 130l-43 -46q-95 -99 -200.5 -191.5t-137.5 -92.5q-16 0 -43 13t-47 28q-77 59 -74 100q0 9 6 25q25 65 110 195l-85 -90q-94 -98 -200 -190.5t-138 -92.5
q-41 0 -102 56.5t-61 96.5q0 6 7 25q21 53 68 127.5t145 214t136 195.5q20 32 32 59t14 48.5t-12 27.5h1q2 0 4.5 0.5t5.5 0.5t7 -0.5t9 -1.5t11 -3t12 -4.5t13.5 -7t14.5 -9.5q28 -19 58.5 -55.5t30.5 -62.5q0 -20 -68 -113q-13 -17 -43 -57t-59.5 -79t-56.5 -77
q-63 -89 -105 -161.5t-42 -95.5q0 -8 8 -8q25 0 186 134.5t318 286.5l85 120l255 356q-68 -16 -115 -36.5t-61 -34.5q-13 -13 6.5 -32t47.5 -33q4 -2 2 -5t-6 -3q-50 4 -88.5 25.5t-43.5 36.5q-16 47 19.5 97t64.5 60q82 35 261 51q46 70 79 127q60 111 20 131q48 -1 78 -22
q45 -32 71 -73t26 -69q0 -4 -3 -9l-54 -74q149 0 353 -28.5t260 -55.5q3 -1 2 -2.5t-3 -1.5q-146 12 -456 1q-198 -11 -228 -14l-280 -392l-21 -29q-21 -29 -49 -68.5t-64.5 -91.5t-70.5 -103t-63.5 -97.5t-47 -82t-17.5 -48.5q0 -8 8 -8q25 0 190 135t319 284l1 2
q117 116 232 190q183 118 295 118q71 0 141 -61.5t70 -122.5q0 -30 -66.5 -86.5t-163.5 -112.5t-222 -98t-227 -43q-71 -98 -81 -166q-4 -30 13.5 -46.5t51.5 -16.5q116 -2 411 136.5t629 364.5q144 120 402 211q239 82 430 82q128 0 212 -83t84 -205q0 -53 -67 -118.5
t-156 -116.5t-174.5 -86t-124.5 -35q-11 0 -13 5.5t9 13.5q74 48 176 137.5t183 182.5t74 132q-5 28 -25 41.5t-67 13.5q-135 0 -296 -47.5t-288 -114.5t-213 -143t-86 -130q0 -11 8.5 -21t26.5 -19t36.5 -16.5t50 -16t55 -14.5t62.5 -16t63 -16q84 -23 150.5 -44t146 -52.5
t140.5 -72t97 -85.5q134 -20 255 -55q19 28 84 118q22 32 128 180t157 220q-65 -10 -98 -16q-103 -19 -216.5 -62.5t-113.5 -80.5q-29 0 13 78q42 77 83 112l14 10q81 36 167 55.5t236 28.5q47 77 51 85q59 110 20 130q46 0 77 -22q46 -32 72 -73t26 -68q0 -6 -3 -10
l-24 -33q198 2 418 -13q244 -18 500 -70.5t401 -116.5q4 -4 -3 -6q-5 -2 -13 0q-400 98 -800 112q-252 9 -582 -16l-304 -424q0 -1 -16.5 -23.5t-39 -54t-53 -75t-61 -87.5t-60 -90t-52 -83t-36.5 -66t-14 -41q0 -8 8 -8q25 0 186 134.5t318 286.5q103 148 113 165
q31 49 41.5 85.5t-8.5 50.5q3 2 12 2.5t28 -4.5t38 -17q51 -33 74.5 -69t21.5 -57q0 -17 -119 -176q-19 -25 -29 -38q53 60 127 129q267 237 350 255q26 5 56 -46.5t26 -106.5q-8 -80 -32 -102q3 21 -14 47q-27 35 -88 28q-159 -18 -309 -146zM4200 312q30 57 60 111.5
t59.5 102.5t54 88t53.5 81.5t47 67.5t45 61t37 48t33.5 42t24.5 31l-3 3q-8 0 -49.5 -25.5t-125 -90.5t-170.5 -148q-152 -144 -280.5 -283.5t-119.5 -172.5q4 -6 6 -6q12 -4 0 -10q-9 -4 -20 -2q-34 6 -81.5 54.5t-38.5 89.5q11 46 93 166l-50 -54q-93 -98 -200 -190.5
t-139 -92.5q-41 0 -101.5 56.5t-60.5 96.5q0 9 6 25q21 53 69 128.5t144.5 212.5t136.5 196q5 8 14.5 25.5t10.5 18.5q-146 -74 -373 -90l-108 -148q39 -122 43 -275q1 -139 -27 -271.5t-74.5 -233t-103 -186t-114 -140.5t-106.5 -85.5t-81 -30.5q-75 0 -154 60t-80 127
q-2 214 374 851l30 49q-10 -10 -39 -41.5t-46 -48.5q-279 -284 -338 -284q-55 0 -115.5 59t-56.5 105q0 9 3 16q22 65 205 318q31 43 81 106.5t81.5 103.5t31.5 42l-4 3q-7 0 -48 -25.5t-123 -90.5t-169 -148q-152 -144 -280.5 -283.5t-119.5 -172.5q4 -6 6 -6q12 -4 0 -10
q-9 -4 -20 -2q-34 6 -81.5 54.5t-38.5 89.5q9 38 68.5 127.5t153 219t137.5 197.5q32 49 42 85t-9 50q26 0 36 -2q25 -7 48 -23q41 -29 64 -62t23 -57q0 -14 -44 -75t-126.5 -169.5t-127.5 -171.5q79 95 239 253q320 315 388 315q40 0 93 -45q44 -35 62.5 -68t16.5 -51
q0 -3 -4 -9q-19 -22 -53.5 -62t-55 -64t-54 -67t-68.5 -91q-158 -217 -161 -264q0 -8 8 -8q26 0 180 128.5t318 285.5l71 101q-16 23 -30 33q-44 14 -44 38q0 15 27.5 58t52.5 63q49 -25 101 -44q218 299 307 465q60 111 20 131l22 1q27 -3 53 -19q50 -30 76 -76t24 -69
q0 -4 -3 -9l-313 -454q43 -4 89 -4q144 0 227 22q23 57 -1 70h1q2 0 4.5 0.5t5.5 0.5t7.5 -0.5t9.5 -1.5t10.5 -3t12 -4.5t14 -7t14.5 -9.5q28 -18 58 -55t30 -63q0 -20 -68 -113q-13 -17 -43 -57t-59.5 -79t-56.5 -77q-63 -89 -105 -161.5t-42 -95.5q0 -8 8 -8
q25 0 185.5 133.5t317.5 285.5q83 115 124 180q32 49 42 85t-9 50q26 0 36 -2q25 -7 48 -23q41 -29 63.5 -62t22.5 -57q0 -14 -43.5 -75t-126.5 -170t-127 -171q79 95 239 253q320 315 392 315q40 0 93 -45q43 -35 60.5 -67.5t15.5 -51.5q0 -5 -3 -9q-2 -2 -29 -32.5
t-36.5 -41t-39 -45t-45 -54t-45 -57.5t-49 -66.5t-48 -70t-50 -78t-46 -81t-45.5 -88.5q-87 -183 -118 -290.5t-29 -198.5q1 -36 10.5 -66.5t36.5 -55t68 -24.5q74 2 198 78.5t229 160.5q6 6 7 0q2 -4 -2 -12q-56 -103 -164.5 -204.5t-171.5 -101.5q-77 0 -163.5 37.5
t-149 105t-62.5 141.5q0 198 150 488zM11146 -1033q-61 -23 -154.5 16t-195 120t-210 195t-201 236t-165.5 248t-106 226q-64 -81 -123 -173q-58 -94 -88.5 -163t-20.5 -85q13 -11 -6 -14q-7 -1 -16 0q-11 2 -42 27t-56.5 61t-19.5 60q29 102 274 452q-1 1 -1 7
q-82 -4 -140 -4q-3 -50 -45.5 -127t-112.5 -158t-152 -152.5t-175 -117t-171 -45.5q-124 0 -211 56.5t-87 153.5q0 92 81.5 210.5t198.5 211t218 121.5q35 35 99 65.5t114 30.5q97 0 163.5 -61t79.5 -148q88 -5 140 -3q0 15 6 33q4 10 11.5 18.5t19 14.5t19.5 9.5t20.5 8
t14.5 5.5q308 419 367 527q60 111 21 130l17 2q23 -2 50 -19q48 -31 79 -75.5t29 -64.5q0 -4 -4 -10l-387 -543q86 75 166.5 128t120.5 53q61 0 125.5 -55.5t64.5 -119.5q0 -34 -35.5 -80.5t-88.5 -87.5t-123.5 -69.5t-133.5 -28.5q-41 0 -90.5 10.5t-79.5 30.5l-7 -2
q113 -200 237.5 -364.5t233 -268t210 -172t177.5 -93t127 -15.5q59 10 115 89q3 4 5.5 4.5t3 -2t-0.5 -6.5q-8 -52 -30 -100q-47 -101 -129 -133zM555 142q129 26 339 47t365 25q56 107 161 260.5t209.5 294.5t202.5 277t159.5 244t61.5 161q0 41 -14.5 69t-41 42.5
t-49 20.5t-53.5 10q-117 14 -273.5 -33t-304 -133.5t-275 -188.5t-205.5 -207.5t-78 -181.5q0 -41 49 -41q141 0 357 103t467 316q17 15 17 7t-12 -27q-72 -107 -199 -228t-263 -206t-217 -85q-70 0 -130.5 30.5t-97.5 76.5t-58 94t-21 88q0 78 49.5 165t132.5 167
t197 152.5t237.5 124.5t260 80t258.5 21q106 -6 201.5 -54t157 -135t61.5 -192q0 -48 -82 -177.5t-189 -271.5t-244.5 -331t-215.5 -313q237 -6 477 -57.5t410 -122.5q4 -4 -3 -6q-5 -2 -13 0q-447 73 -793 69q-63 0 -140 -5q-35 -60 -59 -124.5t-24 -90.5q0 -8 33 5
t82.5 42t90.5 60q7 5 10 2t-1 -10q-20 -47 -67.5 -112.5t-81.5 -78.5q-10 -4 -47.5 8t-58.5 27q-47 32 -77.5 75.5t-30.5 78.5q0 42 23 104q-152 -14 -371 -53.5t-342 -73.5q-314 -84 -344 -147q-14 -30 28 -49.5t131 -35.5q141 -26 202 -28q13 0 5 -5q-145 -39 -257 -41
t-150 33q-38 40 -28 125t53 146q89 128 423 194zM7592 83q0 9 -7 35q-97 5 -159 3q-197 -4 -407.5 -47t-397.5 -115q-305 -117 -507.5 -272.5t-202.5 -277.5q0 -93 220 -93q176 0 432.5 79t480.5 191q247 123 397.5 258.5t150.5 238.5zM10974 302q184 119 295 119
q71 0 141 -62t70 -123q0 -30 -66.5 -86.5t-163.5 -112.5t-222 -98t-227 -43q-77 -107 -85 -191q-3 -33 41 -33q39 -2 107 26q146 62 323.5 167.5t342.5 240.5q3 2 9.5 -0.5t11 -7t1.5 -7.5q-173 -184 -413.5 -352.5t-353.5 -168.5q-37 0 -93 35t-98.5 84t-43.5 86
q-3 78 76 197q58 87 154.5 177t193.5 153zM7527 -929q-7 5 -17 13t-32 32.5t-32.5 47.5t-5 52t37.5 51q87 60 260 105.5t375.5 69.5t387 35t343.5 11q408 0 780.5 -48t590.5 -117q8 -3 -5 -6q-8 -2 -17 -1q-545 71 -1040 62q-311 -5 -630.5 -32t-547.5 -75
q-126 -26 -272 -73.5t-173 -90.5q-13 -24 -3 -36zM2959 -107q111 171 167 375.5t22 397.5q-186 -284 -360 -642t-174 -441q0 -10 4 -15t6.5 -5.5t7.5 -0.5q36 0 137.5 96.5t189.5 234.5zM9073 -301q0 -19 1.5 -28t10.5 -16.5t27 -7.5q67 0 188 86.5t237 212.5t172 234
q-114 8 -186 30q-84 -28 -170 -97.5t-145.5 -147t-97 -151t-37.5 -115.5zM11371 331q-89 0 -248 -121.5t-289 -272.5q142 28 383 205q49 36 88.5 81t55.5 74.5t10 33.5zM6344 952q-89 0 -248 -121.5t-289 -272.5q144 29 383 204q49 36 88.5 81t55.5 75t10 34zM10605 356
q-66 0 -183 -61.5t-229 -173.5q24 -39 77 -39q54 0 119 37.5t113 85t78.5 92t24.5 59.5zM5103 1114q-14 -7 -28 -4.5t-24.5 9.5t-7.5 12q94 176 94 270q0 30 -23 39q40 0 77 -22q50 -30 78 -71t26 -63q0 -2 -5 -10q-13 -19 -59.5 -59t-84.5 -69t-43 -32zM3833 1114
q-14 -7 -28 -4.5t-24.5 9.5t-7.5 12q95 178 95 270q0 30 -24 39q40 0 77 -22q50 -30 78 -71t26 -63q0 -2 -5 -10q-13 -19 -59.5 -59t-84.5 -69t-43 -32zM9744 296q0 44 -18 64t-55 13q-35 -6 -58 -27.5t-28 -46.5q-4 -28 34 -46t111 -28q14 36 14 71z" />
    <glyph glyph-name=".notdef" horiz-adv-x="302" 
 />
    <glyph glyph-name=".null" horiz-adv-x="0" 
 />
    <glyph glyph-name="nonmarkingreturn" horiz-adv-x="682" 
 />
    <glyph glyph-name="NULL" horiz-adv-x="0" 
 />
    <glyph glyph-name="NULL" horiz-adv-x="0" 
 />
    <glyph glyph-name="CR" unicode="&#xd;" horiz-adv-x="302" 
 />
    <glyph glyph-name="space" unicode=" " horiz-adv-x="393" 
 />
    <glyph glyph-name="exclam" unicode="!" horiz-adv-x="888" 
d="M400 492q-31 -54 -31 -82q0 -8 4 -14t4 -7q0 -4 -6 -7t-12 -1q-24 9 -56 35t-32 50q0 38 60 163.5t148 270.5q168 279 211 360q35 65 35 103q0 21 -15 28h23q38 -8 77 -41q37 -31 65.5 -69t27.5 -54q0 -5 -3 -9q-95 -123 -258.5 -359.5t-241.5 -366.5zM200 -41
q-31 2 -85.5 40.5t-60.5 66.5q-9 43 22 105t72 72q21 4 77.5 -26t54.5 -52q0 -11 -7 -14q-20 -15 -48 -71.5t-28 -98.5q0 -13 3 -22z" />
    <glyph glyph-name="quotedbl" unicode="&#x22;" horiz-adv-x="649" 
d="M575 1218q0 -33 -79 -140q-40 -52 -86.5 -100.5t-69.5 -65.5q-3 -3 -16.5 3.5t-24.5 15.5t-8 13q126 232 114 371q-3 36 -27 48q2 0 5 1q28 4 66 -14.5t71 -49.5q51 -48 55 -82zM800 1218q0 -35 -78 -140q-40 -52 -86.5 -100.5t-69.5 -65.5q-3 -3 -16.5 3.5t-24.5 15.5
t-8 13q125 230 113 371q-3 36 -27 48q2 0 5 1q28 4 66 -14.5t71 -49.5q51 -48 55 -82z" />
    <glyph glyph-name="numbersign" unicode="#" horiz-adv-x="1669" 
d="M824 -13q-33 2 -74.5 22t-70.5 63q-32 48 -32 81q0 15 8 36t30 60t39.5 68.5t58.5 95.5q-78 -4 -181 -14q-94 -142 -98 -149q-113 -179 -113 -239q0 -8 4 -14.5t4 -7.5q0 -8 -18 -8q-31 0 -81.5 55.5t-50.5 87.5q0 61 132 249q-83 -15 -179 -40t-133 -46q-5 -2 -7 9
q-5 35 18 89q25 59 67 70q166 40 313 51q33 43 128 181q-158 -24 -251 -62q-25 -10 1 -37t59 -46q-45 6 -87 22.5t-64 32.5t-22 25q-2 29 27.5 87.5t54.5 64.5q155 38 365 53q214 303 214 373q0 26 -14 32q2 2 8 2q22 0 54 -24q35 -28 75.5 -77t40.5 -66q0 -3 -3 -8
l-165 -226q70 2 168 -1q117 164 180.5 267t63.5 147q0 24 -14 30q2 2 8 2q22 0 60 -27q35 -26 72.5 -73.5t37.5 -65.5q0 -4 -3 -9l-203 -279q125 -8 298.5 -36.5t241.5 -65.5q-26 -4 -88 0q-214 17 -504 4l-158 -220q356 -22 504 -89q-24 -4 -81 0q-242 15 -468 4
q-61 -87 -95 -139q-97 -155 -107 -210q-7 -38 86.5 11t170.5 103q11 7 13 2q0 -2 -2 -4q-48 -63 -125 -131t-113 -66zM843 514l143 204l-179 -12l-137 -192q86 3 173 0z" />
    <glyph glyph-name="dollar" unicode="$" horiz-adv-x="1220" 
d="M595 651q37 -18 100.5 -43.5t106 -44.5t86.5 -42t65 -46.5t19 -47.5q-7 -69 -94.5 -155.5t-217.5 -158.5q-157 -89 -269 -111q-69 -106 -112.5 -198t-43.5 -127q0 -13 7 -23l8 -10q0 -11 -28 -11q-24 0 -75.5 41.5t-51.5 73.5q0 34 28.5 89t87.5 149q-46 0 -93 25
q-64 34 -104 92.5t-36 117.5q3 51 89.5 115.5t191 107t165.5 43.5q23 0 3 -14q-96 -65 -224.5 -190.5t-128.5 -176.5q0 -23 41 -23q94 0 255 74.5t287.5 171.5t130.5 155q0 6 -5.5 13.5t-19 16.5t-27 16.5t-38.5 20t-43 20.5t-51.5 23.5t-53.5 24.5q-38 18 -98 42.5
t-99.5 41.5t-80 38.5t-60 44t-18.5 46.5q7 70 99.5 158.5t223.5 160t249 100.5q184 268 184 334q0 36 -19 44q2 2 11 2q28 0 77 -38q33 -26 58 -57t24 -47q0 -6 -5 -14l-151 -197q92 -6 158.5 -78.5t60.5 -159.5q-3 -49 -96 -112t-195.5 -104t-143.5 -41q-20 0 -3 13
q36 27 86.5 69.5t115 100.5t108 111.5t43.5 81.5q0 24 -28 24q-93 0 -255 -75t-288.5 -172t-130.5 -153q-1 -12 13.5 -25.5t47 -31.5t66.5 -34t91 -41z" />
    <glyph glyph-name="percent" unicode="%" horiz-adv-x="1751" 
d="M121 611q4 89 69 195.5t153 173.5q2 36 88.5 70.5t165.5 34.5q95 0 164 -57t65 -139q-2 -56 -46 -136.5t-109 -154.5t-151.5 -126.5t-163.5 -52.5q-34 0 -74.5 13t-77.5 36.5t-61 61t-22 81.5zM698 978q9 52 -35 52q-50 0 -140 -92t-165 -212.5t-89 -196.5q-4 -39 29 -39
q53 0 148.5 106.5t169 223t82.5 158.5zM1232 1130q3 3 14 3q47 0 116 -36.5t81 -70.5q4 -11 0 -11q-9 6 -19 6q-52 0 -188.5 -120.5t-310.5 -306.5q-174 -185 -312.5 -356t-138.5 -200q0 -6 2.5 -12.5t2.5 -8.5q0 -6 -10 -6q-12 0 -34.5 10t-35.5 26q-16 18 -10 48
q9 50 177.5 274.5t371 459t294.5 301.5zM805 191q4 89 69 195t153 173q2 36 89 71t165 35q94 0 163 -57.5t65 -139.5q-2 -56 -46 -136.5t-109 -154.5t-151 -126.5t-163 -52.5q-47 0 -100.5 21.5t-95 68t-39.5 103.5zM1382 558q9 52 -35 52q-50 0 -140 -92t-165 -212.5
t-89 -196.5q-4 -40 28 -40q53 0 148.5 106.5t169.5 223.5t83 159z" />
    <glyph glyph-name="ampersand" unicode="&#x26;" horiz-adv-x="1955" 
d="M1865 917q-142 -155 -354.5 -339t-432.5 -342q155 -168 248.5 -243.5t149.5 -74.5q58 0 128 88q6 7 8 5.5t0 -9.5q-11 -37 -40 -78q-44 -60 -84.5 -87.5t-94.5 -47.5q-60 -22 -172 68.5t-284 295.5q-232 -160 -368 -240t-205 -80q-65 0 -129 32t-108 79.5t-71.5 102.5
t-27.5 100t21 86q47 91 199 188.5t347 173.5q-74 121 -74 219q0 112 68 233.5t169 214.5t224.5 153.5t228.5 60.5q118 0 203.5 -103t85.5 -248q0 -67 -119 -166t-324 -195q-10 -4 -17.5 -2t-7.5 8t8 13q149 120 264 258.5t115 204.5q0 20 -18 40t-57 29q-73 15 -197 -19.5
t-241.5 -97t-203.5 -151t-86 -170.5q0 -52 76 -167.5t153.5 -209t158.5 -183.5q249 149 476.5 316t364.5 303q8 8 16 8q12 0 12 -11q0 -8 -8 -16zM855 236q-55 65 -237 325q-143 -93 -252.5 -201t-159.5 -190t-50 -131q0 -47 50 -47q93 0 271 66t378 178z" />
    <glyph glyph-name="quotesingle" unicode="'" horiz-adv-x="460" 
d="M599 1202q-40 -65 -133 -145t-143 -109q-3 -2 -14 1.5t-19.5 9.5t-5.5 10q163 204 167 351q0 39 -22 51q3 0 4 1q50 0 110.5 -61t58.5 -95q0 -10 -3 -14z" />
    <glyph glyph-name="parenleft" unicode="(" horiz-adv-x="981" 
d="M364 -44q15 -55 39.5 -89t48.5 -34q8 0 6 -2q-7 -11 -61 -24q-62 -14 -107 -4q-26 7 -41 21q-52 39 -74 132t-24 192q-3 150 41.5 303.5t120.5 281.5t173 246.5t199.5 208t197 154.5t169.5 96.5t115 25.5q-26 -11 -75 -45.5t-115 -89t-139 -130t-147.5 -162.5
t-140.5 -191.5t-117 -211.5t-78.5 -229t-23.5 -238q4 -99 33 -211z" />
    <glyph glyph-name="parenright" unicode=")" horiz-adv-x="954" 
d="M632 1319q-14 54 -38.5 88t-49.5 34q-8 0 -6 2q7 11 61 24q62 14 107 4q28 -8 41 -20q51 -41 73 -135t24 -190q3 -150 -41.5 -303.5t-120.5 -281.5t-173 -246.5t-199.5 -207.5t-197 -154t-169.5 -96.5t-115 -25.5q31 12 89.5 54.5t138.5 114t164.5 161t166.5 203.5
t145.5 233.5t100.5 258.5t32 271q-4 101 -33 212z" />
    <glyph glyph-name="asterisk" unicode="*" horiz-adv-x="1298" 
d="M1033 911q3 1 10.5 -5.5t12.5 -14t1 -10.5q-92 -58 -283 -218q194 -21 311 -56q9 -2 6 -21t-10 -19q-183 7 -394 -11l-8 -8q90 -201 191 -331q4 -6 -14 -19t-24 -7q-35 34 -109 120.5t-140 178.5q-117 -110 -192 -199.5t-81 -132.5q-2 -14 -28 9t-43 58q-15 34 -15 71.5
t17 57.5q73 80 244 202q-257 -37 -309 -102q-5 -7 -7 6q-4 38 18 99q13 37 37 66.5t47 36.5q74 21 200 26q-39 70 -54 122q-6 19 12.5 45.5t49.5 47.5q54 37 97 42q13 1 12 -4q-34 -68 36 -253q6 -1 36 -1q285 190 373 224z" />
    <glyph glyph-name="plus" unicode="+" horiz-adv-x="1249" 
d="M774 989q8 8 12 8q15 3 38 3.5t62 -11t73 -33.5q28 -16 35 -36l1 -8h-1q-7 5 -18.5 3t-20.5 -9q-84 -50 -219 -221q210 -18 349 -66q9 -4 3.5 -19.5t-12.5 -15.5q-192 7 -405 -11q-83 -116 -142.5 -223t-59.5 -140q0 -8 4 -14t4 -7q0 -4 -5.5 -6.5t-11.5 -1.5
q-31 4 -58 22.5t-27 43.5q0 73 124 309q-258 -37 -310 -102q-4 -6 -5 5q-3 37 22 102l2 6q15 36 37 63t43 33q102 30 273 27q118 206 213 299z" />
    <glyph glyph-name="comma" unicode="," horiz-adv-x="567" 
d="M-93 -235q-35 -13 -85 -16q-9 0 -8 2q38 35 119 150t108 167q58 118 11 142q29 0 63 -23q48 -33 74 -74.5t24 -62.5q0 -4 -3 -9q-20 -41 -147 -152.5t-156 -123.5z" />
    <glyph glyph-name="hyphen" unicode="-" horiz-adv-x="1236" 
d="M210 375q-14 -26 -23 -10q-7 15 22.5 95t70.5 128q25 29 120 44t183 11q54 -2 118 -12t119 -23.5t100.5 -28t69.5 -27.5t18 -21q-3 -3 -16 -3q-323 17 -529.5 -30t-252.5 -123z" />
    <glyph glyph-name="period" unicode="." horiz-adv-x="693" 
d="M291 121q0 -28 -55 -89t-80 -79q-16 -8 -59 34t-43 60q0 6 13.5 29t31 55t24.5 53q12 39 7 47l-4 4q17 15 57.5 -4.5t74 -53.5t33.5 -56z" />
    <glyph glyph-name="slash" unicode="/" horiz-adv-x="1072" 
d="M96 27q0 47 73.5 192t178 322.5t209 353t178 309.5t73.5 165t-17 38l7 1h2q30 0 68 -30q41 -31 74 -70t33 -62q0 -4 -3 -12q-10 -16 -237.5 -350t-382.5 -586t-155 -315q0 -10 4.5 -17.5t4.5 -8.5q0 -11 -20 -11q-25 0 -57.5 27t-32.5 54z" />
    <glyph glyph-name="zero" unicode="0" horiz-adv-x="1328" 
d="M-159 170q0 108 48 233.5t128 243t175 223t199 193.5q1 6 17 57q42 75 216.5 149.5t300.5 74.5q116 0 225 -55t175 -142t66 -177q0 -97 -49.5 -222t-131.5 -249t-191.5 -244.5t-224.5 -213t-236 -149t-221 -56.5q-79 0 -164 22.5t-160 62.5t-123.5 106t-48.5 143z
M1237 1063q0 91 -57.5 142t-153.5 51q-78 0 -185.5 -54t-218.5 -142t-220.5 -207t-194.5 -243t-138 -256.5t-53 -241.5q0 -98 43 -138t110 -40q109 0 236 60.5t243 158t225 221.5t188.5 248.5t127.5 241.5t48 199z" />
    <glyph glyph-name="one" unicode="1" horiz-adv-x="712" 
d="M890 1222q-78 -94 -221 -292t-215 -308q-75 -116 -127 -200.5t-113.5 -193.5t-94 -191.5t-31.5 -132.5q3 -38 21 -57q0 -3 -5 -3q-35 0 -105 53t-70 112q0 15 5 37q95 252 386 685l198 293q-68 -61 -182 -119.5t-227 -94.5q-2 -1 -3.5 2t-1.5 6q0 15 10 33.5t20 22.5
q73 14 188 95.5t231 189.5q169 157 169 210q0 25 -18 33l8 2h2q28 0 61 -26q47 -36 82.5 -81t35.5 -65q0 -6 -3 -10z" />
    <glyph glyph-name="two" unicode="2" horiz-adv-x="1189" 
d="M63 148q79 51 207 146.5t282 224.5t287 255t223 246t90 190q0 96 -147 96q-86 0 -186.5 -40.5t-190 -104.5t-174.5 -142t-146.5 -152t-98.5 -136.5t-37 -94.5q0 -33 33 -33q51 0 172 87t278 241q5 5 10 3.5t3 -9.5q-19 -60 -83 -149t-152.5 -163t-155.5 -74
q-80 0 -156.5 58.5t-76.5 131.5q0 58 49 143t136 173.5t193.5 166.5t235 127.5t245.5 49.5q90 0 167.5 -32.5t126 -81.5t76 -103t27.5 -99q0 -75 -105 -197.5t-266.5 -253.5t-329.5 -249.5t-319 -210.5q192 0 434 -68t392 -179q5 -3 -4 -6q-4 -1 -7 0q-98 43 -188 71
t-172.5 41t-137.5 17.5t-134 7.5q-78 2 -147.5 -2t-112 -10t-115.5 -18q-94 -58 -229 -120.5t-191 -62.5q-20 0 -38 39.5t-18 80.5q0 42 30.5 72.5t104 53.5t122 33t155.5 29q26 5 39 7z" />
    <glyph glyph-name="three" unicode="3" horiz-adv-x="1339" 
d="M455 542q4 2 13 1t9 -7q0 -9 -15 -15q-119 -58 -264.5 -158t-255 -206t-109.5 -162q0 -66 169 -66q138 0 328.5 67.5t352 161.5t277 200t119.5 178q4 62 -63 100t-175 51q-193 -81 -316 -106q-3 -1 -19 -1q-40 0 -40 20q4 24 38 76t55 64q3 2 21 4t54.5 3.5t79.5 0.5
q126 68 232 139t187 154.5t85 147.5q3 68 -38.5 92.5t-119.5 24.5q-87 1 -191 -40.5t-193.5 -102.5t-166 -127.5t-121 -120.5t-46.5 -77q-1 -11 9 -16t19 -3q91 17 339 175q4 2 6 -2.5t0 -8.5q-45 -65 -138 -144.5t-147 -80.5q-29 0 -78.5 18t-93.5 54.5t-44 76.5
q0 45 43 109t120 130t171 123t208 93.5t219 36.5q88 0 159 -30t114.5 -79.5t67 -111t23.5 -127.5q0 -149 -427 -334q55 -14 105.5 -39t95.5 -61t70 -87t21 -109q-6 -109 -127 -226.5t-288 -204t-347 -142.5t-305 -56q-52 0 -122 20.5t-135 54.5t-108.5 85.5t-40.5 105.5
q4 61 55.5 125t129 116.5t175 101.5t189 83t175.5 58z" />
    <glyph glyph-name="four" unicode="4" horiz-adv-x="1283" 
d="M1366 1155q-105 -131 -340 -470q190 12 352 0q27 -2 27 -13q0 -10 -25 -10q-137 0 -397 -44q-23 -36 -64.5 -101.5t-64 -101t-58 -92.5t-55.5 -91.5t-46.5 -81.5t-40.5 -79t-28.5 -67t-20.5 -62.5t-6 -50.5q0 -37 19 -56q0 -4 -5 -4q-16 0 -55.5 21t-78.5 61.5t-39 81.5
q0 22 7 37q46 122 119 248t187 298l-65 -14q-186 -41 -376.5 -102t-267.5 -106q-19 -10 -31.5 -31t-12.5 -40q-14 -4 -88.5 70t-81.5 94q-9 25 23 39q223 117 585 410q321 261 364 421q16 55 3 111q22 -7 60 -46.5t64 -89t15 -76.5q-31 -68 -172.5 -194t-351 -287
t-214.5 -165q74 21 245.5 50t359.5 48q63 95 140 207t113.5 165.5t73 111.5t49.5 90t13 56q0 25 -15 33l6 1h2q31 0 63 -25q48 -36 80.5 -80t32.5 -65q0 -4 -3 -9z" />
    <glyph glyph-name="five" unicode="5" horiz-adv-x="1239" 
d="M556 1298q42 -17 143 -17q106 0 248 20.5t250 45.5q122 24 126 68v6l1 -1q1 0 3.5 -3t4.5 -8.5t3.5 -16t0.5 -25.5q-3 -61 -28.5 -126.5t-42.5 -73.5q-398 -17 -660 -41q-43 -7 -107.5 -76t-34.5 -92q46 -36 127 -93.5t145.5 -103t138.5 -105.5t122.5 -111.5t79.5 -111
t28 -113.5q-5 -63 -47 -126.5t-107.5 -115.5t-148 -98t-166.5 -77t-163.5 -49t-140.5 -18q-134 0 -252.5 40.5t-187 110t-60.5 147.5q7 70 73 142.5t159.5 130t212.5 111.5t219 89t193 61q6 2 6 -4t-6 -10q-122 -65 -239 -136.5t-235 -155.5t-192.5 -165t-78.5 -140
q-3 -52 50.5 -75t138.5 -23q98 0 240 46.5t270 114.5t219 154.5t91 158.5q0 86 -186 236t-423 270q-9 6 -9 30q4 60 84 170.5t138 158.5z" />
    <glyph glyph-name="six" unicode="6" horiz-adv-x="1309" 
d="M1043 918q-37 -7 -45 3q-3 3 5 9l2 1q65 40 128 87.5t120.5 112.5t57.5 112q0 66 -71 66q-138 0 -341.5 -119t-402 -309.5t-323.5 -390.5q137 149 309 251.5t337 102.5q67 0 133 -28t115 -71.5t79.5 -99.5t30.5 -109q0 -111 -81.5 -236t-203 -223t-270.5 -163t-277 -65
q-121 0 -230 43t-176 119t-67 165q0 119 62 260.5t162.5 274t233 258.5t269.5 219t275.5 149.5t247.5 56.5q105 0 201 -71.5t96 -169.5q0 -50 -59.5 -100.5t-144 -84.5t-172.5 -50zM890 756q-185 0 -380.5 -90.5t-372.5 -229.5q-51 -88 -78 -181t-27 -160q0 -77 32.5 -116
t126.5 -39q88 0 203 46.5t224.5 122t204 163.5t152 180t57.5 162q0 79 -38 110.5t-104 31.5z" />
    <glyph glyph-name="seven" unicode="7" horiz-adv-x="965" 
d="M321 331q-79 -91 -130.5 -168.5t-72 -130t-22 -95t10 -67.5t33.5 -43q5 -4 1.5 -9.5t-10.5 -4.5q-32 4 -76 24.5t-85.5 53t-59 74t2.5 89.5q83 174 349 466q120 129 410 372t497 387q-146 -80 -431 -140.5t-360 -46.5q-37 4 -61 36.5t-31 74.5t-6 81.5t10 62.5
q13 -37 77.5 -58t205.5 -20t339 32q45 7 67 10.5t57 12t53 17.5t35.5 24t23.5 34l3 -1q3 0 10.5 -2.5t15.5 -6.5t19.5 -12t22.5 -19q32 -34 64 -84.5t17 -57.5q-82 -43 -225.5 -155.5t-351 -309.5t-402.5 -420z" />
    <glyph glyph-name="eight" unicode="8" horiz-adv-x="1208" 
d="M-198 170q0 92 68 186.5t171.5 166t215.5 124.5t211 76q-67 39 -118.5 101.5t-51.5 131.5q0 86 56.5 163.5t154.5 134.5l11 22t11 19t16.5 20t19.5 11q83 30 199.5 49t191.5 19q174 0 253 -69.5t79 -188.5q0 -72 -72 -153t-180 -146t-227 -104q130 -24 204.5 -113
t74.5 -199q0 -66 -44 -139t-116.5 -138t-168.5 -125t-196.5 -103t-203 -68.5t-186.5 -25.5q-50 0 -79 6q-42 7 -92.5 37.5t-95.5 75.5t-75.5 106.5t-30.5 122.5zM775 677q-73 0 -183 -36t-225 -98.5t-216.5 -138t-166 -163.5t-64.5 -165q0 -62 34 -90.5t118 -28.5
q79 0 178.5 27.5t197 73t192 106.5t166.5 126t116 135t44 130q0 52 -47.5 87t-143.5 35zM1021 1334q-43 0 -125 -15q-117 -52 -227 -132t-182.5 -171.5t-72.5 -163.5q0 -12 5 -23t24.5 -22t52.5 -11q80 0 202 51.5t229 121.5t184 145.5t77 120.5q0 99 -167 99z" />
    <glyph glyph-name="nine" unicode="9" horiz-adv-x="1392" 
d="M1372 934q-62 -212 -178 -415t-259 -359t-313.5 -251.5t-331.5 -95.5q-108 0 -216 36t-180 101t-72 138t62 149t154.5 133.5t186.5 98.5t170 59q-68 48 -114 102.5t-46 100.5q0 99 94 218t231.5 214.5t303 160.5t299.5 65q75 0 161.5 -29.5t153.5 -90.5t67 -135
q0 -23 -10 -45t-32 -44.5t-39 -37.5t-48.5 -39t-43.5 -34zM110 -69q161 0 312.5 66t266.5 169.5t215.5 240t166 266t111.5 260.5q-104 -168 -292 -323t-293 -155q-81 0 -176 62q-183 -89 -324 -232.5t-141 -241.5q0 -112 154 -112zM458 559q82 0 218.5 60.5t281 168
t227.5 223.5q11 19 11 48q0 51 -32 58q7 6 21 6q29 0 52 -11q70 -29 130 -102q41 59 57 101.5t16 90.5q0 43 -43.5 69.5t-96.5 26.5q-93 0 -201 -33.5t-207.5 -87.5t-193 -124.5t-162.5 -143.5t-110.5 -145.5t-41.5 -128.5q0 -76 74 -76z" />
    <glyph glyph-name="colon" unicode=":" horiz-adv-x="715" 
d="M337 469q-10 -7 -32 3t-39 25t-14 20q4 8 24.5 42.5t38.5 67.5q58 118 11 142q29 0 66 -25q42 -31 71 -72.5t27 -60.5q0 -5 -3 -9q-13 -18 -49.5 -51t-66.5 -56.5t-34 -25.5zM291 263q0 -26 -51.5 -84t-72.5 -70q-14 -8 -54.5 30.5t-40.5 55.5q0 5 12 26t28 50t23 49
q13 38 4 47q15 13 52.5 -5t68.5 -49t31 -50z" />
    <glyph glyph-name="semicolon" unicode=";" horiz-adv-x="683" 
d="M-39 -235q-36 -13 -82 -16q-9 0 -8 2q38 35 119 150t108 167q58 118 11 142l9 1q15 -3 40 -22q37 -28 73.5 -75t34.5 -64q0 -4 -3 -9q-24 -42 -149 -153.5t-153 -122.5zM414 443q0 -26 -51.5 -84.5t-72.5 -70.5q-14 -8 -55 31t-41 56q0 5 12 26t28 49.5t23 48.5
q13 38 3 48q15 13 53 -5t69.5 -49t31.5 -50z" />
    <glyph glyph-name="less" unicode="&#x3c;" horiz-adv-x="1304" 
d="M132 384q66 0 255.5 112.5t347.5 228.5t157 132q2 5 12.5 11t24.5 6q21 1 60 -15t66 -38t16 -35q-55 -62 -212 -151.5t-341.5 -179.5t-197.5 -97q90 -28 179.5 -81t148.5 -107t96 -100.5t37 -67.5q0 -4 -3 -4q-109 112 -252 167.5t-354 55.5l-104 -7q-6 0 6.5 42.5t31 85
t26.5 42.5z" />
    <glyph glyph-name="equal" unicode="=" horiz-adv-x="1359" 
d="M282 436q-21 -15 -28 -1q-3 8 5 36.5t30.5 69t52.5 69.5q27 25 125 32t188 -2q144 -11 279.5 -56.5t147.5 -74.5q-3 -3 -8 -3q-230 23 -401.5 10.5t-261.5 -33.5t-129 -47zM143 151q-13 -24 -22 -9q-7 15 22.5 91.5t70.5 124.5q25 29 112.5 40.5t190.5 6.5
q54 -3 116.5 -12t116.5 -22t98.5 -26.5t68 -26t17.5 -20.5q-3 -3 -8 -3q-325 17 -531.5 -26.5t-251.5 -117.5z" />
    <glyph glyph-name="greater" unicode="&#x3e;" horiz-adv-x="1398" 
d="M814 477l-42.5 25.5t-49 32t-57.5 42.5t-47 43.5t-38.5 50t-12.5 47.5q0 41 51 110q34 48 42 38q2 -2 2 -6q0 -44 51 -103t117 -106t125.5 -80.5t79.5 -33.5q13 -6 3 -44.5t-32.5 -83t-33.5 -44.5q-78 0 -173.5 -20t-187 -52.5t-183 -71t-169 -77.5t-137.5 -71.5
t-95 -52.5l-35 -20q-1 0 -1 2q0 15 39 54.5t115.5 95t173.5 113.5t229 116t266 96z" />
    <glyph glyph-name="question" unicode="?" horiz-adv-x="1417" 
d="M785 736q40 25 107 67t110.5 69.5t100.5 65.5t93.5 67.5t70.5 63t50.5 64.5t16.5 60q0 148 -148 148q-96 0 -202 -40t-191 -100t-156 -126.5t-110 -124t-39 -88.5q0 -30 46 -25q43 5 155 69t177 121q10 8 12 0q0 -5 -4 -14q-39 -73 -130 -164t-147 -91q-45 0 -102.5 24
t-102 68t-44.5 92q1 49 42 113t113.5 128.5t161.5 119t196 89t206 34.5q87 0 158 -25.5t115 -64.5t73.5 -90.5t41.5 -100t12 -94.5q0 -24 -11.5 -49.5t-29.5 -47t-48 -46.5t-57 -44t-67.5 -43t-70 -40.5t-72.5 -40t-67 -37.5q-11 -7 -65 -36.5t-89.5 -50.5t-93 -56.5
t-96 -67t-77.5 -69t-59 -75.5t-20 -74q0 -15 6 -33q-4 -4 -8 -2q-13 7 -36.5 47.5t-38 92.5t3.5 98q9 21 24.5 42t39 42.5t43 38t52.5 38.5t51.5 34t55 34t48.5 30zM436 -90q-31 2 -85 39t-60 65q-9 43 22.5 105t72.5 72q27 6 83 -29q53 -33 45 -53q-1 -4 -5 -7
q-24 -20 -54 -86t-19 -106z" />
    <glyph glyph-name="at" unicode="@" horiz-adv-x="1720" 
d="M331 102q30 0 172.5 93.5t275.5 204.5t133 150q0 14 -11 19l1 1h4q19 0 39 -20q32 -32 66.5 -75t34.5 -61q0 -6 -5 -8q-30 -12 -83.5 -83t-100.5 -150q-47 -81 -47 -108v-8q-1 -7 3 -7q13 0 70 46.5t134.5 127t151 174.5t125 203.5t51.5 198.5q0 34 -10.5 65t-35 61.5
t-73 49t-115.5 18.5q-138 0 -297.5 -61.5t-302.5 -165t-261.5 -228.5t-188.5 -263t-70 -256q0 -53 16.5 -94t48 -67t67.5 -43.5t84 -26t88.5 -11.5t88.5 -3q95 0 207 25t251 84t284.5 147t313 223.5t332.5 303.5q2 0 5 -3t2 -5q-151 -196 -309.5 -353.5t-300 -260.5
t-280 -172.5t-252.5 -99t-215 -29.5q-105 0 -211 39t-187 102t-131.5 147.5t-50.5 169.5q0 119 51.5 243.5t136.5 232.5t198.5 204.5t235.5 165t249 108.5t237 40q252 0 396 -109.5t144 -285.5q0 -80 -40 -168.5t-103.5 -164.5t-141 -145.5t-153.5 -119t-140.5 -78.5
t-101.5 -29q-42 0 -104 46.5t-60 98.5q2 39 167 246q-17 -15 -112 -99q-77 -72 -121.5 -113.5t-99.5 -88t-90.5 -67.5t-57.5 -21q-37 0 -101.5 56t-69.5 114q-6 65 76 175t198.5 210.5t249 173.5t218.5 70q105 -4 166 -46t61 -106q0 -26 -47.5 -65t-90.5 -54q-3 -2 -4 3
q0 4 3 8q20 35 38.5 83t18.5 71q0 30 -22 30q-67 0 -184.5 -75t-209.5 -155q-127 -111 -219 -222t-88 -147q0 -11 6 -11z" />
    <glyph glyph-name="A" unicode="A" horiz-adv-x="2150" 
d="M1798 -400q-69 0 -129.5 26.5t-98 66.5t-59 84.5t-21.5 83.5q0 162 73.5 394t174.5 435q-77 13 -194 19q-43 -47 -124.5 -137t-135 -149.5t-136.5 -148.5t-143 -150t-140 -138t-142 -129t-135 -106t-132 -86t-120 -52.5t-112 -20.5q-61 0 -135.5 30.5t-142 81t-113.5 126
t-46 156.5q0 103 68 205t183 186t270.5 157t328 123t357 78.5t355.5 28.5q83 0 122 -3q327 312 536 542q138 154 140 198q0 21 -19 33q4 4 10 4q53 0 126 -73q37 -37 61 -75.5t13 -56.5q-181 -211 -388 -637q215 -62 342 -151q2 -2 2 -6t-4 -7t-9 0q-163 85 -346 128
q-260 -570 -260 -847q0 -29 2 -49.5t10 -46.5t26.5 -40t47.5 -14q48 0 109 26t88 46q11 8 12 1q1 -4 -5 -13q-29 -40 -79 -81.5t-88 -41.5zM-80 -128q0 -69 38.5 -113t109.5 -44q116 1 345 143.5t495 369t513 484.5q-198 -7 -394.5 -49.5t-359 -109t-303.5 -151.5
t-237.5 -176t-151.5 -183t-55 -171zM2138 1408q-278 -368 -555 -653q68 -6 177 -24q152 306 378 677z" />
    <glyph glyph-name="B" unicode="B" horiz-adv-x="2151" 
d="M1254 -222q-386 -162 -822 -205q-37 -95 -22 -120l4 -8q0 -9 -35 5t-70.5 47.5t-35.5 72.5q-6 0 -17 0.5t-15 0.5q-78 4 -174.5 39.5t-178.5 99.5t-98 134q-29 127 112.5 255t388 224.5t544.5 150.5q78 97 139 170q-15 11 -27.5 26.5t-12.5 24.5q0 11 21.5 15.5t82.5 9.5
q22 26 63.5 74t64 74.5t58.5 69t56.5 68t47.5 60.5t42 58.5t30.5 49t23 45t8.5 35.5q3 35 -14 44q-2 2 3 3q3 1 6 0q34 -6 73 -41q50 -43 73.5 -80.5t19.5 -59.5q-5 -32 -191 -254q-23 -28 -123 -141q128 24 266.5 90t241.5 152t126 161q17 57 -1.5 104.5t-63.5 77t-97 47
t-108 23.5q-189 20 -400.5 -23.5t-401.5 -134.5q-74 -35 -142.5 -80.5t-123.5 -105.5t-55 -110q0 -61 139 -96q24 -6 22 -14q-1 -7 -16 -5q-122 8 -189 52q-39 24 -64 63t-24 81q4 120 135.5 227.5t344.5 175.5q205 65 425 78.5t404 -34.5q102 -29 180.5 -90.5t117 -128
t54.5 -125t7 -92.5q-15 -62 -69 -116t-135 -94t-168 -69.5t-187 -51.5q128 -24 235 -73t154 -126q151 -26 260 -63q14 -5 13 -10.5t-20 -1.5q-138 31 -236 39q16 -36 19 -68q4 -108 -80.5 -218t-233 -205.5t-354.5 -182.5zM1782 458q-234 10 -418.5 -0.5t-363.5 -46.5
q-84 -103 -113 -140q-225 -283 -364 -525q290 61 671 218q130 54 242.5 124t185 137.5t115 128.5t45.5 104zM52 -288q128 -14 271 3q58 120 169 290.5t239 337.5q-14 -4 -62 -18.5t-74 -23.5q-169 -56 -307 -127.5t-221 -141t-122 -135t-25 -113.5q18 -59 132 -72zM1366 654
q-51 0 -166 -14q-67 -72 -115 -130q343 37 689 -9q-28 69 -148.5 111t-259.5 42z" />
    <glyph glyph-name="C" unicode="C" horiz-adv-x="1775" 
d="M1352 750q-16 -10 -23 0q-7 9 13 27q156 140 273.5 297.5t117.5 250.5q0 32 -26.5 49t-63.5 20q-198 14 -481 -121t-516 -358q-261 -256 -408 -520.5t-117 -459.5q13 -90 85.5 -141t188.5 -51q251 0 652.5 234t809.5 617q17 16 19 1q2 -12 -6 -20q-87 -94 -177.5 -185.5
t-212.5 -207t-241.5 -211t-241.5 -179t-238 -131t-206 -47.5q-55 0 -118.5 11t-132.5 32.5t-132.5 57.5t-115.5 82t-86 111.5t-40 140.5q-14 185 110.5 420.5t339.5 447.5q249 243 554 405t543 162q84 0 152.5 -19.5t110 -48.5t71 -66t41.5 -67.5t15 -56.5
q10 -91 -141 -238.5t-372 -237.5z" />
    <glyph glyph-name="D" unicode="D" horiz-adv-x="2122" 
d="M1927 455q-116 -200 -360 -381.5t-540 -300t-578 -150.5q-36 -77 -36 -130q0 -23 8 -37q1 -10 -35 10t-75 60.5t-45 82.5q-58 1 -137.5 23.5t-159.5 61t-140.5 99t-71.5 128.5q-20 123 124 241.5t396.5 205t563.5 130.5q69 89 306 384q143 179 178 234q39 61 42 97
q3 35 -14 44q-3 3 4 4t12 -1q27 -6 57 -31q46 -39 78.5 -84.5t28.5 -65.5q-6 -28 -232 -301l-211 -252q288 22 654 -6q140 192 151 380q4 80 -21.5 147.5t-74 114t-109 82.5t-132.5 57.5t-137.5 33t-131.5 15.5q-176 10 -361.5 -36t-318 -116t-217.5 -146.5t-85 -128.5
q0 -67 199 -112q9 -2 10 -7t-6 -7q-4 -1 -9 0q-131 6 -222 46q-39 17 -74 55.5t-35 89.5q0 68 55 142.5t157.5 140t233.5 116t298.5 74.5t336.5 12q109 -8 216.5 -40t207 -92.5t176 -141.5t122 -194.5t45.5 -242.5q0 -133 -72 -274q160 -22 225 -47q36 -14 13 -14
q-8 0 -24 2q-94 15 -233 26zM1711 476q-378 10 -696 -41q-280 -337 -460 -626q352 86 662.5 262.5t493.5 404.5zM76 -249q136 0 249 17q24 41 60 95.5t59.5 89t68.5 98.5t53 75q123 171 189 258q-247 -55 -466 -156.5t-332.5 -211t-74.5 -186.5q23 -44 84.5 -61.5
t109.5 -17.5z" />
    <glyph glyph-name="E" unicode="E" horiz-adv-x="1767" 
d="M518 -395q-65 -2 -143.5 13t-158.5 49.5t-146.5 81.5t-110 115.5t-46.5 144.5q-3 85 51.5 169t145.5 151t205.5 125.5t231 97t221 60t177.5 20.5q-45 1 -106 17.5t-124 45t-107.5 77t-46.5 105.5q-3 74 48.5 155t137.5 152t191 132t215 103q199 74 374 59
q128 -13 221 -81t97 -170q2 -66 -122 -177t-255 -168q-8 -4 -15 3q-3 3 1 7q97 93 178 221t79 196q-3 80 -110 80q-151 0 -344 -92q-129 -60 -241.5 -141t-187.5 -174.5t-75 -170.5q0 -21 14 -42t45 -43t93 -39.5t147 -26.5q16 3 84 23.5t135.5 36.5t105.5 16q44 0 44 -18
q2 -38 -48.5 -96t-118.5 -58q-56 0 -136 18.5t-94 19.5q-409 -111 -660.5 -309.5t-251.5 -393.5q0 -73 49.5 -118.5t161.5 -45.5q140 0 308 55t324 140.5t324.5 203.5t302.5 229t266 232q18 16 16 0q-1 -11 -7 -18q-55 -63 -140.5 -150.5t-203.5 -199t-249.5 -217.5
t-262 -197t-259 -148t-224.5 -60z" />
    <glyph glyph-name="F" unicode="F" horiz-adv-x="1701" 
d="M1651 1292q0 50 -37.5 81.5t-86 42t-108.5 10.5q-117 2 -252.5 -35t-259 -99t-239 -143t-200 -164.5t-135.5 -166t-51 -145.5q0 -43 50 -43q133 0 400.5 131t464.5 293q20 19 19 4q-1 -11 -14 -28q-172 -221 -384.5 -359.5t-354.5 -138.5q-76 0 -148.5 46t-113.5 107.5
t-43 113.5q-3 92 64.5 195.5t186 195.5t265 168t315.5 120.5t322 44.5q84 0 172.5 -29t162.5 -80.5t118.5 -131t37.5 -170.5q-3 -39 -41 -105.5t-108 -159t-136.5 -174t-161.5 -195.5q-15 -17 -22 -26q231 -33 368 -115q5 -5 -3 -5q-204 46 -420 56q-121 -148 -196 -243.5
t-155 -207.5t-117 -191t-35 -130q0 -7 5 -10q18 -11 190.5 120t248.5 214q8 9 17 8q5 0 1 -9q-63 -124 -188.5 -262.5t-183.5 -138.5q-51 0 -112 35q-58 33 -91 75t-35 83q-2 87 102 245.5t311 414.5q-170 -7 -340 -35.5t-300.5 -67.5t-233 -83t-157 -84t-53.5 -67
q2 -24 81 -50t157 -26v-2q1 -5 -27 -15.5t-72 -19.5t-78 -9q-51 0 -88.5 19.5t-38.5 65.5q-2 113 73.5 205t187.5 139q174 73 442.5 105.5t515.5 9.5q284 351 407 528q73 110 104 173.5t31 114.5z" />
    <glyph glyph-name="G" unicode="G" horiz-adv-x="1925" 
d="M876 -482q0 68 77.5 202.5t162.5 246.5t182 228q-535 -464 -830 -464q-46 0 -100.5 8.5t-118.5 26t-122.5 49t-107 73t-77.5 103t-29 133.5q0 143 85.5 315t225 332.5t316.5 306t361 248.5q317 177 575 177q91 0 164.5 -30t114.5 -74.5t63 -86t24 -74.5
q2 -84 -132.5 -196t-354.5 -204q-19 -10 -24 0q-4 11 14 28q355 307 355 472q0 70 -90 70q-138 -4 -302.5 -60t-326.5 -162q-187 -122 -348.5 -268t-281 -298t-187.5 -309.5t-68 -294.5q0 -180 214 -180q123 0 362 103.5t480.5 252.5t391.5 282q36 31 80.5 98.5t48.5 114.5
q-175 4 -356 -19t-329 -66q-157 -47 -259 -100.5t-102 -88.5q0 -23 79.5 -48t158.5 -25v-1q0 -5 -28.5 -15.5t-71.5 -19.5t-75 -9q-54 0 -91 19.5t-37 62.5q0 132 94.5 222t249.5 137q206 65 529 60q219 -5 410.5 -47t263.5 -102q3 -3 -3 -3q-108 23 -187.5 32t-198.5 11
q51 -25 84 -69q20 -26 31.5 -51t9.5 -36q-4 -4 -38 -38.5t-47 -48t-49 -50.5t-57.5 -60.5t-57.5 -62t-63.5 -70t-60.5 -70t-64.5 -77t-60.5 -76.5q-152 -195 -252 -371t-57 -195q28 -12 151.5 65t239.5 173q20 17 24 9q2 -3 -2 -10q-68 -117 -164 -214t-156 -97
q-24 0 -66 12t-79 31q-48 25 -79 60.5t-31 76.5z" />
    <glyph glyph-name="H" unicode="H" horiz-adv-x="2186" 
d="M2300 1068q-237 -347 -354 -526q131 -39 190 -82q3 -3 0 -4q-2 0 -3 1q-85 24 -213 47q-177 -284 -253 -459t-76 -291q0 -77 44 -83q35 -5 113.5 29t105.5 54q11 8 12 1q1 -4 -5 -13q-26 -37 -84 -85.5t-96 -48.5q-63 0 -136 41q-59 32 -96 78.5t-37 88.5q0 119 74.5 287
t233.5 425q-235 27 -485 4q-114 -135 -256.5 -332t-245.5 -351q-48 -72 -79.5 -137t-31.5 -93q0 -27 22 -33q28 -7 192.5 106t275.5 202q9 9 18 7q5 -1 1 -8q-73 -110 -209 -239.5t-197 -129.5q-88 0 -164 51q-42 27 -67.5 63t-25.5 69q0 86 153 320.5t348 473.5
q-137 -25 -262.5 -63t-214 -77.5t-155 -80t-99 -74t-32.5 -55.5q0 -25 79 -51t158 -26q0 -6 -28.5 -17t-72 -20.5t-77.5 -9.5q-52 0 -91 20.5t-39 64.5q0 116 82 226t194 157q225 95 646 129q47 60 142.5 167.5t133.5 155.5q1 2 18.5 24t23.5 30l24 32t27 37t25 37t24.5 40
t20 37.5t17.5 38t10.5 34.5t4.5 32q0 70 -51 98t-141 28q-123 0 -272.5 -51t-282.5 -131t-245.5 -170.5t-179 -177t-66.5 -143.5q0 -44 58 -44q99 -2 354.5 120t419.5 256q18 15 18 5q-1 -9 -12 -22q-167 -203 -358 -329t-318 -126q-101 0 -185 83t-84 159q0 93 66 192.5
t178.5 184t250.5 151.5t295 102.5t298 28.5q152 -7 271.5 -109.5t119.5 -238.5q0 -33 -26.5 -86t-73.5 -117t-88 -116t-95.5 -116.5t-69.5 -83.5q244 0 448 -36q66 103 210 308.5t212 309.5q82 127 98 168q12 30 12 52q0 36 -22 44q3 2 9 2q74 0 147 -83q21 -25 34 -53.5
t13 -44.5q0 -5 -5 -13q-96 -120 -165 -222z" />
    <glyph glyph-name="I" unicode="I" horiz-adv-x="1691" 
d="M165 -55q129 26 339.5 47t365.5 25q56 107 161 260.5t209.5 294.5t202.5 277t159.5 244t61.5 161q0 41 -14.5 69t-41 42.5t-49 20.5t-53.5 10q-117 14 -273.5 -33t-304 -133.5t-275 -188.5t-205.5 -207.5t-78 -181.5q0 -41 49 -41q141 0 357 103t467 316q17 15 17 6
q0 -7 -12 -26q-72 -107 -199 -227.5t-263 -205.5t-217 -85q-70 0 -130.5 30.5t-97.5 76t-58 93.5t-21 88q0 78 49.5 165t132.5 167t197 152.5t237.5 124.5t260 80t258.5 21q106 -6 201 -54t156.5 -135t61.5 -192q0 -48 -82 -177.5t-189 -271.5t-244.5 -331t-215.5 -313
q237 -6 477 -57.5t410 -122.5q4 -4 -4 -6q-4 -1 -11 0q-447 73 -793 69q-63 0 -140 -5q-35 -60 -59 -124.5t-24 -90.5q0 -8 33 5t82.5 42t90.5 60q7 5 10 2t-1 -10q-20 -47 -67.5 -112.5t-81.5 -78.5q-10 -4 -47.5 8t-58.5 27q-47 32 -78 75.5t-31 78.5q0 39 24 104
q-152 -14 -371.5 -53.5t-342.5 -73.5q-313 -83 -343 -147q-14 -30 28 -49.5t131 -35.5q141 -26 202 -28q12 0 4 -5q-145 -39 -256.5 -41t-149.5 33q-38 40 -28 125t53 146q89 128 422 194z" />
    <glyph glyph-name="J" unicode="J" horiz-adv-x="1877" 
d="M1957 1123q0 -169 -251 -557q132 -9 265 -32q14 -2 13 -11q-1 -10 -18 -8q-57 7 -277 19q-102 -156 -246 -309q-131 -139 -280.5 -259.5t-312.5 -216t-337 -150t-333 -54.5q-78 0 -176 38.5t-173 102t-83 127.5q-16 115 108 242.5t344 240.5q182 94 416 159.5t457 94.5
q132 17 402 17q155 207 246.5 392.5t91.5 297.5q0 43 -15.5 72.5t-45.5 44.5t-63.5 21t-78.5 6q-131 2 -287.5 -50.5t-294 -135t-253.5 -177t-184 -184.5t-68 -148q0 -25 17 -42.5t43 -17.5q91 0 314 104.5t499 295.5q20 13 19 5q0 -8 -14 -25q-200 -223 -394.5 -347
t-327.5 -124q-71 0 -136 41.5t-101 98.5t-36 107q0 92 65.5 192.5t178.5 188.5t252 159t299 111.5t307 39.5q60 0 122 -14.5t121 -45.5t104.5 -74t73.5 -104t28 -132zM-96 -247q0 -106 156 -106q148 1 375 101.5t460.5 264.5t405.5 345q74 77 139 163q-294 -9 -560.5 -78
t-532.5 -216q-214 -121 -328.5 -249.5t-114.5 -224.5z" />
    <glyph glyph-name="K" unicode="K" horiz-adv-x="1945" 
d="M1016 646q200 265 291.5 406t91.5 208q0 41 -18 71t-48 46t-60.5 23t-61.5 7q-107 0 -235.5 -39t-248.5 -101.5t-235 -142t-199.5 -159t-135.5 -154.5t-51 -127q0 -25 13.5 -40t39.5 -15q128 0 378.5 126t439.5 283q19 17 19 6q0 -9 -13 -26q-108 -138 -244 -252.5
t-260.5 -177.5t-209.5 -63q-106 0 -191.5 91.5t-85.5 174.5q0 77 49.5 163t133 165.5t198 151.5t238.5 123.5t261 79.5t259 21q105 -5 200.5 -56.5t155.5 -137t60 -182.5q0 -48 -77 -161.5t-229 -311.5q222 226 459 425q207 178 383.5 291.5t285.5 127.5q49 6 94.5 -37
t69.5 -99.5t24 -99.5q0 -47 -88 -130t-159 -124q-7 -3 -11.5 -3.5t-4.5 4.5t8 17q9 16 60 80.5t88.5 122t35.5 83.5q-2 23 -21 31t-45 3q-117 -21 -303 -134t-348 -234q-396 -295 -606 -490q136 -173 314.5 -333.5t356.5 -259.5q171 -92 277 -92q119 0 175 91q2 4 6 11l3 5
q3 6 5.5 7.5t4 -1.5t0.5 -10q-4 -33 -29.5 -96t-46.5 -90q-43 -56 -75 -73q-125 -63 -426 125q-160 100 -327.5 268t-316.5 367q-54 -48 -65 -60q-21 -29 -82.5 -113.5t-101.5 -142t-66 -100.5q-1 -2 -18 -29t-22 -36t-21 -36.5t-22.5 -41.5t-18.5 -39t-17 -41.5t-9.5 -36
t-4.5 -35.5q0 -24 13 -27q24 -6 166 110t231 202q8 8 16 7q4 -1 0 -8q-72 -120 -179.5 -248.5t-156.5 -128.5q-61 0 -123 33q-54 31 -89 71.5t-35 81.5q0 78 90.5 221.5t377.5 544.5q-1 1 -21.5 30t-36 53.5t-15.5 31.5q0 19 14.5 50.5t34.5 53.5q33 34 52 25q-8 -7 -11 -19
q-4 -33 52 -126z" />
    <glyph glyph-name="L" unicode="L" horiz-adv-x="1676" 
d="M1429 -191q-148 35 -352.5 54t-403.5 13q-294 -5 -437 -48q-42 -34 -247.5 -128.5t-281.5 -99.5q-23 -2 -37.5 11.5t-14.5 34.5q0 24 19.5 76.5t41.5 79.5q49 64 379 121q85 28 199 146t188 219.5t225 319.5q13 18 19 27q120 174 188.5 270t171 224.5t176.5 194
t163 115.5t172 53q103 4 196 -36t144 -115.5t31 -163.5q-12 -56 -59 -117t-116.5 -116.5t-139 -101t-144.5 -86.5q-5 -2 -10 -3.5t-9 -0.5t-5.5 3.5t1.5 9t11 15.5q6 7 59.5 66t94 108t90.5 114.5t78.5 123.5t28.5 98q0 63 -25.5 88.5t-76.5 23.5q-48 -2 -103 -26.5
t-108 -63t-115 -100t-117 -123.5t-122.5 -147.5t-122.5 -159.5t-124 -171q-158 -221 -336 -419.5t-253 -256.5q241 41 510 49q266 9 471 -13t254 -69q10 -10 36 -49q27 -41 49 -95t24 -92q2 -11 -1 -13q-2 -1 -6 6l-1 2q-9 18 -14 26.5t-24 28t-42.5 33t-68 30.5t-103.5 30z
" />
    <glyph glyph-name="M" unicode="M" horiz-adv-x="2813" 
d="M813 165q77 125 280 386.5t221 286.5q239 324 239 422q0 43 -19.5 74t-54 46.5t-71.5 22.5t-82 7q-145 2 -315 -61.5t-334 -170.5q-196 -128 -327.5 -273t-130.5 -235q0 -33 21 -52t56 -19q116 2 374.5 138t446.5 293q18 16 17 6q0 -10 -14 -28q-165 -210 -381 -364
t-347 -154q-113 0 -199.5 88.5t-86.5 193.5q0 83 51 175t136.5 174.5t203 157.5t244.5 127.5t267 81t266 21.5q107 -5 204 -61.5t157 -148t60 -192.5q0 -68 -146 -269q174 173 377.5 337t268.5 164q83 0 148 -72q30 -33 42 -67.5t-5 -47.5q-56 -37 -121.5 -115t-185.5 -252
q-149 -213 -275 -443q102 141 296 351t408 401t332 244q44 20 106 -21.5t95.5 -98t9.5 -74.5q-75 -54 -169 -166t-229 -299q-53 -72 -123 -183t-148.5 -250t-130.5 -271t-49 -208q4 -98 80 -120q93 -28 295 72.5t348 223.5q8 7 14 6.5t-3 -14.5q-117 -172 -262 -271.5
t-247 -99.5q-93 0 -182.5 44t-148 120.5t-58.5 162.5q0 106 69.5 269.5t174.5 328t222.5 324t218.5 275t158 163.5q5 5 3.5 8t-6.5 3q-41 0 -181.5 -112.5t-245.5 -207.5q-425 -390 -622 -646q-93 -122 -153.5 -235t-62.5 -159q-3 -30 27 -56q-59 0 -118.5 46t-69.5 105
q-7 39 53.5 175.5t161.5 313t244.5 386t284.5 374.5q4 4 1 8.5t-9 2.5q-109 -50 -273 -183q-282 -229 -534 -502q-233 -256 -430 -534q-59 -85 -89 -156.5t-30 -113.5q0 -31 17 -34q13 -4 0 -13q-12 -8 -27 -5q-13 1 -49.5 31t-67.5 72.5t-25 70.5q17 77 139 275z" />
    <glyph glyph-name="N" unicode="N" horiz-adv-x="2367" 
d="M1438 989q136 204 136 276q0 42 -15 71t-42 43.5t-50 20.5t-54 10q-153 20 -342.5 -44t-372.5 -183q-196 -128 -328 -273.5t-131 -235.5q0 -33 21.5 -52t56.5 -19q116 2 374 138.5t446 293.5q18 16 18 5q0 -9 -14 -27q-165 -210 -381 -364t-347 -154q-113 0 -200 88.5
t-87 193.5q0 83 51 175t137 174.5t203 157.5t244.5 127.5t267.5 81t266 21.5q107 -5 204 -61.5t157 -148t60 -192.5q0 -17 -8 -41t-25 -54.5t-33 -57.5t-41.5 -63.5t-40 -58t-39.5 -55.5t-31 -42q112 106 280.5 238.5t315.5 228.5q220 145 288 145q34 0 70.5 -23t61.5 -55
q77 -103 52 -121q-73 -54 -163 -165.5t-224 -302.5q-50 -73 -116 -181.5t-141 -247.5t-123 -271t-42 -207q4 -54 38 -88.5t91 -34.5q109 1 285.5 94.5t305.5 204.5q8 6 14 5.5t-2 -13.5q-80 -123 -176.5 -209.5t-178 -123.5t-149.5 -37q-90 0 -181.5 51t-149 128t-57.5 149
q0 102 61.5 258.5t155 316t201.5 317.5t202.5 276.5t156.5 179.5q29 29 9 28q-4 0 -7 -1q-181 -74 -397 -227q-317 -224 -634 -572q-157 -171 -281.5 -342.5t-162.5 -272.5q-19 -54 -17.5 -86t19.5 -36q16 -4 3.5 -11.5t-29.5 -5.5q-13 1 -50 31.5t-69 73t-27 70.5
q23 134 331 567q10 15 160.5 220t215.5 301z" />
    <glyph glyph-name="O" unicode="O" horiz-adv-x="2060" 
d="M153 25q0 58 23 148q-52 43 -85.5 101.5t-33.5 119.5q0 167 133.5 372.5t349.5 372.5q206 160 442 256.5t477 96.5q110 0 216 -38t190 -105t136 -169t52 -221q0 -121 -60.5 -271.5t-162 -300t-242.5 -293t-293.5 -253t-323.5 -176.5t-325 -67q-56 0 -120 16t-130.5 50.5
t-120.5 83t-88 121t-34 156.5zM736 728q-138 -124 -242 -279.5t-152 -317.5q24 -3 31 -3q68 0 203 44t303 122t365 206t360 274q9 9 7 -1q-2 -8 -6 -15q-163 -198 -387.5 -364.5t-428.5 -255.5t-340 -89q-50 0 -124 30q-24 -93 -24 -167q0 -91 59.5 -149t170.5 -58
q134 0 292.5 66t308 175t291 254t246.5 297t168.5 310t63.5 288q0 151 -102 226t-257 73q-237 -4 -472.5 -106.5t-431.5 -274.5q-194 -169 -320.5 -371t-126.5 -343q0 -37 4 -60q59 164 201.5 356.5t298.5 319.5q41 34 91 70.5t116 77.5t132.5 72.5t140 57.5t139 32.5
t129.5 -4.5q82 -17 134 -79q26 -30 42 -70t18 -61q2 -16 -4 -16q-3 0 -7 7q-19 33 -62.5 61.5t-109.5 28.5q-159 0 -347.5 -100t-370.5 -264z" />
    <glyph glyph-name="P" unicode="P" horiz-adv-x="1888" 
d="M747 236q-145 -197 -242 -387.5t-97 -275.5q0 -20 11 -27q0 -3 -8 -3q-26 0 -84 44.5t-58 98.5q0 14 8 35q26 77 108 238.5t157 278.5q-87 9 -154 35q-67 24 -110 64t-59 87q-6 16 2 21q6 4 14 -9q61 -107 244 -107q55 0 129 8q244 350 432 594q19 24 46.5 60t42.5 55.5
t35.5 46.5t30.5 43.5t20.5 36.5t15 36t4.5 31q0 26 -14 38q0 3 6 3q35 0 108 -66t73 -108q0 -33 -190 -256q-124 -147 -359 -463q185 49 368.5 127.5t339.5 176t253 214.5t96 228q0 210 -482 243q-157 11 -331 -20t-321.5 -90t-269 -131t-191 -149t-69.5 -138
q0 -31 34.5 -57t75 -39.5t82.5 -21.5q26 -5 24 -15q-1 -7 -17 -7q-134 0 -218 44q-47 26 -78.5 69t-31.5 90q0 117 96 225.5t252 186t361 123.5t417 46q90 0 178.5 -11.5t180 -35t169.5 -65t139.5 -97t96.5 -135.5t35 -175q0 -60 -37 -124.5t-98 -123t-145 -117t-172 -107
t-184 -92.5q-165 -76 -343.5 -122t-321.5 -52z" />
    <glyph glyph-name="Q" unicode="Q" horiz-adv-x="1931" 
d="M1955 1057q7 -92 -32 -206.5t-108.5 -227.5t-162 -227t-192 -209.5t-199 -171.5t-182.5 -116q277 -7 543.5 -52.5t431.5 -117.5q4 -4 -4 -6q-4 -1 -10 0q-412 86 -827 74q-191 -4 -427 -32q-120 -49 -362 -123.5t-315 -82.5q-27 -3 -30 41t14 97t41 76q89 83 473 114
l121 9q210 95 411 252.5t345.5 329t232.5 348t88 311.5q0 123 -59 195t-185 72q-133 0 -291.5 -60.5t-307 -158.5t-288.5 -227t-242 -261t-160 -265.5t-50 -236.5q4 -48 35 -68t93 -20q94 0 277 98.5t382 255t333 311.5q11 15 22 14q12 0 -4 -30q-77 -141 -196.5 -278
t-246.5 -239t-256.5 -165t-227.5 -63q-52 0 -115 23t-120.5 63.5t-96 104.5t-38.5 137q0 98 59 223.5t158.5 252t238.5 249.5t289.5 217.5t321.5 152.5t326 58q89 0 173.5 -27.5t155 -79.5t117 -137t53.5 -191z" />
    <glyph glyph-name="R" unicode="R" horiz-adv-x="1869" 
d="M1467 1366q-190 10 -389.5 -29t-381.5 -121q-189 -86 -319 -193.5t-131 -185.5q0 -26 21.5 -49.5t54 -39t63 -25t56.5 -14.5q26 -4 25 -13q-1 -8 -19 -8q-132 0 -220 45q-46 24 -78 66t-32 88q0 109 85.5 213t225 183t314.5 129q302 86 596 75q115 -4 214 -28t169 -59.5
t126 -81t90 -92.5t55.5 -95t29 -86.5t4.5 -67.5q-12 -123 -166.5 -250t-397.5 -224q-248 -99 -636 -163q123 -118 283.5 -237.5t320.5 -206.5q272 -139 386 -139q40 0 74 9.5t52 19t37.5 31t23 27t15.5 25.5q5 8 8 7t2 -11q-6 -58 -57 -150q-26 -45 -53.5 -76t-42.5 -39
q-30 -14 -73 -14q-106 0 -261 74.5t-307 186t-280.5 223t-214.5 203.5q-193 -259 -282 -446q-28 -56 -44 -96.5t-3 -40.5q24 0 165.5 118.5t223.5 197.5q14 15 18 8q1 -3 -3 -9q-67 -115 -184 -248.5t-167 -133.5t-113 35q-95 55 -95 129q-2 106 317 556l-17 11
q-25 17 -28 53.5t10 71.5t38 60t52 22q5 -1 12 -8.5t22.5 -29t22.5 -30.5q27 37 103 133t97 124q52 66 116 141t101.5 118.5t72.5 89t50.5 78.5t15.5 60q0 22 -14 34q0 3 6 3q33 0 104.5 -67t71.5 -107q0 -32 -189 -246q-224 -257 -329 -392q48 14 94.5 29.5t107 39t89 35.5
t109 46t98.5 42q220 94 362 224t142 255q0 90 -102 156t-323 77z" />
    <glyph glyph-name="S" unicode="S" horiz-adv-x="1917" 
d="M1894 507q15 -5 15 -14q-1 -5 -9 -3q-105 23 -260 39q31 -57 31 -116q0 -88 -75 -191t-190.5 -193.5t-258.5 -168.5q-225 -122 -485 -193.5t-438 -71.5q-108 0 -229 38.5t-211.5 112.5t-90.5 161q0 144 177.5 286t461.5 242q435 153 922 157q116 0 232 -12
q-51 60 -160.5 105.5t-269.5 89.5q-38 10 -125 32.5t-142.5 38.5t-92.5 30q-54 20 -86 57q-24 29 -24 63q0 49 42 108.5t111 113.5q146 112 381 195q239 82 430 82q128 0 212 -83t84 -205q0 -53 -67 -118.5t-155.5 -116.5t-174 -86t-124.5 -35q-11 0 -13.5 5.5t8.5 13.5
q74 48 176 137.5t183 182.5t74 132q-5 28 -24.5 41.5t-66.5 13.5q-135 0 -296 -47.5t-288.5 -114.5t-213.5 -143t-86 -130q0 -11 8.5 -21t26.5 -19t37 -16.5t50.5 -16.5t55 -15t63 -16t62.5 -16q85 -23 150.5 -44t145.5 -52.5t141 -71.5t97 -85q139 -21 279 -62zM1512 496
q0 13 -6 35q-97 5 -159 3q-197 -4 -407.5 -47t-397.5 -115q-305 -117 -508 -272.5t-203 -277.5q0 -93 221 -93q176 0 432 78.5t480 190.5q246 123 397 259t151 239z" />
    <glyph glyph-name="T" unicode="T" horiz-adv-x="1469" 
d="M2818 1262q8 -3 5 -9q-3 -5 -13 -2q-564 162 -1113 162q-176 0 -355.5 -28t-334.5 -76t-291 -113.5t-232 -139t-151.5 -155.5t-55.5 -159q0 -57 57 -76q77 -27 320 82.5t431 245.5q18 12 20 3q0 -8 -13 -23q-153 -166 -330.5 -285t-304.5 -119q-61 0 -122.5 30.5
t-105 74.5t-70.5 93t-27 87q0 103 70.5 202.5t201 183t304 147t393 99.5t454.5 36q338 0 682 -72.5t581 -188.5zM1237 925q112 150 158 225t46 124q0 26 -15 37q3 3 8 3q33 0 107.5 -69.5t74.5 -108.5q0 -33 -162 -243q-29 -37 -121.5 -157t-130 -169t-113 -149.5
t-118 -160.5t-94 -136.5t-88.5 -137.5l-15 -25q-16 -26 -20 -32t-18.5 -31t-20 -36.5t-17.5 -34.5t-17 -37.5t-12 -33.5t-9.5 -35t-2.5 -30q0 -24 13 -27q24 -6 157.5 102t239.5 210q16 16 18 9q1 -3 -3 -10q-71 -120 -180 -250t-158 -130q-79 0 -134 35q-117 75 -117 154
q0 68 72 189.5t261 388.5q292 406 411 566z" />
    <glyph glyph-name="U" unicode="U" horiz-adv-x="2329" 
d="M1649 1145q0 -67 -42 -137.5t-129 -175.5q-49 -60 -154.5 -185t-174 -206.5t-159 -196.5t-143.5 -193t-91.5 -154.5t-37.5 -120.5q0 -63 71 -63q62 0 233 133t361 312.5t396 391.5q262 269 510 573q55 67 90.5 140t33.5 117q0 33 -23 46q3 1 9 1q31 0 69.5 -23t69.5 -60
q23 -27 36 -56t13 -47q0 -6 -5 -14q-119 -171 -246.5 -333t-137.5 -176q-70 -99 -139 -208t-147 -247t-122.5 -264t-36.5 -205q8 -87 90 -114q59 -20 177.5 19.5t241.5 112.5t207 150q10 10 16 6q4 -3 -4 -14q-134 -192 -265 -279.5t-239 -87.5q-96 0 -187 52t-145 128.5
t-54 150.5q0 135 101 340t227 377q-161 -209 -369 -443t-390.5 -405t-239.5 -171q-97 0 -187.5 41t-143.5 112t-41 148q10 59 64 149t147 207t177 215t206.5 237.5t183.5 211.5q3 4 19.5 23.5t25.5 31l27 34.5t30 38.5t28 37.5t26.5 39t20 34.5t14.5 31t5 23.5
q0 152 -235 152q-127 0 -281.5 -52.5t-293.5 -138t-257 -184.5t-188 -201t-70 -179q0 -20 11.5 -33.5t38.5 -13.5q133 0 391 127t447 289q19 17 19 6q0 -10 -14 -28q-179 -227 -384 -366t-341 -139q-74 0 -145.5 48.5t-113 113.5t-41.5 117q0 95 71 203t192.5 203.5
t269.5 172t317.5 118t319.5 33.5q92 -4 188.5 -53t161 -126t64.5 -154z" />
    <glyph glyph-name="V" unicode="V" horiz-adv-x="2032" 
d="M2684 1286q-90 6 -203.5 -57t-219.5 -150q-313 -254 -659 -683t-499 -758q-26 -34 -78.5 -8.5t-106 85.5t-53.5 96q0 63 88.5 278.5t194 443.5t194 448.5t88.5 291.5q0 17 -1 27.5t-10 31t-25.5 33t-51 22.5t-83.5 10q-92 0 -209 -38.5t-231 -100.5t-225 -143.5
t-194.5 -165t-135 -167.5t-51.5 -149q0 -48 23.5 -66.5t65.5 -18.5q35 0 96 18t153 59t221 126.5t266 201.5q12 10 19 8t-5 -19q-92 -123 -191.5 -222.5t-183 -157t-151 -88t-110.5 -30.5q-62 0 -145.5 38t-148.5 102t-65 126q0 92 53.5 188.5t141.5 178.5t203.5 155.5
t236.5 125.5t243 82t221 30q175 0 307.5 -86.5t132.5 -186.5q0 -80 -65 -253.5t-153.5 -366.5t-174.5 -381t-135 -331.5t-27 -184.5q214 389 518.5 804.5t592.5 684.5q140 132 262.5 204.5t194.5 67.5q63 -4 120 -61q34 -34 61.5 -83.5t38.5 -88.5q5 -14 0 -14q-2 0 -7 6
q-3 3 -14 16t-21 22t-25.5 20.5t-35.5 19t-42 8.5z" />
    <glyph glyph-name="W" unicode="W" horiz-adv-x="2503" 
d="M2746 1079q-112 -87 -258.5 -250t-286.5 -355q-334 -458 -438 -788q-8 -29 -46 -29q-44 -1 -110 44t-116 110t-50 113q0 52 58.5 221.5t164.5 396t214 384.5q-47 -34 -158.5 -161.5t-224.5 -274.5q-217 -282 -369 -515.5t-193 -319.5q-8 -14 -24 -14q-33 -2 -94.5 40
t-112 104.5t-50.5 108.5q0 84 78 240.5t189 327.5t222 338.5t189 306t78 196.5v7q0 16 -0.5 26t-9 27t-24 27t-48.5 18t-80 8q-111 0 -256 -54t-281.5 -141.5t-254.5 -188.5t-190 -205t-72 -180q0 -36 16 -53t57 -17q34 0 95.5 17.5t155.5 57t224.5 124.5t264.5 201
q13 11 19.5 8t-5.5 -19q-93 -125 -194 -222.5t-186 -152t-153.5 -82t-115.5 -27.5q-63 0 -141 34.5t-137 95t-59 124.5q6 94 62.5 191t145.5 178.5t204 154.5t235.5 123.5t242 80t221.5 29.5q176 0 298 -86t122 -189q0 -78 -76.5 -225t-186 -312.5t-218.5 -333.5
t-185.5 -323t-76.5 -245q0 -40 14 -43q5 -2 11 6q3 4 213 285.5t367 479.5q255 319 521 583q18 16 64 -16t83.5 -74.5t36.5 -54.5q3 -8 -1 -11q-95 -87 -218 -320t-207 -465.5t-84 -332.5q0 -50 19 -64q10 -7 16 5q183 346 468 750q185 262 356 472.5t329 334.5
q152 118 246 110q92 -8 159 -88q49 -54 83 -148q6 -14 2 -14q-2 0 -8 6l-15.5 15.5t-24 22t-27.5 20.5t-37.5 19t-42.5 8q-145 10 -398 -186z" />
    <glyph glyph-name="X" unicode="X" horiz-adv-x="1962" 
d="M230 -367q0 -38 38 -38q57 0 168 49.5t216 108.5q17 10 21 2q2 -3 -3 -9q-75 -90 -171.5 -159t-170.5 -69q-36 0 -84 25t-90 64t-63 94t-3 107q36 104 220.5 280.5t432.5 363.5t535 375q30 282 27 359q-2 113 -47.5 165.5t-157.5 52.5q-114 0 -265.5 -78t-278.5 -187
t-216 -232.5t-89 -208.5q0 -23 18.5 -39t53.5 -16q32 0 98 19.5t162.5 60t230.5 119t273 179.5q17 11 22 6q4 -4 -7 -17q-105 -126 -210.5 -220.5t-190.5 -144t-150 -72.5t-111 -23q-62 0 -140.5 37t-138 100t-60.5 126q-2 70 48.5 159t143 176.5t207.5 161t256.5 119.5
t275.5 46q81 0 157.5 -26t133.5 -69t99 -95t62 -107t16 -102l-19 -132q31 21 126.5 85t141 94.5t136.5 89t144.5 89t131 73t130 64t108.5 37.5t97 16q29 0 62 -24t53 -56q41 -59 57 -201q2 -10 -1 -11t-9 7q-39 62 -89.5 92.5t-123.5 30.5q-74 0 -175.5 -33t-191.5 -75.5
t-211 -114t-192 -117t-176 -115.5l-27 -18q-30 -236 -42 -334t-27.5 -284t-12.5 -300q5 -171 82 -171q93 0 353 172q4 2 7 -1t1 -7q-44 -69 -122 -148.5t-127 -85.5q-142 -19 -253 49t-130 190q-6 39 -6 97t4 115.5t12.5 139t16.5 143t20 155.5t19 150q-254 -187 -496 -414
t-391.5 -417.5t-147.5 -272.5z" />
    <glyph glyph-name="Y" unicode="Y" horiz-adv-x="2128" 
d="M1520 217q229 306 504 807q4 8 6.5 12t5.5 10t6 11q-115 -174 -295.5 -378.5t-352.5 -350t-246 -145.5q-129 0 -220.5 63.5t-95.5 178.5q-1 31 21.5 77.5t73.5 113t90.5 114t112.5 130.5q12 14 54.5 60t74 83t68 86t57 94.5t20.5 81.5q0 37 -13.5 62.5t-38.5 38.5
t-45 18.5t-48 9.5q-85 12 -198.5 -15.5t-227 -81.5t-225 -127.5t-196.5 -150.5t-138 -154t-53 -134q0 -25 16.5 -41t44.5 -16q93 0 333.5 123.5t400.5 259.5q19 15 19 7q-1 -9 -14 -27q-140 -193 -332 -325t-316 -132q-65 0 -133 47t-108.5 108.5t-40.5 107.5q0 71 47 150.5
t126 152t187 138t224.5 112t243.5 71t240 17.5q148 -8 260 -111.5t112 -239.5q0 -15 -5.5 -34t-17.5 -42t-23.5 -43t-31.5 -48t-33.5 -46.5t-37.5 -48.5t-35.5 -43.5t-35.5 -42t-30 -35.5q-32 -39 -86.5 -101.5t-86 -99.5t-65.5 -82.5t-50 -80.5t-16 -63q0 -54 52 -54
q72 0 255 128.5t390.5 322t343.5 365.5q63 77 123 175t60 150q0 31 -21 41q3 2 8 2q30 0 70 -30q34 -25 63 -61.5t29 -66.5q0 -13 -3 -21q-267 -590 -561 -1009q126 16 260 20q7 0 11.5 -4t2 -9.5t-13.5 -8.5q-93 -8 -296 -42q-55 -85 -116.5 -172.5t-142.5 -190
t-163.5 -193.5t-177.5 -177.5t-185 -149t-186 -100t-182 -37.5q-78 0 -167 21t-168.5 58t-132 95.5t-52.5 125.5q0 84 77 172t206 166t305 150q69 28 149 54t179.5 51.5t166.5 41t189.5 43t170.5 38.5zM241 -591q9 -57 62.5 -86.5t118.5 -29.5q104 1 220 51t223.5 131.5
t221 195.5t209.5 232.5t191 252.5q-130 -34 -218 -60t-206.5 -67.5t-233 -96t-230.5 -124.5q-176 -107 -273 -213t-85 -186z" />
    <glyph glyph-name="Z" unicode="Z" horiz-adv-x="1789" 
d="M832 668q14 -10 1 -12q-10 -1 -28 6q-45 18 -87 46t-71.5 70.5t-22.5 83.5q12 89 67 196t153 198q149 143 412 187q63 8 139.5 8.5t162 -6t157.5 -14t164.5 -21.5t142 -22t128.5 -22q16 -1 45 -49t40.5 -88.5t-6.5 -48.5q-57 24 -402.5 -135t-542.5 -281
q-411 -247 -698 -498q-167 -143 -286.5 -272t-119.5 -159q345 101 833 94q249 -4 495 -61t367 -159q8 -7 -2 -11q-6 -2 -12 3q-86 55 -216.5 85.5t-238.5 37.5t-270 9q-207 2 -446 -38.5t-414 -93.5q-162 -52 -202 -104q-17 -22 -67.5 6t-89 78.5t-26.5 82.5
q86 191 461 489.5t919 601.5q248 137 454.5 230t418.5 145q-141 16 -294.5 26.5t-339 13.5t-297.5 -14q-414 -59 -491 -273q-18 -49 4 -122.5t54.5 -126.5t51.5 -66z" />
    <glyph glyph-name="bracketleft" unicode="[" horiz-adv-x="1127" 
d="M1508 1389q9 -2 5.5 -12t-10.5 -10q-229 7 -599 -55q37 -56 37 -78q0 -7 -4 -13q-138 -197 -246.5 -356.5t-178.5 -268t-110.5 -172.5t-79.5 -130t-48 -80q-102 -168 -129 -260q72 1 210.5 26.5t235.5 49.5q8 3 16 -2q5 -4 -4 -8q-126 -71 -267 -124t-201 -33
q-26 8 -87.5 67.5t-61.5 85.5q0 63 124 264q34 54 193.5 301t272.5 430t157 275q-116 -33 -144 -70q-4 -5 -4 2q2 34 34 101q40 81 79 94q111 33 293.5 27.5t320 -21.5t196.5 -30z" />
    <glyph glyph-name="backslash" unicode="\" horiz-adv-x="1242" 
d="M758 -90q-6 -23 -41.5 -37.5t-65.5 -9.5q-7 2 -12 8t-3 12q0 1 9 4.5t12 13.5q11 53 -49 381.5t-121.5 651t-53.5 359.5q4 22 32 43q45 32 121 50q30 6 53 3t29 -12q-27 3 -32 -25q-15 -71 5.5 -288.5t53 -442t54.5 -437t9 -274.5z" />
    <glyph glyph-name="bracketright" unicode="]" horiz-adv-x="1022" 
d="M603 -123q9 -4 6.5 -10t-10.5 -6q-285 10 -570.5 -27.5t-337.5 -102.5q-4 -6 -4 3q2 34 32 100q37 78 76 90q129 37 367 26q-49 64 -49 96q0 2 4 12q101 143 186 266.5t149.5 219.5t110.5 165t87.5 134t59.5 94.5t48 78.5t34 55q109 182 130 267q-67 2 -213 -24.5
t-244 -51.5q-15 -4 -18 3q-1 2 5 6q109 63 273.5 120t210.5 38q31 -14 92 -73.5t61 -85.5q0 -62 -125 -265q-41 -66 -219.5 -337.5t-297 -463.5t-140.5 -261q94 -9 175 -29t121 -37z" />
    <glyph glyph-name="asciicircum" unicode="^" horiz-adv-x="0" 
d="M-1180 -515q-7 5 -17 13.5t-32 33t-32.5 47.5t-5 52t37.5 51q87 60 260 105.5t375.5 69t386.5 34.5t344 11q408 0 780.5 -48t590.5 -117q8 -3 -5 -6q-8 -1 -17 0q-538 70 -1040 61q-311 -5 -631 -32t-548 -75q-126 -26 -271.5 -73.5t-172.5 -90.5q-13 -24 -3 -36z" />
    <glyph glyph-name="underscore" unicode="_" horiz-adv-x="1214" 
d="M-131 -139q-16 -25 -27 -9q-9 15 27.5 97t86.5 130q32 30 148 45t224 11q192 -7 396 -60q130 -36 124 -55q-3 -3 -19 -3q-397 18 -650.5 -30t-309.5 -126z" />
    <glyph glyph-name="grave" unicode="`" horiz-adv-x="562" 
d="M332 966q-6 6 -9 12q-7 14 -7.5 46t6 67t23 66.5t39.5 42.5l6 1l-1 -1q-16 -19 2 -55q37 -73 120.5 -137.5t176.5 -106.5q5 -2 7 -9t0.5 -12.5t-5.5 -5.5q-62 0 -178.5 24.5t-179.5 67.5z" />
    <glyph glyph-name="a" unicode="a" 
d="M797 660q0 -16 -30.5 -38t-67.5 -39q25 -22 44.5 -55.5t17.5 -45.5q0 -4 -3 -8l-40 -44q-94 -107 -156 -201.5t-64 -119.5q0 -8 8 -8q26 0 189 134.5t318 285.5q5 5 12 4t9 -5.5t-1 -10.5q-68 -96 -272 -299.5t-271 -222.5q-2 -1 -8 -1q-52 0 -104 44q-32 27 -54 59.5
t-20 55.5q0 9 3 16q14 41 186 261q-122 -129 -203 -198q-139 -116 -224.5 -176.5t-125.5 -60.5q-41 0 -110 60t-69 117q0 74 96 201.5t234 242.5q121 101 240 165t200 64q112 0 189 -50.5t77 -126.5zM603 614q0 7 -6 11q10 3 35 -1.5t38 -15.5q19 19 25 87q2 29 -11 46.5
t-37 17.5q-69 0 -186.5 -76.5t-211.5 -165.5q-134 -125 -231 -246t-97 -161q0 -11 13 -11q32 0 192.5 102t315.5 229.5t161 183.5z" />
    <glyph glyph-name="b" unicode="b" horiz-adv-x="883" 
d="M521 833q68 0 154.5 -57t94.5 -110q7 -51 -9 -108q150 18 209 22q7 0 9.5 -13t-7.5 -14q-107 -13 -224 -32q-39 -99 -127 -198.5t-174 -163.5q-221 -167 -408 -167q-49 0 -110 18t-113 59t-52 93q0 61 137 150q-13 13 -13 20q0 29 55 131q60 109 221.5 337.5t188.5 270.5
q42 62 102 170q60 111 21 131h31q30 -6 54 -22q40 -28 66.5 -68t26.5 -66q0 -4 -3 -9l-290 -404q68 30 160 30zM325 665q-165 -123 -278 -288q213 101 501 154q43 68 64.5 124.5t17.5 80.5q-7 41 -64 41q-91 0 -241 -112zM-118 110q-1 -14 13 -22t37 -8q39 0 95 19
q181 63 386 266q57 57 99 114q-147 -35 -323 -125q-109 -55 -181.5 -107.5t-97.5 -84t-28 -52.5z" />
    <glyph glyph-name="c" unicode="c" horiz-adv-x="746" 
d="M622 748q-89 0 -231.5 -100t-255.5 -234q-78 -91 -119 -168.5t-44 -117.5q-1 -18 10.5 -29t30.5 -11q38 -2 121 32q134 57 300.5 164t312.5 237q3 2 9.5 0t11 -6.5t1.5 -7.5q-160 -181 -392 -351t-344 -170q-50 0 -138.5 70.5t-89.5 124.5q-4 104 112.5 251.5
t274.5 262.5q163 116 315 137q7 1 19 1q68 0 128 -44.5t60 -100.5q0 -37 -68.5 -96.5t-111.5 -73.5q-4 -1 -4 1.5t2 6.5q29 42 67.5 113.5t38.5 93.5q0 15 -16 15z" />
    <glyph glyph-name="d" unicode="d" horiz-adv-x="1017" 
d="M840 630l-21 -29q-21 -29 -49 -68.5t-64.5 -91.5t-70.5 -103t-63.5 -97.5t-47 -82t-17.5 -48.5q0 -8 8 -8q25 0 185.5 133.5t317.5 285.5q10 10 21 1q6 -5 1 -12q-63 -83 -214 -241q-93 -98 -200 -190.5t-139 -92.5q-36 0 -92 38q-80 56 -77 102q0 6 7 25q26 70 127 224
l-80 -76q-144 -134 -261.5 -223t-160.5 -89q-38 0 -108 60t-74 111q-3 47 35 116q54 103 170.5 226.5t257.5 220.5t245 111q7 1 19 1q100 0 151 -30.5t58 -68.5q17 24 58.5 81.5t61 85.5t54.5 77.5t55.5 79.5t45 67t41.5 65t29 50q60 111 21 131q36 0 61 -12l13 -7
q41 -26 73 -72t32 -73q0 -5 -3 -10zM13 260q-85 -118 -82 -147q0 -11 11 -11q29 0 138.5 62.5t246.5 168t215 201.5q110 158 110 189q0 13 -12 22.5t-26 9.5q-60 0 -150.5 -56.5t-177.5 -139.5t-158.5 -161.5t-114.5 -137.5z" />
    <glyph glyph-name="e" unicode="e" horiz-adv-x="786" 
d="M227 715q183 118 294 118q71 0 141.5 -61.5t70.5 -122.5q0 -30 -66.5 -86.5t-163.5 -112.5t-222 -98t-227 -43q-41 -56 -62 -108t-24 -83q-3 -33 41 -33q42 -2 108 25q144 61 324 168.5t345 242.5q3 2 9.5 0t11 -6.5t1.5 -7.5q-173 -184 -415 -354t-355 -170
q-37 0 -93 34.5t-98.5 83.5t-43.5 86q-3 78 76 197q58 87 154.5 178t193.5 153zM624 744q-89 0 -248 -121.5t-289 -272.5q141 28 382 205q49 36 88.5 81t56 74.5t10.5 33.5z" />
    <glyph glyph-name="f" unicode="f" horiz-adv-x="554" 
d="M68 624q-16 23 -30 33q-44 14 -44 38q0 15 27.5 58t52.5 63q49 -25 101 -44q218 299 307 465q60 111 21 130l21 2q27 -3 53 -19q50 -30 76 -76t24 -69q0 -5 -3 -9l-313 -454q53 -5 90 -5q143 0 226 22q4 1 6.5 -1.5t2 -6.5t-4.5 -6q-143 -76 -386 -96l-108 -148
q39 -122 43 -276q1 -139 -27 -271.5t-74.5 -233t-103 -186t-114 -140.5t-106.5 -85.5t-81 -30.5q-75 0 -154 60.5t-80 127.5q-2 212 375 851q86 146 203 307zM-28 -310q111 171 167 375.5t22 397.5q-186 -284 -360 -642.5t-174 -441.5q0 -10 4 -15t6.5 -5h8.5q36 0 137 96.5
t189 234.5z" />
    <glyph glyph-name="g" unicode="g" horiz-adv-x="896" 
d="M501 429q-21 -20 -98.5 -95.5t-115.5 -109.5q-126 -110 -221 -173.5t-129 -63.5q-41 0 -110.5 60t-69.5 117q0 74 96.5 201.5t234.5 242.5q121 101 240 165t200 64q115 0 190.5 -52t75.5 -125q0 -38 -57.5 -79.5t-106.5 -57.5l9 -9l10.5 -10.5t9 -9.5t9.5 -11t6.5 -10
t5.5 -11t2 -10q0 -1 -0.5 -8.5t-0.5 -8.5q-21 -105 -139 -314q24 3 157 14q5 0 8 -6t1 -12.5t-10 -7.5q-46 -8 -183 -33q-104 -177 -227 -338q-58 -76 -136 -157.5t-170.5 -160t-190.5 -128.5t-175 -50q-93 0 -182.5 30t-151.5 88t-67 128q-6 80 123.5 188t332.5 200
q269 120 628 204q114 183 202 349zM107 -202q74 101 151 219l-44 -14q-306 -105 -572 -282q-41 -27 -80 -57t-88 -75.5t-79 -95.5t-30 -95q0 -29 20.5 -47.5t50.5 -18.5q149 0 338 137t333 329zM603 548q29 31 54 81t25 85q0 22 -7 33.5t-31 11.5q-70 0 -184.5 -75
t-213.5 -167q-134 -125 -231 -246t-97 -161q0 -11 13 -11q30 0 196 109t281 205q6 5 20.5 17t21 18t19.5 17t19.5 17.5l16 16t15 15.5t10.5 13t7.5 12.5t2.5 10.5q0 18 -19 27l2 1h5q15 0 38 -8t37 -22z" />
    <glyph glyph-name="h" unicode="h" horiz-adv-x="949" 
d="M-233 137q14 51 103.5 191.5t205.5 301.5q20 28 67 94t72.5 101t67 94t67.5 97.5t56.5 83.5t51.5 79.5t35 60.5q60 111 21 131q26 0 41 -5q17 -5 34 -16q44 -29 72.5 -75.5t26.5 -67.5q0 -5 -3 -10l-403 -567q-8 -12 -65.5 -91.5t-102 -144.5t-100.5 -153q81 102 265 280
q58 57 118.5 114t150 127t120.5 70q44 0 105.5 -59.5t61.5 -104.5q0 -4 -3 -9q-15 -17 -65.5 -75.5t-86 -102.5t-80.5 -106q-157 -216 -160 -265q0 -8 7 -8q26 0 183.5 131.5t319.5 287.5q5 5 12 4t9 -5.5t-1 -10.5q-94 -119 -212 -240q-103 -105 -204.5 -194t-134.5 -89
q-46 0 -111 60.5t-61 104.5q0 8 3 16q22 65 205 318q32 43 82 107t82.5 105t32.5 43l-3 4q-7 0 -48 -26.5t-123 -92t-169 -148.5q-194 -183 -307 -313q-77 -88 -90 -120q-14 -36 -5 -47q13 -11 -6 -14q-7 -1 -16 0q-21 3 -74 61.5t-44 92.5z" />
    <glyph glyph-name="i" unicode="i" horiz-adv-x="458" 
d="M254 580q-13 -17 -43 -57t-59.5 -79t-56.5 -77q-63 -89 -105 -161.5t-42 -95.5q0 -8 8 -8q25 0 185 133.5t317 285.5q10 10 21 1q6 -5 1 -12q-63 -83 -214 -241q-94 -98 -200 -190.5t-138 -92.5q-41 0 -102 56.5t-61 96.5q0 6 7 25q21 53 68 127.5t145 214t136 195.5
q46 71 46 110q0 19 -13 26q43 0 79 -26q28 -18 58 -55t30 -63q0 -21 -67 -113zM329 901q-14 -7 -28 -4.5t-24.5 9.5t-7.5 12q95 178 95 270q0 30 -24 39q40 0 77 -22q50 -30 78 -71t26 -63q0 -2 -4 -9q-13 -19 -60 -59t-85 -69.5t-43 -32.5z" />
    <glyph glyph-name="j" unicode="j" horiz-adv-x="403" 
d="M-186 263q32 46 92.5 130t111 156t94.5 139q31 49 41.5 85.5t-8.5 50.5l16 3q27 0 53 -20q43 -34 72.5 -72.5t27.5 -55.5q0 -11 -27.5 -50.5t-95 -128t-98.5 -130.5q-121 -163 -306 -463l40 43q148 153 319 324t232 225q7 5 12.5 2t8.5 -9.5t0 -9.5q-59 -54 -251 -262.5
t-328 -375.5q-220 -268 -294 -427q-19 -44 -25.5 -84t4.5 -56q0 -13 -47 12t-85 75.5t-20 99.5q54 140 173.5 349.5t287.5 449.5zM334 901q-14 -7 -29.5 -3.5t-27.5 11.5t-9 13q94 176 94 269q0 30 -23 39q40 0 77 -22q50 -30 81 -72.5t29 -64.5q0 -1 -5 -9
q-13 -19 -59.5 -59t-84.5 -69.5t-43 -32.5z" />
    <glyph glyph-name="k" unicode="k" horiz-adv-x="833" 
d="M-232 132q28 100 275 452q-7 46 6 75q3 8 9.5 15t13.5 12t17 10t15.5 7.5t15.5 6t12 4.5q105 143 151.5 206.5t117 166t98.5 153.5q60 111 21 131l18 1q24 -3 50 -19q48 -31 78.5 -75.5t28.5 -64.5q0 -5 -3 -9l-388 -544q86 75 166.5 128t120.5 53q61 0 125.5 -55.5
t64.5 -119.5q0 -34 -35.5 -80.5t-88.5 -87.5t-123.5 -69.5t-133.5 -28.5q-41 0 -90.5 10.5t-79.5 30.5q66 -150 159 -288.5t184 -224.5t150 -86q30 0 72.5 27t67.5 52q7 6 9.5 3.5t0.5 -9.5q-13 -28 -46 -77q-36 -49 -91 -99.5t-98 -50.5q-61 1 -142.5 82t-154.5 196.5
t-132 231t-88 197.5q-72 -99 -104 -149q-58 -94 -88 -163t-20 -85q13 -11 -6 -14q-7 -1 -16 0q-11 2 -42 27t-57 61t-20 60zM632 767q-66 0 -183.5 -61.5t-229.5 -173.5q24 -39 77 -39q54 0 119 37.5t113 85t79 92t25 59.5z" />
    <glyph glyph-name="l" unicode="l" horiz-adv-x="458" 
d="M280 630q0 -1 -16.5 -23.5t-39 -54t-53 -75t-61 -87.5t-60 -90t-52 -83t-36.5 -66t-14 -41q0 -8 8 -8q25 0 185 133.5t317 285.5q10 10 21 1q6 -5 1 -12q-63 -83 -214 -241q-94 -98 -200 -190.5t-138 -92.5q-16 0 -43 13t-47 28q-77 59 -74 99q0 9 6 25q48 124 304 479
q29 40 116.5 162t130.5 183t96.5 141t77.5 124q60 111 20 131q46 0 77 -22q45 -32 71.5 -73t26.5 -69q0 -5 -3 -10z" />
    <glyph glyph-name="m" unicode="m" horiz-adv-x="1351" 
d="M-246 145q7 39 66.5 128t154 218t138.5 197q32 50 42.5 86t-8.5 50q27 0 41 -5q17 -5 33 -16q46 -32 69.5 -66.5t23.5 -57.5q0 -13 -41 -70.5t-121.5 -163t-123.5 -165.5q96 118 211 234q91 93 213.5 202.5t161.5 109.5q42 0 87 -37q40 -31 64.5 -68t22.5 -55q0 -4 -3 -9
q-109 -126 -169 -200q-67 -82 -147 -199q97 122 224 254q86 88 201 193t162 117l4 1q4 1 7 1q42 0 97 -55q69 -73 66 -107q0 -6 -3 -10q-108 -126 -168 -200q-61 -74 -139.5 -189t-78.5 -153q0 -8 8 -8q26 0 183.5 131.5t319.5 287.5q5 5 12 4t9 -5.5t-1 -10.5
q-90 -113 -213 -240q-104 -106 -204.5 -194.5t-133.5 -88.5q-46 0 -112.5 60.5t-62.5 104.5q0 8 3 16q22 61 202 303.5t206 284.5q-35 -16 -126 -90.5t-206 -191.5q-132 -133 -246.5 -265.5t-127.5 -185.5q3 -7 8 -9q12 -4 0 -10q-9 -5 -20 -3q-19 3 -74.5 58.5t-48.5 86.5
q13 55 89 166.5t173 243.5t135 200q-33 -13 -127 -87t-215 -194q-150 -150 -280.5 -298.5t-102.5 -161.5q1 -1 3 -1q12 -4 0 -10q-9 -5 -20 -3q-18 3 -70 58.5t-47 86.5z" />
    <glyph glyph-name="n" unicode="n" horiz-adv-x="932" 
d="M814 659q-19 -22 -53.5 -62t-55 -64t-54 -67t-68.5 -91q-158 -217 -161 -265q0 -8 8 -8q26 0 183.5 131.5t319.5 287.5q5 5 12 4t9 -5.5t-1 -10.5q-90 -113 -213 -240q-104 -106 -204.5 -194.5t-133.5 -88.5q-55 0 -115.5 59t-56.5 105q0 8 3 15q23 66 205 319
q31 43 81 106.5t81.5 103.5t31.5 42l-3 3q-7 0 -48.5 -26t-123.5 -91t-169 -148q-153 -145 -281 -283.5t-119 -171.5q4 -6 6 -6q12 -4 0 -10q-9 -5 -20 -3q-29 5 -77.5 61.5t-42.5 83.5q10 38 69.5 127.5t152.5 218.5t137 197q32 50 42.5 86t-8.5 50q25 0 36 -3
q24 -6 47 -22q41 -29 64 -62.5t23 -57.5q0 -14 -44 -75t-126.5 -169.5t-127.5 -171.5q84 100 239 254q320 315 388 315q38 0 93 -46q44 -35 62.5 -67.5t16.5 -50.5q0 -3 -4 -9z" />
    <glyph glyph-name="o" unicode="o" horiz-adv-x="885" 
d="M-186 197q0 92 81.5 210.5t198.5 211t218 121.5q35 35 99 66t114 31q97 0 163 -61.5t79 -148.5q86 -4 156 -2.5t90 5.5q17 3 21 -6q3 -7 -15 -15l-15 -6q-27 -9 -98.5 -19t-146.5 -11q-3 -50 -44.5 -125.5t-110 -154.5t-149 -148.5t-173 -113.5t-170.5 -44
q-124 0 -211 56.5t-87 153.5zM-35 110q0 -18 2 -27.5t11 -17t27 -7.5q67 0 186 82.5t233 205.5t170 231q-98 7 -178 44q-84 -28 -170 -97.5t-145.5 -147t-97.5 -151t-38 -115.5zM636 707q0 44 -17.5 64.5t-54.5 13.5q-35 -6 -58.5 -28t-28.5 -47q-4 -28 34 -46t111 -28
q14 36 14 71z" />
    <glyph glyph-name="p" unicode="p" horiz-adv-x="934" 
d="M1029 540q-116 -11 -224 -28q-47 -106 -140 -210q-53 -57 -113.5 -109.5t-133.5 -101.5t-154.5 -78.5t-156.5 -29.5q-44 0 -109.5 28.5t-96.5 68.5q-33 -54 -54 -88.5t-56 -92.5t-58 -98.5t-54 -96.5t-51 -97t-42.5 -88.5t-34 -82.5t-20 -67.5t-6.5 -55.5t13 -36
q0 -13 -52 13t-94.5 78t-24.5 101q51 135 180.5 363.5t241.5 395.5q51 75 173.5 248.5t150.5 215.5q34 49 44 86t-10 49h18q23 -3 49 -20q51 -32 85 -84q146 107 296 107q87 0 165 -61t78 -125q0 -44 -20 -99q151 18 209 22q7 0 9.5 -12.5t-7.5 -14.5zM77 343
q124 70 236 106t259 66l27 5q88 123 88 200q0 52 -55 52q-43 0 -112 -33t-140 -85q-134 -96 -303 -311zM-44 104q0 -24 47 -24q109 0 263.5 113.5t288.5 269.5q-103 -21 -245 -88t-248 -145.5t-106 -125.5z" />
    <glyph glyph-name="q" unicode="q" horiz-adv-x="886" 
d="M365 228q52 73 161 215q-139 -139 -334.5 -297.5t-251.5 -158.5q-41 0 -110 60t-69 117q0 74 96 201.5t234 242.5q121 101 240 165t200 64q111 0 188.5 -51.5t77.5 -125.5q0 -16 -30.5 -38t-67.5 -39q21 -20 38 -44q33 -50 27 -57q-39 -46 -49 -60q-166 -221 -323 -457
q252 4 407 -22q85 -14 90 -20q1 -2 0 -2.5t-5 -0.5q-6 0 -25 -1t-35 -1q-168 0 -496 -53q-332 -532 -251 -620q0 -13 -50.5 12t-92.5 76t-25 100q65 180 195 397q-31 -5 -104 -22q-46 -11 -118 -39t-87 -43q-13 -13 8.5 -32t51.5 -33q4 -2 2.5 -5t-5.5 -3q-53 4 -94.5 25.5
t-47.5 36.5q-19 46 22.5 97t72.5 62q155 58 378 80q97 156 182 274zM603 614q0 7 -6 11q10 3 35 -1.5t38 -15.5q19 19 25 87q2 29 -11 46.5t-37 17.5q-69 0 -186.5 -76.5t-211.5 -165.5q-134 -125 -231 -246t-97 -161q0 -11 13 -11q32 0 192.5 102t315.5 229.5t161 183.5z
" />
    <glyph glyph-name="r" unicode="r" horiz-adv-x="682" 
d="M285 523q-120 -100 -210.5 -208t-142.5 -203q-45 -82 -34 -99q10 -8 -4 -13q-7 -2 -17 0q-20 4 -76.5 59t-46.5 86q11 35 60 110l82 122q24 35 72.5 104.5t86.5 125t55 81.5q31 49 41.5 85.5t-8.5 50.5q3 2 12 2.5t28 -4.5t38 -17q51 -33 74.5 -69t21.5 -57
q0 -17 -119 -176q-19 -25 -29 -38q53 60 127 129q267 237 350 255q26 5 56 -46.5t26 -106.5q-8 -80 -32 -102q3 21 -14 47q-28 36 -88 29q-158 -18 -309 -147z" />
    <glyph glyph-name="s" unicode="s" horiz-adv-x="738" 
d="M148 477q22 -24 90 -50q264 91 539 126q9 1 8 -7q0 -9 -7 -12q-23 -7 -100.5 -27.5t-167 -48.5t-182.5 -67q57 -25 97 -61.5t40 -69.5t-15 -60.5t-64 -67.5q-92 -70 -229.5 -120.5t-244.5 -50.5q-72 0 -134.5 62t-51.5 106q15 58 153.5 141t303.5 136q-43 15 -69 26
t-57.5 29t-47 39.5t-15.5 47.5q0 62 87 134.5t205 119.5t207 47q68 0 124 -48.5t56 -94.5q0 -49 -77.5 -93t-122.5 -44q-15 0 -16 6q0 2 1 3q5 5 33.5 31.5t50 47.5t41 45t19.5 34q0 8 -16 8q-50 0 -129.5 -29t-149.5 -71q-55 -32 -96 -68t-57 -62.5t-6 -36.5zM180 219
q132 75 132 123q0 11 -6 16t-26 12q-110 -48 -170 -80q-88 -46 -164 -98.5t-112.5 -86.5t-36.5 -45q22 -11 164.5 51.5t218.5 107.5z" />
    <glyph glyph-name="t" unicode="t" horiz-adv-x="464" 
d="M280 630q0 -1 -16.5 -23.5t-39 -54t-53 -75t-61 -87.5t-60 -90t-52 -83t-36.5 -66t-14 -41q0 -8 8 -8q25 0 190 135t319 284q8 8 14.5 2.5t0.5 -13.5q-63 -83 -214 -241q-94 -98 -200 -190.5t-138 -92.5q-16 0 -43 13t-47 28q-77 59 -74 99q0 9 6 25q48 124 304 479
l255 356q-68 -16 -115 -36.5t-61 -34.5q-13 -13 6 -31.5t47 -32.5q4 -2 2.5 -5t-5.5 -3q-50 4 -88.5 25t-43.5 36q-16 47 19.5 97.5t63.5 60.5q78 33 262 50q42 63 79 128q60 111 20 131q46 0 77 -22q45 -32 71.5 -73t26.5 -69q0 -5 -3 -10l-54 -74q150 0 353.5 -28
t259.5 -55q3 -2 2 -3.5t-3 -1.5q-155 12 -456 2q-166 -10 -228 -15z" />
    <glyph glyph-name="u" unicode="u" horiz-adv-x="967" 
d="M843 659q-30 -32 -66 -78q-102 -126 -210 -286t-110 -185q0 -8 8 -8q25 0 185 133.5t317 285.5q10 10 21 1q6 -5 1 -12q-63 -83 -214 -241q-93 -98 -200 -190.5t-139 -92.5q-45 0 -106 59.5t-61 104.5q0 10 6 26.5t20 40t26.5 43.5t35.5 52.5t36.5 51t39.5 54t35 48.5
q-388 -418 -503 -477q-5 -2 -8 -2q-49 0 -118 65.5t-69 120.5q0 21 26 67t94.5 140t102 138.5t131.5 173.5q51 68 59 100q7 29 -25 35q3 2 12.5 3t28.5 -4.5t36 -20.5q58 -48 78.5 -86.5t18.5 -61.5q0 -5 -3 -10q-111 -126 -171 -200q-90 -113 -151 -206t-61 -118
q0 -16 13 -16q40 0 314 236.5t357 341.5q58 75 55 120q0 17 -14 25q43 0 77 -25q49 -37 74.5 -77t23.5 -60q0 -4 -3 -9z" />
    <glyph glyph-name="v" unicode="v" horiz-adv-x="775" 
d="M334 673q-30 -25 -123.5 -163t-166.5 -279t-42 -159q14 -9 44 2q54 22 145 107q151 140 286.5 330t154.5 326q4 36 -22 70q47 -10 102.5 -78.5t53.5 -110.5q-1 -52 -91 -165.5t-210 -231.5t-235 -211q-152 -125 -205 -121q-51 2 -118 57.5t-68 109.5q-3 100 221 473
q11 19 33 53q24 39 34.5 57t21 41t7 34.5t-18.5 17.5l16 3q29 -1 61 -19q49 -29 85.5 -69.5t36.5 -65.5q0 -6 -2 -8z" />
    <glyph glyph-name="w" unicode="w" horiz-adv-x="1120" 
d="M-85 410q34 49 109.5 151t96.5 131q32 44 41.5 84t-11.5 51q21 0 23 -1q24 -5 47 -21q44 -32 80.5 -77.5t34.5 -62.5q0 -4 -4 -10q-105 -126 -163 -200q-53 -65 -93 -126q-118 -186 -114 -219q0 -15 11 -15q34 0 177 141t318 344q72 87 72 127q0 23 -11 33q-4 0 2 2
q22 8 60 -14q49 -29 88 -75t36 -65q0 -2 -42 -59q-64 -86 -122 -184q-49 -83 -82 -158.5t-33 -107.5q0 -19 18 -22q12 -2 24 3.5t28.5 19.5t19.5 16q128 96 312 386q63 100 95.5 187t32.5 127q0 50 -18 67q57 -15 112.5 -65.5t53.5 -87.5q-2 -33 -45.5 -116t-91.5 -145
q-69 -89 -160.5 -186t-164.5 -156q-84 -68 -125 -93t-62 -23q-55 2 -122.5 51t-63.5 111q2 35 39 124t101 186q-120 -160 -240 -300.5t-173 -170.5q-2 -1 -8 -1q-54 0 -126.5 73.5t-74.5 130.5q-3 44 118 215z" />
    <glyph glyph-name="x" unicode="x" horiz-adv-x="822" 
d="M154 68q-28 74 -34 331q-58 -52 -181 -180q-42 -44 -93.5 -119.5t-53.5 -115.5q-3 -26 11 -33q-4 -2 -25.5 0t-51 10t-47.5 19q-37 25 -41 56q-4 43 103 140.5t272 211.5l107 74q0 189 -2 220q-2 47 -17 77.5t-35 26.5q-3 0 3 7t22 13t38 5q60 -3 106.5 -23t60.5 -40
q10 -13 10 -80q0 -2 -0.5 -16.5t-1 -37t-0.5 -45.5q26 19 83.5 62t107 79t89.5 64q43 32 84 53t57 21q27 0 54 -17.5t35 -41.5q12 -42 -3.5 -95t-43.5 -81q3 24 -12 47q-9 14 -33 23t-54 5q-67 -8 -170 -58.5t-194 -114.5q-5 -413 44 -413q39 0 474 419q8 8 14.5 2t0.5 -14
q-90 -113 -213 -240q-21 -21 -65 -68t-74.5 -78t-67 -66t-62.5 -53t-40 -18q-40 0 -94.5 25t-66.5 57z" />
    <glyph glyph-name="y" unicode="y" horiz-adv-x="920" 
d="M331 651q-109 -126 -169 -200q-99 -123 -167.5 -220.5t-68.5 -120.5q0 -15 13 -15q34 0 201 128.5t331 285.5q16 15 55 52.5t65 64t52 56.5q59 70 56 126q-3 19 -12 24q39 0 74 -27q44 -35 69.5 -70t23.5 -53q0 -4 -3 -9q-100 -128 -163 -211q-206 -275 -379 -558
q115 138 310.5 331t281.5 266q3 3 6.5 2t6.5 -3.5t5 -6t2 -6.5t-1 -5q-53 -49 -246 -259.5t-332 -378.5q-222 -270 -285 -413q-33 -71 -33 -126q0 -18 8 -28q0 -13 -48 12t-87 75.5t-21 99.5q76 198 461 791q59 93 140 202q-156 -168 -296 -301.5t-203 -166.5q-5 -2 -8 -2
q-50 0 -121 74.5t-71 132.5q0 12 9.5 33t32 54.5t43 63t59.5 80.5t63.5 82t73.5 93.5t72 91.5q49 63 58 100q7 29 -25 35l19 2q30 -1 55 -22q52 -44 75 -85t21 -62q0 -4 -3 -9z" />
    <glyph glyph-name="z" unicode="z" horiz-adv-x="753" 
d="M-247 -41q-28 1 -38.5 55.5t0.5 94.5q23 94 135 102q170 108 716 525q-15 -6 -89 -36.5t-120.5 -48t-108.5 -34t-97 -14.5q-36 4 -53 26t-11 52q15 71 102 176q12 12 12 7q0 -2 -1 -5q-11 -29 -13.5 -51.5t4.5 -36t15.5 -22t23.5 -13t24.5 -5.5t22.5 -2q156 -10 408 68
q28 8 54 40q7 9 18 -18q23 -57 28 -130v-13q0 -8 -3.5 -12t-11 -6.5t-8.5 -3.5q-154 -82 -360.5 -235t-336.5 -263q281 -6 452 -95q26 -14 50.5 -34.5t24.5 -32.5l-1 -3q-47 28 -99 45q-87 28 -197.5 39t-192.5 8t-149 -12q-80 -59 -126.5 -86t-73.5 -26z" />
    <glyph glyph-name="braceleft" unicode="{" horiz-adv-x="1053" 
d="M608 -79q-54 -49 -112 -86.5t-100.5 -56.5t-82.5 -30.5t-58 -14t-25 -2.5q-28 0 -92.5 26.5t-124.5 74t-60 92.5q0 60 42 139t102.5 152t120.5 141t102 123.5t42 81.5q0 31 -76.5 31t-143.5 -23q-4 2 11 32.5t34.5 59.5t26.5 29q66 -2 121.5 23.5t93 65.5t74.5 104
t61.5 120t59 134t60.5 128q60 114 165 166t236 31q59 -8 133.5 -34.5t111.5 -60.5q5 -5 -8 -10q-6 -3 -11 -1q-94 35 -198.5 17t-164.5 -87q-61 -69 -130 -167t-118 -168.5t-108.5 -139t-129.5 -109.5t-153 -50q57 -9 103 -36.5t70.5 -73.5t-3.5 -107q-16 -35 -80.5 -126
t-127.5 -177.5t-110 -173.5t-38 -123q9 -32 66 -32q66 0 182 37t229 89q11 4 13 1q2 -2 -5 -9z" />
    <glyph glyph-name="bar" unicode="|" horiz-adv-x="962" 
d="M354 -98q-23 51 -5.5 286t50.5 492.5t54 483.5t5 259q-9 25 -28 23q-3 0 5 5q2 1 3 2q8 5 31 7.5t59 -1.5q48 -6 88 -30t52 -46q0 -18 -24 -151q-9 -50 -26 -141t-31.5 -168.5t-33.5 -179.5t-33.5 -188t-29.5 -180t-24.5 -168.5t-15.5 -139.5t-5 -108t9 -60
q3 -8 10.5 -12t8.5 -5q6 -7 -15 -19q-13 -8 -53 3.5t-51 35.5z" />
    <glyph glyph-name="braceright" unicode="}" horiz-adv-x="1101" 
d="M444 1300q54 49 112 86.5t100.5 56.5t82.5 30.5t58 14t25 2.5q28 0 91.5 -26.5t122.5 -74t59 -92.5q0 -60 -42 -139t-102.5 -152t-121 -141t-102.5 -123.5t-42 -81.5q0 -31 81 -31t148 23q4 -2 -11 -32.5t-35 -59.5t-27 -29q-66 2 -120 -23.5t-89.5 -65.5t-70.5 -103.5
t-57.5 -120.5t-55 -134t-59.5 -128q-59 -113 -172.5 -165.5t-246.5 -31.5q-59 8 -133 34t-111 60q-5 5 8 11q6 3 11 1q96 -33 206.5 -12t176.5 87q47 47 103.5 130.5t100.5 158t103 152t113 118.5q76 57 199 70q-57 9 -104 36.5t-72.5 73.5t2.5 107q16 35 80.5 126
t127.5 177.5t110 173.5t38 123q-9 32 -66 32q-66 0 -182 -37t-229 -89q-8 -3 -12 -2t4 10z" />
    <glyph glyph-name="asciitilde" unicode="~" horiz-adv-x="1127" 
d="M591 315q-34 0 -71 19t-65 41.5t-65.5 41.5t-72.5 19q-33 0 -82 -20.5t-76 -45.5q-2 -1 -4.5 -1t-4.5 1.5t-2 4.5q5 32 43.5 81t102 90.5t123.5 41.5q35 0 69 -21.5t57.5 -47t59.5 -47t73 -21.5q58 0 125.5 34t107.5 68q4 4 7 -3q1 -4 -1 -8q-20 -37 -69.5 -88
t-122.5 -95t-132 -44z" />
    <glyph glyph-name="exclamdown" unicode="&#xa1;" horiz-adv-x="1053" 
d="M739 885q0 -31 -88.5 -190.5t-194.5 -335.5t-194.5 -339t-88.5 -201q0 -30 18 -38l-8 -2h-2q-9 0 -40.5 13t-50.5 28q-41 33 -69.5 70t-28.5 61q0 5 6 17q44 67 216 311.5t302 436t130 215.5q0 10 -5 17t-5 8q0 12 26 5q22 -7 49.5 -28.5t27.5 -47.5zM822 1062
q-8 -4 -21 -2.5t-29.5 6.5t-30 10.5t-22 11.5t-7.5 8q40 60 65 125t25 109q0 27 -22 36q33 0 47 -4q21 -5 38 -17q43 -29 77 -69.5t32 -56.5q0 -1 -5 -9q-12 -18 -48 -54t-66 -64t-33 -30z" />
    <glyph glyph-name="cent" unicode="&#xa2;" horiz-adv-x="968" 
d="M785 769q-82 0 -199 -77t-214.5 -179.5t-167.5 -206t-70 -155.5q0 -19 14.5 -30.5t38.5 -11.5q85 0 197 48t282 172q6 4 14 -2t4 -12q-151 -149 -264.5 -229.5t-208.5 -91.5q-41 -70 -64.5 -129t-23.5 -84q0 -11 5.5 -19t5.5 -9q0 -11 -25 -11q-19 0 -58.5 41t-39.5 63
q-2 45 77 168q-52 30 -93 82t-42 95q-2 83 67.5 191.5t172 202t223 166.5t216.5 93q119 180 119 232q0 33 -18 41q-4 0 1 1l8 1q41 0 79 -32q71 -65 75 -101q0 -12 -4 -17l-106 -139q43 -23 75 -62.5t32 -79.5q0 -38 -77 -92.5t-126 -67.5q-4 -1 -4 1.5t2 6.5q1 2 42.5 59
t62.5 92t21 50q0 14 -8 23t-21 9z" />
    <glyph glyph-name="sterling" unicode="&#xa3;" horiz-adv-x="1715" 
d="M1240 770q-8 -4 -11.5 4t1.5 14q111 137 167 247t52 167q0 7 -2 16.5t-10 21t-22 11.5q-19 0 -37.5 -6t-41 -22.5t-42 -33.5t-48.5 -50.5t-52 -61t-61.5 -77.5t-66.5 -88t-78 -104.5t-87 -115.5q311 -14 451 -95q3 -2 -4 -4q-2 -1 -3 -1q-223 45 -512 18
q-41 -55 -81 -105.5t-80 -97.5t-64.5 -75t-65 -73t-50.5 -56q291 -10 563 -59.5t331 -108.5q17 -16 45 -95t28 -94q0 -7 -4 -9t-9 1t-8 8q-26 42 -193 108.5t-406 121t-425 55.5q-95 -85 -203.5 -143.5t-183.5 -58.5q-27 0 -55.5 21t-45.5 49.5t-24.5 58t7.5 46.5
q79 90 392 94q100 107 302 390q-147 -20 -257 -54t-127 -61q-16 -23 -22 -11q-7 19 33.5 101t90.5 96q32 9 66.5 15.5t77 10t68.5 5t80.5 3t73.5 2.5q60 84 89.5 125t83.5 114t85.5 111t77.5 93t78.5 83.5t70 58t70 42t62.5 12.5q101 0 184.5 -65t83.5 -157
q0 -47 -67.5 -123.5t-143.5 -136t-121 -82.5z" />
    <glyph glyph-name="currency" unicode="&#xa4;" horiz-adv-x="1509" 
d="M857 952q42 0 117.5 -27t129.5 -82q166 98 342 98q32 0 0 -18q-163 -89 -275 -201q-2 -126 -110 -261t-256 -220q31 -31 87 -101q13 -18 25 -37t21 -36t17 -34.5t13.5 -31.5t10 -27t7 -21.5t4.5 -14.5l2 -7q1 -6 -1.5 -9.5t-7.5 -2t-9 8.5q-32 48 -73.5 89t-92.5 73.5
t-77 46.5t-73 37l-12 6q-66 -21 -125 -21q-56 0 -125.5 14.5t-110.5 40.5q-108 -44 -258 -154q-10 -7 -15 -5t1 14q69 137 195 243q-7 17 -3 53q17 131 118 254t228 197q0 4 -0.5 34t-2 50.5t-5.5 50t-13.5 54.5t-23.5 44q-4 5 -2.5 8t5 4.5t5.5 0.5q20 -6 67 -38.5
t92 -81.5l47 -50q4 2 27.5 3.5t26.5 2.5q12 21 37 37.5t46 16.5zM410 329q-2 -118 82 -118q20 0 58 6q11 14 65 42t86 31q4 0 6 -2q111 77 196.5 233t85.5 275q0 29 -15 46.5t-43 17.5q-114 0 -237.5 -87.5t-203 -212.5t-80.5 -231z" />
    <glyph glyph-name="yen" unicode="&#xa5;" horiz-adv-x="2129" 
d="M1705 397q8 -2 5 -6q-1 -3 -10 -3q-186 5 -536 -27q-206 -362 -208 -478q0 -6 5 -6q49 -2 345 260q14 11 15 5q0 -3 -2 -7q-47 -97 -146.5 -208t-159.5 -111q-73 -1 -136 50t-63 106q0 63 36 152t106 223q-337 -40 -425 -125q-10 -9 -10 9q0 43 34 101q42 70 100 85v2
q-7 20 32.5 99.5t89.5 91.5q145 36 346 36q267 473 270 588q1 56 -35.5 86t-95.5 35q-116 12 -258 -29.5t-266.5 -114t-231 -156t-169 -161.5t-63.5 -124q0 -45 47 -45q109 -2 268.5 74t404.5 258q2 2 4 -1q1 -1 -1 -4q-64 -109 -178.5 -213.5t-220 -163t-163.5 -57.5
q-100 3 -183 80t-80 203q1 66 60.5 146t163 155t229 135.5t274.5 93t284 23.5q68 -4 147.5 -53.5t133 -118.5t52.5 -126q-1 -51 -14.5 -93.5t-44.5 -106.5q238 227 467 328q150 67 311 80t303 -33q20 -6 20 -11t-18 -1q-135 31 -281 -1.5t-326 -128.5q-157 -85 -345 -263
t-243 -283q311 -30 475 -112q-1 -2 -5 -3q-219 45 -539 22q-19 -20 -63 -95q223 -6 492 -58zM674 430l-4 -9q183 33 343 36l44 77q-152 -21 -257.5 -49.5t-125.5 -54.5z" />
    <glyph glyph-name="section" unicode="&#xa7;" horiz-adv-x="1288" 
d="M462 104q163 -65 212 -93q87 -50 87 -102q0 -57 -64 -131t-157.5 -136.5t-208 -105.5t-207.5 -43q-89 0 -161.5 70t-72.5 153q0 55 81 118t170.5 101t129.5 38q7 0 9 -4t-6 -12q-35 -28 -72 -60t-95 -86t-94.5 -103.5t-36.5 -80.5q0 -21 44 -21q87 0 225 67.5
t243.5 156.5t106.5 145q0 14 -39 37t-98.5 48t-129 60t-129 70.5t-99 81t-39.5 89.5q0 55 61.5 124t148.5 124.5t189.5 90.5t177.5 28q-14 6 -42 17q-64 26 -96.5 40t-77 37.5t-64 45t-19.5 44.5q0 77 106 173.5t259 165t277 68.5q88 0 157 -68.5t69 -150.5
q0 -53 -79.5 -111.5t-167.5 -93.5t-128 -35q-7 0 -8.5 3t5.5 10q4 4 32.5 28.5t50 44t54.5 50t57.5 57t48 55t36 53.5t12.5 43q0 22 -20 22q-65 0 -168 -42.5t-195 -100t-159.5 -121t-67.5 -102.5q0 -14 39.5 -37t98.5 -49t127.5 -61t127.5 -71t98.5 -82t39.5 -91
q0 -72 -108.5 -164.5t-247.5 -152.5t-223 -48zM870 545q0 36 -22 62t-70 55q-55 16 -152 -22.5t-185.5 -100.5t-154 -131.5t-65.5 -111.5q0 -66 102 -126q55 -15 150.5 25.5t182 103.5t150.5 133.5t64 112.5z" />
    <glyph glyph-name="dieresis" unicode="&#xa8;" horiz-adv-x="625" 
d="M536 1081q-38 -6 -91 -71.5t-62 -94.5q-9 -14 -32 -3.5t-49 34.5t-28 39q-6 36 32 90t74 64q41 11 91.5 -10t64.5 -48zM803 1082q-38 -6 -90.5 -71t-61.5 -94q-6 -24 -55 9q-43 30 -53 55l-1 4q-6 37 30 88t74 61q42 10 93 -9t64 -43z" />
    <glyph glyph-name="copyright" unicode="&#xa9;" horiz-adv-x="1392" 
d="M670 583q86 0 190 59.5t187.5 144t140.5 179.5t57 162q0 148 -194 148q-123 0 -256.5 -68t-236.5 -169.5t-170.5 -225.5t-67.5 -230q0 -85 56 -134.5t158 -49.5q73 0 167 24.5t209 74.5t250.5 140.5t265.5 210.5h3.5t4 -1t2.5 -2.5t-1 -4.5q-118 -167 -270.5 -297
t-297.5 -197t-260 -67q-74 0 -155 39.5t-142 97.5t-101 126t-40 122q0 101 50.5 206t134.5 192t185 156.5t210 108.5t203 39q97 0 194 -39.5t161 -109.5t64 -147q0 -67 -73.5 -164.5t-177 -182.5t-224 -145.5t-206.5 -60.5q-45 0 -100 22.5t-97 63t-42 83.5q0 62 53.5 147.5
t129.5 160t165.5 127t155.5 52.5q59 0 120 -42.5t61 -98.5q0 -22 -39.5 -64.5t-89.5 -67.5q-5 -3 -8 -2t-3.5 5t3.5 11q64 125 64 169q0 9 -5 13t-10 4q-50 0 -129 -50.5t-150 -120.5t-122.5 -149.5t-51.5 -131.5q0 -66 75 -66z" />
    <glyph glyph-name="guillemotleft" unicode="&#xab;" horiz-adv-x="1747" 
d="M673 397q66 0 255 112.5t347 228.5t157 132q2 5 13 11t25 6q21 1 60 -15t66 -38t16 -35q-55 -62 -212 -152t-342 -180t-198 -97q90 -28 179.5 -81t149 -107t96.5 -100.5t37 -67.5q0 -3 -3 -3q-109 112 -252.5 167t-354.5 55l-104 -6q-6 0 7 42.5t31.5 85t26.5 42.5z
M106 354q72 0 271.5 118.5t369.5 243.5t186 154q3 6 14.5 12.5t27.5 6.5q23 1 65.5 -17.5t72 -42.5t17.5 -37q-60 -67 -229 -164t-377 -198t-214 -104q98 -31 195.5 -89t162 -117t105 -109.5t40.5 -73.5q0 -3 -3 -3q-118 122 -274 182t-386 60l-114 -7q-7 0 7 46.5t34 92.5
t29 46z" />
    <glyph glyph-name="registered" unicode="&#xae;" horiz-adv-x="1671" 
d="M778 1141q6 8 17 21q47 60 50 70q1 1 1 3q-426 -87 -778 -427q-10 0 -10 3t2 5q92 126 229 236.5t275 180.5t267.5 108.5t220.5 35.5q84 -3 161.5 -41.5t128.5 -95.5t81.5 -121t30.5 -120q0 -131 -80 -264t-210 -242q136 -91 214 -91q40 0 40 41q0 66 -41 121q-4 4 2 6
q3 2 6 0q31 -18 50.5 -30.5t41 -36t21.5 -43.5q0 -44 -55 -93t-113 -49q-98 0 -260 103q-195 -134 -385 -134q-97 0 -198.5 47t-169 124t-67.5 155q0 101 77.5 207.5t196.5 189t254 131.5zM510 641q0 45 55.5 152t135.5 228q-138 -92 -222 -220t-84 -257q0 -70 45.5 -118
t147.5 -48q181 0 359 131q-118 89 -260 244q-33 -51 -46.5 -73.5t-24.5 -47.5t-11 -43q0 -15 16 -38q0 -1 -3 -1q-19 0 -63.5 28t-44.5 63zM1229 1019q0 -36 -64.5 -89t-159 -97t-173.5 -55q94 -103 208 -194q128 113 209.5 249.5t81.5 251.5q0 85 -57 135t-155 50
q-103 0 -221 -21q19 -16 47 -49q11 -13 13 -20q63 9 101 9q61 0 115.5 -46t54.5 -124zM920 1120q-27 -38 -89 -134.5t-76 -117.5q51 11 134.5 51t154.5 95t71 95q0 35 -59 35q-63 0 -136 -24z" />
    <glyph glyph-name="acute" unicode="&#xb4;" horiz-adv-x="552" 
d="M562 955q-85 -45 -218 -72t-201 -29q-4 0 -4.5 9t3 19.5t9.5 12.5q99 33 217.5 105t184.5 148q29 32 16 57q-1 1 1.5 1t4.5 -1q46 -24 46 -96q0 -28 -17.5 -85t-41.5 -69z" />
    <glyph glyph-name="mu" unicode="&#xb5;" horiz-adv-x="987" 
d="M857 659q-30 -32 -66 -78q-102 -126 -210 -286t-110 -185q0 -8 8 -8q25 0 190 135t319 284q3 3 6.5 4t6 0t4.5 -3t1.5 -5.5t-2.5 -6.5q-59 -77 -215 -241q-94 -98 -200 -190.5t-138 -92.5q-45 0 -106 59.5t-61 104.5q0 16 15 47t51.5 85t54.5 79.5t65 90.5q4 6 6.5 9
t5.5 7.5t6 8.5q-155 -166 -306.5 -310.5t-214.5 -177.5q-5 -2 -8 -2q-35 0 -88 40q-37 -60 -66 -109t-66 -113t-65 -116t-56.5 -109t-46.5 -102.5t-30 -86.5t-12 -70t13 -44q0 -13 -53 13t-96.5 78t-25.5 101q52 136 183.5 366.5t260.5 424.5q91 137 315 432q50 66 58 100
q7 29 -25 35q3 2 12.5 3t28.5 -4.5t36 -20.5q58 -48 79 -86.5t19 -61.5q0 -5 -3 -10q-112 -126 -172 -200q-90 -112 -150.5 -205.5t-60.5 -118.5q0 -16 13 -16q26 0 170 113t300.5 253.5t212.5 211.5q58 75 55 120q0 17 -14 25q43 0 77 -25q49 -37 74.5 -77t23.5 -60
q0 -4 -3 -9z" />
    <glyph glyph-name="paragraph" unicode="&#xb6;" horiz-adv-x="1665" 
d="M532 392q18 29 45 64t82 104.5t107 137.5q-103 -90 -199 -128t-172 -34q-100 6 -171 69t-71 150q0 90 61.5 184t170.5 174.5t275.5 138.5t360.5 74q232 18 575 -51.5t450 -149.5q5 -4 2 -7t-8 -1q-206 65 -472 98q35 -62 33 -84q0 -4 -4.5 -12t-14 -20.5t-19.5 -25
t-27 -33t-31 -37.5t-37.5 -44.5t-40.5 -47.5q-207 -247 -350 -442.5t-263 -405.5q-81 -144 -72 -161q1 -1 3 -1q34 0 149.5 100t205.5 191q13 13 15 6q1 -2 -1 -7q-53 -114 -154.5 -233.5t-149.5 -119.5q-60 0 -131 56.5t-71 130.5v3q-38 12 -73 29.5t-67.5 53.5t-32.5 78
q0 63 97 203zM710 241q98 149 431 580q55 72 139.5 176t120.5 153.5t48 87.5q-69 7 -154 7q42 -63 39 -98q0 -19 -149 -196q-14 -17 -21 -25q-259 -306 -425 -538q-37 -51 -101.5 -170.5t-57.5 -140.5q2 -1 4 -1q18 0 46 22q24 57 80 143z" />
    <glyph glyph-name="cedilla" unicode="&#xb8;" horiz-adv-x="385" 
d="M255 30l46 -22q-37 -22 -75 -77q-16 -23 -10 -22q19 7 52.5 9t70.5 -9q38 -17 60 -59t22 -80q0 -21 -31.5 -60.5t-78 -79.5t-108.5 -69.5t-115 -29.5q-44 0 -82 46.5t-38 96.5q0 28 54.5 68t95.5 36q-29 -32 -60.5 -80.5t-29.5 -56.5q38 0 110.5 50t123.5 105.5t37 69.5
q-30 30 -129 -11q-19 -8 -39 9t-25 29q-7 20 46.5 64.5t102.5 72.5z" />
    <glyph glyph-name="guillemotright" unicode="&#xbb;" horiz-adv-x="1784" 
d="M720 477l-42.5 25.5t-49 32t-57.5 42.5t-47 43.5t-38.5 50t-12.5 47.5q0 41 50 110q34 48 42 38q2 -2 2 -6q0 -44 51.5 -103t117 -106t125.5 -80.5t80 -33.5q13 -6 2.5 -44.5t-33 -83t-33.5 -44.5q-78 0 -173.5 -20t-186.5 -52.5t-183 -71t-169 -77.5t-137 -71.5
t-95 -52.5l-35 -20q-2 0 -2 2q0 15 39 54.5t115.5 95t174 113.5t229.5 116t266 96zM1211 440q-139 84 -197 139q-71 69 -72 124q0 44 52 117q37 53 48 44q2 -1 2 -7q0 -48 55.5 -112.5t127.5 -116t137 -88t87 -36.5q14 -7 3.5 -48.5t-35 -89.5t-36.5 -48q-85 0 -189.5 -22
t-204 -57t-199.5 -77.5t-184 -85t-149.5 -77.5t-103.5 -57l-38 -22q-1 0 -1 1q0 16 42.5 59t126 104t189 124.5t249.5 126.5t290 105z" />
    <glyph glyph-name="questiondown" unicode="&#xbf;" horiz-adv-x="1474" 
d="M649 613q-210 -84 -346 -221t-136 -252q0 -64 39.5 -109t119.5 -47q86 0 176 27.5t163 71t139.5 96.5t111.5 104t71 93t26 64t-28 22q-47 0 -160.5 -56t-181.5 -108q-7 -5 -13 -2.5t3 13.5q69 83 158.5 159t149.5 76q71 0 126 -66.5t55 -137.5q0 -46 -30 -105.5
t-89.5 -121.5t-137 -114t-183.5 -85.5t-219 -33.5q-86 0 -158.5 28t-119 71.5t-79 99t-46.5 108.5t-14 101q0 112 97 208t246 169q29 15 110 50.5t145.5 66.5t137 72t120 86.5t59.5 89.5q11 42 2 68q4 4 7 2q13 -7 38.5 -53.5t40 -103t-7.5 -100.5q-30 -52 -147.5 -115.5
t-244.5 -114.5zM1117 1122q-11 -6 -30 5t-32.5 26t-10.5 19q37 56 56 120t19 113q0 26 -23 36h23q26 -4 50 -20q50 -34 79.5 -78.5t27.5 -63.5q0 -1 -5 -9q-12 -17 -49.5 -53.5t-69 -64.5t-35.5 -30z" />
    <glyph glyph-name="Agrave" unicode="&#xc0;" horiz-adv-x="2156" 
d="M1804 -400q-69 0 -129.5 26.5t-98 66.5t-58.5 84.5t-21 83.5q0 162 73 394.5t174 434.5q-77 13 -194 19q-43 -47 -124.5 -137t-135 -149.5t-136.5 -148.5t-143 -150t-140 -138t-142 -129t-135 -106t-132 -86t-120 -52.5t-112 -20.5q-61 0 -135.5 30.5t-142 81t-113 126
t-45.5 156.5q0 103 68 205t183 186t270 157t327.5 123t357 78.5t355.5 28.5q84 0 123 -3q320 305 535 542q139 155 141 198q0 21 -19 33q4 4 9 4q53 0 126 -73q37 -37 61 -75.5t13 -56.5q-178 -208 -387 -637q213 -62 341 -151q2 -2 2 -6t-4 -7t-9 0q-163 85 -346 128
q-260 -570 -260 -847q0 -29 2.5 -50t10 -46.5t26.5 -39.5t48 -14q48 0 109 26t88 46q11 8 12 1q0 -4 -6 -13q-29 -40 -79 -81.5t-88 -41.5zM-74 -128q0 -69 38.5 -113t109.5 -44q116 1 345 143.5t495 369t513 484.5q-198 -7 -394.5 -49.5t-359 -109t-303.5 -151.5
t-237.5 -176t-151.5 -183t-55 -171zM2144 1408q-281 -372 -554 -653q66 -6 176 -24q152 306 378 677zM2119 1679q-7 7 -10 13q-7 14 -7.5 46t6 67t23.5 66.5t40 42.5l6 1l-1 -1q-16 -20 1 -55q37 -73 121 -137t177 -107q5 -2 7 -9t0.5 -12.5t-5.5 -5.5q-63 0 -179.5 24
t-178.5 67z" />
    <glyph glyph-name="Aacute" unicode="&#xc1;" horiz-adv-x="2156" 
d="M1804 -400q-69 0 -129.5 26.5t-98 66.5t-58.5 84.5t-21 83.5q0 162 73 394.5t174 434.5q-77 13 -194 19q-43 -47 -124.5 -137t-135 -149.5t-136.5 -148.5t-143 -150t-140 -138t-142 -129t-135 -106t-132 -86t-120 -52.5t-112 -20.5q-61 0 -135.5 30.5t-142 81t-113 126
t-45.5 156.5q0 103 68 205t183 186t270 157t327.5 123t357 78.5t355.5 28.5q84 0 123 -3q320 305 535 542q139 155 141 198q0 21 -19 33q4 4 9 4q53 0 126 -73q37 -37 61 -75.5t13 -56.5q-178 -208 -387 -637q213 -62 341 -151q2 -2 2 -6t-4 -7t-9 0q-163 85 -346 128
q-260 -570 -260 -847q0 -29 2.5 -50t10 -46.5t26.5 -39.5t48 -14q48 0 109 26t88 46q11 8 12 1q0 -4 -6 -13q-29 -40 -79 -81.5t-88 -41.5zM-74 -128q0 -69 38.5 -113t109.5 -44q116 1 345 143.5t495 369t513 484.5q-198 -7 -394.5 -49.5t-359 -109t-303.5 -151.5
t-237.5 -176t-151.5 -183t-55 -171zM2144 1408q-281 -372 -554 -653q66 -6 176 -24q152 306 378 677zM2447 1697q-85 -45 -218 -72t-201 -29q-4 0 -5 9t2.5 19.5t9.5 12.5q99 33 217.5 105t184.5 148q29 32 16 57q-1 1 1.5 1t4.5 -1q46 -24 46 -96q0 -28 -17 -85t-41 -69z
" />
    <glyph glyph-name="Acircumflex" unicode="&#xc2;" horiz-adv-x="2156" 
d="M1804 -400q-69 0 -129.5 26.5t-98 66.5t-58.5 84.5t-21 83.5q0 162 73 394.5t174 434.5q-77 13 -194 19q-43 -47 -124.5 -137t-135 -149.5t-136.5 -148.5t-143 -150t-140 -138t-142 -129t-135 -106t-132 -86t-120 -52.5t-112 -20.5q-61 0 -135.5 30.5t-142 81t-113 126
t-45.5 156.5q0 103 68 205t183 186t270 157t327.5 123t357 78.5t355.5 28.5q84 0 123 -3q320 305 535 542q139 155 141 198q0 21 -19 33q4 4 9 4q53 0 126 -73q37 -37 61 -75.5t13 -56.5q-178 -208 -387 -637q213 -62 341 -151q2 -2 2 -6t-4 -7t-9 0q-163 85 -346 128
q-260 -570 -260 -847q0 -29 2.5 -50t10 -46.5t26.5 -39.5t48 -14q48 0 109 26t88 46q11 8 12 1q0 -4 -6 -13q-29 -40 -79 -81.5t-88 -41.5zM-74 -128q0 -69 38.5 -113t109.5 -44q116 1 345 143.5t495 369t513 484.5q-198 -7 -394.5 -49.5t-359 -109t-303.5 -151.5
t-237.5 -176t-151.5 -183t-55 -171zM2144 1408q-281 -372 -554 -653q66 -6 176 -24q152 306 378 677zM2410 1799q4 -38 9 -62.5t26.5 -71.5t57.5 -94q17 -19 2 -20q-9 0 -24 9q-103 70 -137 134q-121 -35 -354 -41q-14 0 -18 6t-0.5 12t7.5 7q75 25 175.5 74.5t167.5 92.5
q10 6 47 -12.5t41 -33.5z" />
    <glyph glyph-name="Atilde" unicode="&#xc3;" horiz-adv-x="2156" 
d="M1804 -400q-69 0 -129.5 26.5t-98 66.5t-58.5 84.5t-21 83.5q0 162 73 394.5t174 434.5q-77 13 -194 19q-43 -47 -124.5 -137t-135 -149.5t-136.5 -148.5t-143 -150t-140 -138t-142 -129t-135 -106t-132 -86t-120 -52.5t-112 -20.5q-61 0 -135.5 30.5t-142 81t-113 126
t-45.5 156.5q0 103 68 205t183 186t270 157t327.5 123t357 78.5t355.5 28.5q84 0 123 -3q320 305 535 542q139 155 141 198q0 21 -19 33q4 4 9 4q53 0 126 -73q37 -37 61 -75.5t13 -56.5q-178 -208 -387 -637q213 -62 341 -151q2 -2 2 -6t-4 -7t-9 0q-163 85 -346 128
q-260 -570 -260 -847q0 -29 2.5 -50t10 -46.5t26.5 -39.5t48 -14q48 0 109 26t88 46q11 8 12 1q0 -4 -6 -13q-29 -40 -79 -81.5t-88 -41.5zM-74 -128q0 -69 38.5 -113t109.5 -44q116 1 345 143.5t495 369t513 484.5q-198 -7 -394.5 -49.5t-359 -109t-303.5 -151.5
t-237.5 -176t-151.5 -183t-55 -171zM2144 1408q-281 -372 -554 -653q66 -6 176 -24q152 306 378 677zM2362 1599q-38 0 -108 49.5t-99 49.5q-28 0 -63 -14.5t-55 -37.5q-2 -2 -5.5 -2t-6 1t-1.5 4q10 49 77.5 113.5t135.5 64.5q29 0 94.5 -52t100.5 -52q51 0 102 30t91 87
q2 4 7.5 3.5t4.5 -8.5q-13 -75 -106.5 -155.5t-168.5 -80.5z" />
    <glyph glyph-name="Adieresis" unicode="&#xc4;" horiz-adv-x="2156" 
d="M1804 -400q-69 0 -129.5 26.5t-98 66.5t-58.5 84.5t-21 83.5q0 162 73 394.5t174 434.5q-77 13 -194 19q-43 -47 -124.5 -137t-135 -149.5t-136.5 -148.5t-143 -150t-140 -138t-142 -129t-135 -106t-132 -86t-120 -52.5t-112 -20.5q-61 0 -135.5 30.5t-142 81t-113 126
t-45.5 156.5q0 103 68 205t183 186t270 157t327.5 123t357 78.5t355.5 28.5q84 0 123 -3q320 305 535 542q139 155 141 198q0 21 -19 33q4 4 9 4q53 0 126 -73q37 -37 61 -75.5t13 -56.5q-178 -208 -387 -637q213 -62 341 -151q2 -2 2 -6t-4 -7t-9 0q-163 85 -346 128
q-260 -570 -260 -847q0 -29 2.5 -50t10 -46.5t26.5 -39.5t48 -14q48 0 109 26t88 46q11 8 12 1q0 -4 -6 -13q-29 -40 -79 -81.5t-88 -41.5zM-74 -128q0 -69 38.5 -113t109.5 -44q116 1 345 143.5t495 369t513 484.5q-198 -7 -394.5 -49.5t-359 -109t-303.5 -151.5
t-237.5 -176t-151.5 -183t-55 -171zM2144 1408q-281 -372 -554 -653q66 -6 176 -24q152 306 378 677zM2338 1802q-38 -6 -91 -71t-62 -94q-9 -14 -32 -3.5t-49 34t-28 38.5q-6 36 32 90.5t74 64.5q41 11 91.5 -10.5t64.5 -48.5zM2606 1804q-38 -6 -91 -71.5t-62 -94.5
q-6 -24 -55 9q-43 30 -53 55l-1 4q-6 37 30 88.5t74 61.5q43 10 94 -9t64 -43z" />
    <glyph glyph-name="Aring" unicode="&#xc5;" horiz-adv-x="2156" 
d="M2154 1498q-56 49 -8 144q31 64 97 107q-2 20 52 38t107 18q62 0 112 -31t54 -76q3 -40 -35 -98.5t-105.5 -105t-133.5 -46.5h-8q75 -86 58 -115q-178 -208 -387 -637q213 -62 341 -151q2 -2 2 -6t-4 -7t-9 0q-163 85 -346 128q-260 -570 -260 -847q0 -29 2.5 -50
t10 -46.5t26.5 -39.5t48 -14q48 0 109 26t88 46q11 8 12 1q0 -4 -6 -13q-29 -40 -79 -81.5t-88 -41.5q-69 0 -129.5 26.5t-98 66.5t-58.5 84.5t-21 83.5q0 162 73 394.5t174 434.5q-77 13 -194 19q-43 -47 -124.5 -137t-135 -149.5t-136.5 -148.5t-143 -150t-140 -138
t-142 -129t-135 -106t-132 -86t-120 -52.5t-112 -20.5q-61 0 -135.5 30.5t-142 81t-113 126t-45.5 156.5q0 103 68 205t183 186t270 157t327.5 123t357 78.5t355.5 28.5q84 0 123 -3q320 305 535 542q135 150 141 195zM-74 -128q0 -69 38.5 -113t109.5 -44q116 1 345 143.5
t495 369t513 484.5q-198 -7 -394.5 -49.5t-359 -109t-303.5 -151.5t-237.5 -176t-151.5 -183t-55 -171zM2144 1408q-281 -372 -554 -653q66 -6 176 -24q152 306 378 677zM2456 1744q4 13 0 20t-14 7q-32 2 -106 -96.5t-91 -162.5q-4 -19 13 -23q34 -1 111 106.5t87 148.5z
" />
    <glyph glyph-name="AE" unicode="&#xc6;" horiz-adv-x="3365" 
d="M2116 -395q-54 -2 -119 9t-132.5 33t-130.5 57.5t-112.5 79.5t-80 102.5t-30.5 122.5q-1 68 20.5 157.5t64 196t70 168.5t73.5 159q-77 13 -194 19q-43 -47 -124.5 -137t-135 -149.5t-136.5 -148.5t-143 -150t-140 -138t-142 -129t-135 -106t-132 -86t-120 -52.5
t-112 -20.5q-61 0 -135.5 30.5t-142 81t-113 126t-45.5 156.5q0 103 68 205t183 186t270 157t327.5 123t357 78.5t355.5 28.5q84 0 123 -3q327 312 536 542q138 154 140 198q0 21 -19 33q4 4 9 4q53 0 126 -73q37 -37 61 -75.5t13 -56.5q-94 -110 -198 -283.5t-189 -353.5
q-77 -168 -126 -290q169 100 374 163t335 63q-46 2 -106.5 19t-121.5 46t-104 76.5t-45 103.5q-3 74 48.5 155t138 152t191.5 132t215 103q199 74 373 59q128 -13 221 -81t97 -170q2 -66 -121.5 -177t-254.5 -168q-8 -4 -15 3q-3 3 1 7q97 93 177.5 220.5t78.5 196.5
q-3 80 -110 80q-150 0 -343 -92q-129 -60 -242 -141t-188 -174.5t-75 -170.5q0 -21 14 -42t45.5 -43t93.5 -39.5t147 -26.5q16 3 83.5 23.5t135 36.5t105.5 16q44 0 44 -18q2 -38 -48.5 -96t-118.5 -58q-56 0 -136 18.5t-94 19.5q-409 -111 -660.5 -309.5t-251.5 -393.5
q0 -73 49.5 -118.5t161.5 -45.5q140 0 308 55t324 140.5t324.5 203.5t302.5 229t266 232q18 16 17 0q-1 -11 -7 -18q-55 -63 -140.5 -150.5t-203.5 -199t-249.5 -217.5t-262 -197t-259 -148t-224.5 -60zM-79 -128q0 -69 38.5 -113t109.5 -44q116 1 345 143.5t495.5 369
t513.5 484.5q-198 -7 -394.5 -49.5t-359 -109t-303.5 -151.5t-238 -176t-152 -183t-55 -171zM2139 1408q-281 -372 -554 -653q66 -6 176 -24q152 306 378 677z" />
    <glyph glyph-name="Ccedilla" unicode="&#xc7;" horiz-adv-x="1775" 
d="M1352 750q-16 -10 -23 0q-7 9 13 27q156 140 273.5 297.5t117.5 250.5q0 32 -26.5 49t-63.5 20q-198 14 -481 -121t-516 -358q-261 -256 -408 -520.5t-117 -459.5q13 -90 85.5 -141t188.5 -51q251 0 652.5 234t809.5 617q17 16 19 1q2 -12 -6 -20q-87 -94 -177.5 -185.5
t-212.5 -207t-241.5 -211t-241.5 -179t-238 -131t-206 -47.5h-2q-48 -46 -67 -84q-6 -13 0 -12q22 9 65 11.5t89 -11.5q48 -19 70.5 -63t22.5 -93q0 -25 -39 -70.5t-96.5 -91t-134.5 -79t-144 -33.5q-41 0 -90 59.5t-49 99.5q0 32 59 71t103 39h3q0 -1 -3 -4
q-49 -46 -82.5 -90.5t-33.5 -65.5q0 -10 17 -10q48 0 149.5 63t176.5 133t58 88q-19 19 -77 14t-118 -30q-37 -15 -58 47q-11 30 104 117q-88 10 -175.5 39.5t-170.5 80t-138.5 131t-63.5 179.5q-14 185 110.5 420.5t339.5 447.5q249 243 554 405t543 162q84 0 152.5 -19.5
t110 -48.5t71 -66t41.5 -67.5t15 -56.5q10 -91 -141 -238.5t-372 -237.5z" />
    <glyph glyph-name="Egrave" unicode="&#xc8;" horiz-adv-x="1767" 
d="M518 -395q-65 -2 -143.5 13t-158.5 49.5t-146.5 81.5t-110 115.5t-46.5 144.5q-3 85 51.5 169t145.5 151t205.5 125.5t231 97t221 60t177.5 20.5q-45 1 -106 17.5t-124 45t-107.5 77t-46.5 105.5q-3 74 48.5 155t137.5 152t191 132t215 103q199 74 374 59
q128 -13 221 -81t97 -170q2 -66 -122 -177t-255 -168q-8 -4 -15 3q-3 3 1 7q97 93 178 221t79 196q-3 80 -110 80q-151 0 -344 -92q-129 -60 -241.5 -141t-187.5 -174.5t-75 -170.5q0 -21 14 -42t45 -43t93 -39.5t147 -26.5q16 3 84 23.5t135.5 36.5t105.5 16q44 0 44 -18
q2 -38 -48.5 -96t-118.5 -58q-56 0 -136 18.5t-94 19.5q-409 -111 -660.5 -309.5t-251.5 -393.5q0 -73 49.5 -118.5t161.5 -45.5q140 0 308 55t324 140.5t324.5 203.5t302.5 229t266 232q18 16 16 0q-1 -11 -7 -18q-55 -63 -140.5 -150.5t-203.5 -199t-249.5 -217.5
t-262 -197t-259 -148t-224.5 -60zM1446 1648q-6 6 -9 12q-7 14 -7.5 46t6 67.5t23 67t39.5 42.5l6 1l-1 -1q-17 -21 1 -56q37 -73 121 -137t177 -107q5 -2 7 -9t0.5 -12.5t-5.5 -5.5q-62 0 -178.5 24.5t-179.5 67.5z" />
    <glyph glyph-name="Eacute" unicode="&#xc9;" horiz-adv-x="1767" 
d="M518 -395q-65 -2 -143.5 13t-158.5 49.5t-146.5 81.5t-110 115.5t-46.5 144.5q-3 85 51.5 169t145.5 151t205.5 125.5t231 97t221 60t177.5 20.5q-45 1 -106 17.5t-124 45t-107.5 77t-46.5 105.5q-3 74 48.5 155t137.5 152t191 132t215 103q199 74 374 59
q128 -13 221 -81t97 -170q2 -66 -122 -177t-255 -168q-8 -4 -15 3q-3 3 1 7q97 93 178 221t79 196q-3 80 -110 80q-151 0 -344 -92q-129 -60 -241.5 -141t-187.5 -174.5t-75 -170.5q0 -21 14 -42t45 -43t93 -39.5t147 -26.5q16 3 84 23.5t135.5 36.5t105.5 16q44 0 44 -18
q2 -38 -48.5 -96t-118.5 -58q-56 0 -136 18.5t-94 19.5q-409 -111 -660.5 -309.5t-251.5 -393.5q0 -73 49.5 -118.5t161.5 -45.5q140 0 308 55t324 140.5t324.5 203.5t302.5 229t266 232q18 16 16 0q-1 -11 -7 -18q-55 -63 -140.5 -150.5t-203.5 -199t-249.5 -217.5
t-262 -197t-259 -148t-224.5 -60zM1694 1662q-85 -45 -218.5 -72t-201.5 -29q-4 0 -4.5 9t3 19.5t9.5 12.5q99 33 217 105.5t185 148.5q29 32 16 57q-2 1 1 1t5 -1q46 -24 46 -97q0 -28 -17 -85t-41 -69z" />
    <glyph glyph-name="Ecircumflex" unicode="&#xca;" horiz-adv-x="1767" 
d="M518 -395q-65 -2 -143.5 13t-158.5 49.5t-146.5 81.5t-110 115.5t-46.5 144.5q-3 85 51.5 169t145.5 151t205.5 125.5t231 97t221 60t177.5 20.5q-45 1 -106 17.5t-124 45t-107.5 77t-46.5 105.5q-3 74 48.5 155t137.5 152t191 132t215 103q199 74 374 59
q128 -13 221 -81t97 -170q2 -66 -122 -177t-255 -168q-8 -4 -15 3q-3 3 1 7q97 93 178 221t79 196q-3 80 -110 80q-151 0 -344 -92q-129 -60 -241.5 -141t-187.5 -174.5t-75 -170.5q0 -21 14 -42t45 -43t93 -39.5t147 -26.5q16 3 84 23.5t135.5 36.5t105.5 16q44 0 44 -18
q2 -38 -48.5 -96t-118.5 -58q-56 0 -136 18.5t-94 19.5q-409 -111 -660.5 -309.5t-251.5 -393.5q0 -73 49.5 -118.5t161.5 -45.5q140 0 308 55t324 140.5t324.5 203.5t302.5 229t266 232q18 16 16 0q-1 -11 -7 -18q-55 -63 -140.5 -150.5t-203.5 -199t-249.5 -217.5
t-262 -197t-259 -148t-224.5 -60zM1683 1774q8 -38 14.5 -60.5t32 -68t66.5 -89.5q17 -17 4 -20q-9 -2 -25 6q-107 59 -149 122q-123 -48 -348 -73q-14 -1 -18.5 4.5t-1.5 11.5t7 8q70 31 165.5 89.5t160.5 107.5q10 7 49 -8t43 -30z" />
    <glyph glyph-name="Edieresis" unicode="&#xcb;" horiz-adv-x="1767" 
d="M518 -395q-65 -2 -143.5 13t-158.5 49.5t-146.5 81.5t-110 115.5t-46.5 144.5q-3 85 51.5 169t145.5 151t205.5 125.5t231 97t221 60t177.5 20.5q-45 1 -106 17.5t-124 45t-107.5 77t-46.5 105.5q-3 74 48.5 155t137.5 152t191 132t215 103q199 74 374 59
q128 -13 221 -81t97 -170q2 -66 -122 -177t-255 -168q-8 -4 -15 3q-3 3 1 7q97 93 178 221t79 196q-3 80 -110 80q-151 0 -344 -92q-129 -60 -241.5 -141t-187.5 -174.5t-75 -170.5q0 -21 14 -42t45 -43t93 -39.5t147 -26.5q16 3 84 23.5t135.5 36.5t105.5 16q44 0 44 -18
q2 -38 -48.5 -96t-118.5 -58q-56 0 -136 18.5t-94 19.5q-409 -111 -660.5 -309.5t-251.5 -393.5q0 -73 49.5 -118.5t161.5 -45.5q140 0 308 55t324 140.5t324.5 203.5t302.5 229t266 232q18 16 16 0q-1 -11 -7 -18q-55 -63 -140.5 -150.5t-203.5 -199t-249.5 -217.5
t-262 -197t-259 -148t-224.5 -60zM1585 1731q-38 -6 -91 -71t-62 -94q-9 -14 -32 -3.5t-49 34t-28 38.5q-6 36 32 90.5t74 64.5q41 11 91.5 -10.5t64.5 -48.5zM1853 1733q-38 -6 -91 -71t-62 -94q-6 -24 -55 9q-43 29 -53 54l-1 4q-6 37 30 88.5t74 61.5q43 10 94 -9t64 -43
z" />
    <glyph glyph-name="Igrave" unicode="&#xcc;" horiz-adv-x="1691" 
d="M165 -55q129 26 339.5 47t365.5 25q56 107 161 260.5t209.5 294.5t202.5 277t159.5 244t61.5 161q0 41 -14.5 69t-41 42.5t-49 20.5t-53.5 10q-117 14 -273.5 -33t-304 -133.5t-275 -188.5t-205.5 -207.5t-78 -181.5q0 -41 49 -41q141 0 357 103t467 316q17 15 17 6
q0 -7 -12 -26q-72 -107 -199 -227.5t-263 -205.5t-217 -85q-70 0 -130.5 30.5t-97.5 76t-58 93.5t-21 88q0 78 49.5 165t132.5 167t197 152.5t237.5 124.5t260 80t258.5 21q106 -6 201 -54t156.5 -135t61.5 -192q0 -48 -82 -177.5t-189 -271.5t-244.5 -331t-215.5 -313
q237 -6 477 -57.5t410 -122.5q4 -4 -4 -6q-4 -1 -11 0q-447 73 -793 69q-63 0 -140 -5q-35 -60 -59 -124.5t-24 -90.5q0 -8 33 5t82.5 42t90.5 60q7 5 10 2t-1 -10q-20 -47 -67.5 -112.5t-81.5 -78.5q-10 -4 -47.5 8t-58.5 27q-47 32 -78 75.5t-31 78.5q0 39 24 104
q-152 -14 -371.5 -53.5t-342.5 -73.5q-313 -83 -343 -147q-14 -30 28 -49.5t131 -35.5q141 -26 202 -28q12 0 4 -5q-145 -39 -256.5 -41t-149.5 33q-38 40 -28 125t53 146q89 128 422 194zM1412 1631q-8 8 -10 12q-7 14 -7.5 46t6 67t23.5 66.5t40 42.5q4 2 4 0
q-16 -19 2 -55q37 -73 121 -137t177 -107q5 -2 7 -9t0 -12.5t-6 -5.5q-62 0 -178 24.5t-179 67.5z" />
    <glyph glyph-name="Iacute" unicode="&#xcd;" horiz-adv-x="1691" 
d="M165 -55q129 26 339.5 47t365.5 25q56 107 161 260.5t209.5 294.5t202.5 277t159.5 244t61.5 161q0 41 -14.5 69t-41 42.5t-49 20.5t-53.5 10q-117 14 -273.5 -33t-304 -133.5t-275 -188.5t-205.5 -207.5t-78 -181.5q0 -41 49 -41q141 0 357 103t467 316q17 15 17 6
q0 -7 -12 -26q-72 -107 -199 -227.5t-263 -205.5t-217 -85q-70 0 -130.5 30.5t-97.5 76t-58 93.5t-21 88q0 78 49.5 165t132.5 167t197 152.5t237.5 124.5t260 80t258.5 21q106 -6 201 -54t156.5 -135t61.5 -192q0 -48 -82 -177.5t-189 -271.5t-244.5 -331t-215.5 -313
q237 -6 477 -57.5t410 -122.5q4 -4 -4 -6q-4 -1 -11 0q-447 73 -793 69q-63 0 -140 -5q-35 -60 -59 -124.5t-24 -90.5q0 -8 33 5t82.5 42t90.5 60q7 5 10 2t-1 -10q-20 -47 -67.5 -112.5t-81.5 -78.5q-10 -4 -47.5 8t-58.5 27q-47 32 -78 75.5t-31 78.5q0 39 24 104
q-152 -14 -371.5 -53.5t-342.5 -73.5q-313 -83 -343 -147q-14 -30 28 -49.5t131 -35.5q141 -26 202 -28q12 0 4 -5q-145 -39 -256.5 -41t-149.5 33q-38 40 -28 125t53 146q89 128 422 194zM1648 1667q-85 -45 -218 -72t-201 -29q-4 0 -4.5 9t3 19.5t9.5 12.5
q99 33 216.5 105.5t184.5 148.5q29 32 16 56q-2 1 1 1t5 -1q46 -24 46 -96q0 -28 -17 -85t-41 -69z" />
    <glyph glyph-name="Icircumflex" unicode="&#xce;" horiz-adv-x="1691" 
d="M165 -55q129 26 339.5 47t365.5 25q56 107 161 260.5t209.5 294.5t202.5 277t159.5 244t61.5 161q0 41 -14.5 69t-41 42.5t-49 20.5t-53.5 10q-117 14 -273.5 -33t-304 -133.5t-275 -188.5t-205.5 -207.5t-78 -181.5q0 -41 49 -41q141 0 357 103t467 316q17 15 17 6
q0 -7 -12 -26q-72 -107 -199 -227.5t-263 -205.5t-217 -85q-70 0 -130.5 30.5t-97.5 76t-58 93.5t-21 88q0 78 49.5 165t132.5 167t197 152.5t237.5 124.5t260 80t258.5 21q106 -6 201 -54t156.5 -135t61.5 -192q0 -48 -82 -177.5t-189 -271.5t-244.5 -331t-215.5 -313
q237 -6 477 -57.5t410 -122.5q4 -4 -4 -6q-4 -1 -11 0q-447 73 -793 69q-63 0 -140 -5q-35 -60 -59 -124.5t-24 -90.5q0 -8 33 5t82.5 42t90.5 60q7 5 10 2t-1 -10q-20 -47 -67.5 -112.5t-81.5 -78.5q-10 -4 -47.5 8t-58.5 27q-47 32 -78 75.5t-31 78.5q0 39 24 104
q-152 -14 -371.5 -53.5t-342.5 -73.5q-313 -83 -343 -147q-14 -30 28 -49.5t131 -35.5q141 -26 202 -28q12 0 4 -5q-145 -39 -256.5 -41t-149.5 33q-38 40 -28 125t53 146q89 128 422 194zM1608 1777q8 -36 15 -60t32.5 -68.5t66.5 -88.5q17 -17 4 -21q-9 -2 -25 6
q-107 59 -149 122q-123 -48 -348 -73q-14 -1 -18.5 4.5t-1.5 11.5t7 8q70 31 165.5 89.5t160.5 107.5q10 7 48.5 -8t42.5 -30z" />
    <glyph glyph-name="Idieresis" unicode="&#xcf;" horiz-adv-x="1691" 
d="M165 -55q129 26 339.5 47t365.5 25q56 107 161 260.5t209.5 294.5t202.5 277t159.5 244t61.5 161q0 41 -14.5 69t-41 42.5t-49 20.5t-53.5 10q-117 14 -273.5 -33t-304 -133.5t-275 -188.5t-205.5 -207.5t-78 -181.5q0 -41 49 -41q141 0 357 103t467 316q17 15 17 6
q0 -7 -12 -26q-72 -107 -199 -227.5t-263 -205.5t-217 -85q-70 0 -130.5 30.5t-97.5 76t-58 93.5t-21 88q0 78 49.5 165t132.5 167t197 152.5t237.5 124.5t260 80t258.5 21q106 -6 201 -54t156.5 -135t61.5 -192q0 -48 -82 -177.5t-189 -271.5t-244.5 -331t-215.5 -313
q237 -6 477 -57.5t410 -122.5q4 -4 -4 -6q-4 -1 -11 0q-447 73 -793 69q-63 0 -140 -5q-35 -60 -59 -124.5t-24 -90.5q0 -8 33 5t82.5 42t90.5 60q7 5 10 2t-1 -10q-20 -47 -67.5 -112.5t-81.5 -78.5q-10 -4 -47.5 8t-58.5 27q-47 32 -78 75.5t-31 78.5q0 39 24 104
q-152 -14 -371.5 -53.5t-342.5 -73.5q-313 -83 -343 -147q-14 -30 28 -49.5t131 -35.5q141 -26 202 -28q12 0 4 -5q-145 -39 -256.5 -41t-149.5 33q-38 40 -28 125t53 146q89 128 422 194zM1523 1739q-38 -6 -90.5 -71t-61.5 -94q-9 -14 -32 -3.5t-49 34t-28 38.5
q-6 36 31.5 90.5t73.5 64.5q41 11 91.5 -10.5t64.5 -48.5zM1791 1741q-38 -6 -91 -71.5t-62 -94.5q-6 -25 -55 10q-43 30 -52 55q-1 1 -1 3q-6 37 30 88.5t74 61.5q42 10 93 -9t64 -43z" />
    <glyph glyph-name="Eth" unicode="&#xd0;" horiz-adv-x="2122" 
d="M1927 455q-116 -200 -360 -381.5t-540 -300t-578 -150.5q-36 -77 -36 -130q0 -23 8 -37q1 -10 -35 10t-75 60.5t-45 82.5q-58 1 -137.5 23.5t-159.5 61t-140.5 99t-71.5 128.5q-20 123 124 241.5t396.5 205t563.5 130.5q72 94 158 200q-136 -24 -233.5 -58.5
t-118.5 -73.5q-12 -27 -23 -11q-9 16 7 71.5t59 110.5q31 39 151 57t251 20l55 68q143 179 178 234q39 61 42 97q3 35 -14 44q-3 3 4 4t12 -1q27 -6 57 -31q46 -39 78.5 -84.5t28.5 -65.5q-6 -27 -211 -277q50 -5 95 -11.5t78 -13.5t56.5 -14t34 -13t7.5 -10q-2 -4 -8 -4
q-109 7 -326 -10l-169 -200q288 22 654 -6q140 192 151 380q4 80 -21.5 147.5t-74 114t-109 82.5t-132.5 57.5t-137.5 33t-131.5 15.5q-176 10 -361.5 -36t-318 -116t-217.5 -146.5t-85 -128.5q0 -67 199 -112q9 -2 10 -7t-6 -7q-4 -1 -9 0q-131 6 -222 46q-39 17 -74 55.5
t-35 89.5q0 68 55 142.5t157.5 140t233.5 116t298.5 74.5t336.5 12q109 -8 216.5 -40t207 -92.5t176 -141.5t122 -194.5t45.5 -242.5q0 -133 -72 -274q160 -22 225 -47q36 -14 13 -14q-8 0 -24 2q-94 15 -233 26zM1711 476q-378 10 -696 -41q-280 -337 -460 -626
q352 86 662.5 262.5t493.5 404.5zM76 -249q136 0 249 17q24 41 60 95.5t59.5 89t68.5 98.5t53 75q123 171 189 258q-247 -55 -466 -156.5t-332.5 -211t-74.5 -186.5q23 -44 84.5 -61.5t109.5 -17.5z" />
    <glyph glyph-name="Ntilde" unicode="&#xd1;" horiz-adv-x="2367" 
d="M1438 989q136 204 136 276q0 42 -15 71t-42 43.5t-50 20.5t-54 10q-153 20 -342.5 -44t-372.5 -183q-196 -128 -328 -273.5t-131 -235.5q0 -33 21.5 -52t56.5 -19q116 2 374 138.5t446 293.5q18 16 18 5q0 -9 -14 -27q-165 -210 -381 -364t-347 -154q-113 0 -200 88.5
t-87 193.5q0 83 51 175t137 174.5t203 157.5t244.5 127.5t267.5 81t266 21.5q107 -5 204 -61.5t157 -148t60 -192.5q0 -17 -8 -41t-25 -54.5t-33 -57.5t-41.5 -63.5t-40 -58t-39.5 -55.5t-31 -42q112 106 280.5 238.5t315.5 228.5q220 145 288 145q34 0 70.5 -23t61.5 -55
q77 -103 52 -121q-73 -54 -163 -165.5t-224 -302.5q-50 -73 -116 -181.5t-141 -247.5t-123 -271t-42 -207q4 -54 38 -88.5t91 -34.5q109 1 285.5 94.5t305.5 204.5q8 6 14 5.5t-2 -13.5q-80 -123 -176.5 -209.5t-178 -123.5t-149.5 -37q-90 0 -181.5 51t-149 128t-57.5 149
q0 102 61.5 258.5t155 316t201.5 317.5t202.5 276.5t156.5 179.5q29 29 9 28q-4 0 -7 -1q-181 -74 -397 -227q-317 -224 -634 -572q-157 -171 -281.5 -342.5t-162.5 -272.5q-19 -54 -17.5 -86t19.5 -36q16 -4 3.5 -11.5t-29.5 -5.5q-13 1 -50 31.5t-69 73t-27 70.5
q23 134 331 567q10 15 160.5 220t215.5 301zM2078 1408q-30 0 -69 25t-75.5 50t-61.5 25q-28 0 -63.5 -14.5t-55.5 -37.5q-2 -2 -5 -2t-5.5 1t-1.5 4q10 49 77 113.5t135 64.5q29 0 95 -52t101 -52q51 0 101.5 29.5t90.5 86.5q2 4 8 4t5 -8q-13 -75 -107 -156t-169 -81z" />
    <glyph glyph-name="Ograve" unicode="&#xd2;" horiz-adv-x="2060" 
d="M153 25q0 58 23 148q-52 43 -85.5 101.5t-33.5 119.5q0 167 133.5 372.5t349.5 372.5q206 160 442 256.5t477 96.5q110 0 216 -38t190 -105t136 -169t52 -221q0 -121 -60.5 -271.5t-162 -300t-242.5 -293t-293.5 -253t-323.5 -176.5t-325 -67q-56 0 -120 16t-130.5 50.5
t-120.5 83t-88 121t-34 156.5zM736 728q-138 -124 -242 -279.5t-152 -317.5q24 -3 31 -3q68 0 203 44t303 122t365 206t360 274q9 9 7 -1q-2 -8 -6 -15q-163 -198 -387.5 -364.5t-428.5 -255.5t-340 -89q-50 0 -124 30q-24 -93 -24 -167q0 -91 59.5 -149t170.5 -58
q134 0 292.5 66t308 175t291 254t246.5 297t168.5 310t63.5 288q0 151 -102 226t-257 73q-237 -4 -472.5 -106.5t-431.5 -274.5q-194 -169 -320.5 -371t-126.5 -343q0 -37 4 -60q59 164 201.5 356.5t298.5 319.5q41 34 91 70.5t116 77.5t132.5 72.5t140 57.5t139 32.5
t129.5 -4.5q82 -17 134 -79q26 -30 42 -70t18 -61q2 -16 -4 -16q-3 0 -7 7q-19 33 -62.5 61.5t-109.5 28.5q-159 0 -347.5 -100t-370.5 -264zM1506 1621q-5 5 -9 13q-7 14 -7.5 46t6 67t23 66.5t39.5 42.5l6 1l-1 -1q-16 -20 1 -55q37 -73 121 -138t177 -107q5 -2 7 -8.5
t0.5 -12t-5.5 -5.5q-63 0 -179.5 24t-178.5 67z" />
    <glyph glyph-name="Oacute" unicode="&#xd3;" horiz-adv-x="2060" 
d="M153 25q0 58 23 148q-52 43 -85.5 101.5t-33.5 119.5q0 167 133.5 372.5t349.5 372.5q206 160 442 256.5t477 96.5q110 0 216 -38t190 -105t136 -169t52 -221q0 -121 -60.5 -271.5t-162 -300t-242.5 -293t-293.5 -253t-323.5 -176.5t-325 -67q-56 0 -120 16t-130.5 50.5
t-120.5 83t-88 121t-34 156.5zM736 728q-138 -124 -242 -279.5t-152 -317.5q24 -3 31 -3q68 0 203 44t303 122t365 206t360 274q9 9 7 -1q-2 -8 -6 -15q-163 -198 -387.5 -364.5t-428.5 -255.5t-340 -89q-50 0 -124 30q-24 -93 -24 -167q0 -91 59.5 -149t170.5 -58
q134 0 292.5 66t308 175t291 254t246.5 297t168.5 310t63.5 288q0 151 -102 226t-257 73q-237 -4 -472.5 -106.5t-431.5 -274.5q-194 -169 -320.5 -371t-126.5 -343q0 -37 4 -60q59 164 201.5 356.5t298.5 319.5q41 34 91 70.5t116 77.5t132.5 72.5t140 57.5t139 32.5
t129.5 -4.5q82 -17 134 -79q26 -30 42 -70t18 -61q2 -16 -4 -16q-3 0 -7 7q-19 33 -62.5 61.5t-109.5 28.5q-159 0 -347.5 -100t-370.5 -264zM1779 1651q-85 -45 -218 -72t-201 -29q-4 0 -5 9t2.5 19.5t9.5 12.5q99 33 217 105.5t185 148.5q29 32 16 56q-1 1 1.5 1t4.5 -1
q46 -24 46 -96q0 -28 -17 -85t-41 -69z" />
    <glyph glyph-name="Ocircumflex" unicode="&#xd4;" horiz-adv-x="2060" 
d="M153 25q0 58 23 148q-52 43 -85.5 101.5t-33.5 119.5q0 167 133.5 372.5t349.5 372.5q206 160 442 256.5t477 96.5q110 0 216 -38t190 -105t136 -169t52 -221q0 -121 -60.5 -271.5t-162 -300t-242.5 -293t-293.5 -253t-323.5 -176.5t-325 -67q-56 0 -120 16t-130.5 50.5
t-120.5 83t-88 121t-34 156.5zM736 728q-138 -124 -242 -279.5t-152 -317.5q24 -3 31 -3q68 0 203 44t303 122t365 206t360 274q9 9 7 -1q-2 -8 -6 -15q-163 -198 -387.5 -364.5t-428.5 -255.5t-340 -89q-50 0 -124 30q-24 -93 -24 -167q0 -91 59.5 -149t170.5 -58
q134 0 292.5 66t308 175t291 254t246.5 297t168.5 310t63.5 288q0 151 -102 226t-257 73q-237 -4 -472.5 -106.5t-431.5 -274.5q-194 -169 -320.5 -371t-126.5 -343q0 -37 4 -60q59 164 201.5 356.5t298.5 319.5q41 34 91 70.5t116 77.5t132.5 72.5t140 57.5t139 32.5
t129.5 -4.5q82 -17 134 -79q26 -30 42 -70t18 -61q2 -16 -4 -16q-3 0 -7 7q-19 33 -62.5 61.5t-109.5 28.5q-159 0 -347.5 -100t-370.5 -264zM1790 1755q6 -37 11.5 -60.5t29 -69.5t61.5 -92q16 -16 5 -20q-9 -2 -25 7q-108 68 -144 128q-116 -38 -351 -55q-14 -1 -18.5 4.5
t-1.5 11t7 7.5q70 27 167 80.5t169 101.5q10 7 48 -10t42 -33z" />
    <glyph glyph-name="Otilde" unicode="&#xd5;" horiz-adv-x="2060" 
d="M153 25q0 58 23 148q-52 43 -85.5 101.5t-33.5 119.5q0 167 133.5 372.5t349.5 372.5q206 160 442 256.5t477 96.5q110 0 216 -38t190 -105t136 -169t52 -221q0 -121 -60.5 -271.5t-162 -300t-242.5 -293t-293.5 -253t-323.5 -176.5t-325 -67q-56 0 -120 16t-130.5 50.5
t-120.5 83t-88 121t-34 156.5zM736 728q-138 -124 -242 -279.5t-152 -317.5q24 -3 31 -3q68 0 203 44t303 122t365 206t360 274q9 9 7 -1q-2 -8 -6 -15q-163 -198 -387.5 -364.5t-428.5 -255.5t-340 -89q-50 0 -124 30q-24 -93 -24 -167q0 -91 59.5 -149t170.5 -58
q134 0 292.5 66t308 175t291 254t246.5 297t168.5 310t63.5 288q0 151 -102 226t-257 73q-237 -4 -472.5 -106.5t-431.5 -274.5q-194 -169 -320.5 -371t-126.5 -343q0 -37 4 -60q59 164 201.5 356.5t298.5 319.5q41 34 91 70.5t116 77.5t132.5 72.5t140 57.5t139 32.5
t129.5 -4.5q82 -17 134 -79q26 -30 42 -70t18 -61q2 -16 -4 -16q-3 0 -7 7q-19 33 -62.5 61.5t-109.5 28.5q-159 0 -347.5 -100t-370.5 -264zM1683 1560q-37 0 -107.5 49.5t-99.5 49.5q-28 0 -63 -14.5t-55 -37.5q-2 -2 -5.5 -2t-6 1t-1.5 4q10 49 77.5 113.5t135.5 64.5
q29 0 94.5 -52t100.5 -52q51 0 102 30t91 87q2 4 7.5 3.5t4.5 -8.5q-13 -75 -106.5 -155.5t-168.5 -80.5z" />
    <glyph glyph-name="Odieresis" unicode="&#xd6;" horiz-adv-x="2060" 
d="M153 25q0 58 23 148q-52 43 -85.5 101.5t-33.5 119.5q0 167 133.5 372.5t349.5 372.5q206 160 442 256.5t477 96.5q110 0 216 -38t190 -105t136 -169t52 -221q0 -121 -60.5 -271.5t-162 -300t-242.5 -293t-293.5 -253t-323.5 -176.5t-325 -67q-56 0 -120 16t-130.5 50.5
t-120.5 83t-88 121t-34 156.5zM736 728q-138 -124 -242 -279.5t-152 -317.5q24 -3 31 -3q68 0 203 44t303 122t365 206t360 274q9 9 7 -1q-2 -8 -6 -15q-163 -198 -387.5 -364.5t-428.5 -255.5t-340 -89q-50 0 -124 30q-24 -93 -24 -167q0 -91 59.5 -149t170.5 -58
q134 0 292.5 66t308 175t291 254t246.5 297t168.5 310t63.5 288q0 151 -102 226t-257 73q-237 -4 -472.5 -106.5t-431.5 -274.5q-194 -169 -320.5 -371t-126.5 -343q0 -37 4 -60q59 164 201.5 356.5t298.5 319.5q41 34 91 70.5t116 77.5t132.5 72.5t140 57.5t139 32.5
t129.5 -4.5q82 -17 134 -79q26 -30 42 -70t18 -61q2 -16 -4 -16q-3 0 -7 7q-19 33 -62.5 61.5t-109.5 28.5q-159 0 -347.5 -100t-370.5 -264zM1631 1723q-38 -6 -91 -71t-62 -94q-9 -14 -32 -3.5t-49 34t-28 38.5q-6 36 32 90.5t74 64.5q41 11 91.5 -10.5t64.5 -48.5z
M1898 1725q-38 -6 -90.5 -71t-61.5 -94q-6 -24 -55 9q-43 29 -53 54l-1 4q-6 37 30 88.5t74 61.5q42 10 93 -9t64 -43z" />
    <glyph glyph-name="multiply" unicode="&#xd7;" horiz-adv-x="1276" 
d="M739 208q-31 34 -95 121t-119 177q-129 -109 -215.5 -200t-96.5 -134q-2 -13 -20 13q-24 35 -34 81q-7 35 -0.5 71.5t24.5 54.5q96 93 302 227q-64 116 -79 199q-4 20 18 49t56 50q59 38 110 44q16 0 15 -6q-43 -71 11 -271q134 83 273.5 158.5t183.5 91.5q2 1 3 -3
q8 -16 2 -30q-2 -4 -4 -5q-78 -46 -215 -148t-223 -176q1 -3 19 -62t28 -86.5t34.5 -84t52.5 -106.5q2 -4 -4.5 -11.5t-15.5 -12.5t-11 -1z" />
    <glyph glyph-name="Oslash" unicode="&#xd8;" horiz-adv-x="2063" 
d="M154 25q0 54 24 148q-52 44 -86 102.5t-34 118.5q0 167 134 372.5t350 372.5q206 160 441.5 256.5t476.5 96.5q113 0 222.5 -40t193.5 -113q128 181 140 252q5 29 -17 38l8 2h2q27 0 61 -30q71 -60 71 -93q0 -15 -27 -67.5t-50 -88.5q-53 -83 -87 -128q77 -119 77 -265
q0 -121 -60.5 -271.5t-162 -300t-242.5 -293t-293.5 -253t-323.5 -176.5t-325 -67h-12q-134 -186 -134 -250q0 -10 4.5 -17t4.5 -8q0 -11 -20 -11q-16 0 -46 27t-30 53q0 67 103 227q-67 18 -129 51.5t-116 82.5t-86 119.5t-32 152.5zM737 728q-138 -124 -242 -279.5
t-152 -317.5q24 -3 32 -3q99 0 321.5 86t461.5 230q383 462 465 564q-56 84 -167 84q-159 0 -348 -100t-371 -264zM1901 1120q-171 -225 -597.5 -717.5t-559.5 -660.5q155 50 322.5 160t314.5 255.5t265.5 306.5t187.5 327.5t69 303.5q0 17 -2 25zM1637 1024
q105 131 201 262q-95 111 -294 108q-237 -4 -472.5 -106.5t-431.5 -274.5q-194 -170 -321 -371.5t-127 -342.5q0 -32 5 -60q59 165 201 357t298 319q41 34 91 70.5t116 77.5t132.5 72.5t140 57.5t139.5 32.5t130 -4.5q82 -17 134 -79q43 -51 58 -118zM575 -293
q135 192 416 534q-158 -91 -300 -141.5t-240 -50.5q-51 0 -125 30q-24 -93 -24 -167q0 -91 59.5 -149t170.5 -58q7 0 21.5 1t21.5 1z" />
    <glyph glyph-name="Ugrave" unicode="&#xd9;" horiz-adv-x="2329" 
d="M1649 1145q0 -67 -42 -137.5t-129 -175.5q-49 -60 -154.5 -185t-174 -206.5t-159 -196.5t-143.5 -193t-91.5 -154.5t-37.5 -120.5q0 -63 71 -63q62 0 233 133t361 312.5t396 391.5q262 269 510 573q55 67 90.5 140t33.5 117q0 33 -23 46q3 1 9 1q31 0 69.5 -23t69.5 -60
q23 -27 36 -56t13 -47q0 -6 -5 -14q-119 -171 -246.5 -333t-137.5 -176q-70 -99 -139 -208t-147 -247t-122.5 -264t-36.5 -205q8 -87 90 -114q59 -20 177.5 19.5t241.5 112.5t207 150q10 10 16 6q4 -3 -4 -14q-134 -192 -265 -279.5t-239 -87.5q-96 0 -187 52t-145 128.5
t-54 150.5q0 135 101 340t227 377q-161 -209 -369 -443t-390.5 -405t-239.5 -171q-97 0 -187.5 41t-143.5 112t-41 148q10 59 64 149t147 207t177 215t206.5 237.5t183.5 211.5q3 4 19.5 23.5t25.5 31l27 34.5t30 38.5t28 37.5t26.5 39t20 34.5t14.5 31t5 23.5
q0 152 -235 152q-127 0 -281.5 -52.5t-293.5 -138t-257 -184.5t-188 -201t-70 -179q0 -20 11.5 -33.5t38.5 -13.5q133 0 391 127t447 289q19 17 19 6q0 -10 -14 -28q-179 -227 -384 -366t-341 -139q-74 0 -145.5 48.5t-113 113.5t-41.5 117q0 95 71 203t192.5 203.5
t269.5 172t317.5 118t319.5 33.5q92 -4 188.5 -53t161 -126t64.5 -154zM1799 1448q-6 6 -9 12q-7 14 -7.5 46t6 67.5t23 67t39.5 42.5l6 1l-1 -1q-17 -21 1 -56q37 -73 121 -137t177 -107q5 -2 7 -9t0.5 -12.5t-5.5 -5.5q-62 0 -178.5 24.5t-179.5 67.5z" />
    <glyph glyph-name="Uacute" unicode="&#xda;" horiz-adv-x="2329" 
d="M1649 1145q0 -67 -42 -137.5t-129 -175.5q-49 -60 -154.5 -185t-174 -206.5t-159 -196.5t-143.5 -193t-91.5 -154.5t-37.5 -120.5q0 -63 71 -63q62 0 233 133t361 312.5t396 391.5q262 269 510 573q55 67 90.5 140t33.5 117q0 33 -23 46q3 1 9 1q31 0 69.5 -23t69.5 -60
q23 -27 36 -56t13 -47q0 -6 -5 -14q-119 -171 -246.5 -333t-137.5 -176q-70 -99 -139 -208t-147 -247t-122.5 -264t-36.5 -205q8 -87 90 -114q59 -20 177.5 19.5t241.5 112.5t207 150q10 10 16 6q4 -3 -4 -14q-134 -192 -265 -279.5t-239 -87.5q-96 0 -187 52t-145 128.5
t-54 150.5q0 135 101 340t227 377q-161 -209 -369 -443t-390.5 -405t-239.5 -171q-97 0 -187.5 41t-143.5 112t-41 148q10 59 64 149t147 207t177 215t206.5 237.5t183.5 211.5q3 4 19.5 23.5t25.5 31l27 34.5t30 38.5t28 37.5t26.5 39t20 34.5t14.5 31t5 23.5
q0 152 -235 152q-127 0 -281.5 -52.5t-293.5 -138t-257 -184.5t-188 -201t-70 -179q0 -20 11.5 -33.5t38.5 -13.5q133 0 391 127t447 289q19 17 19 6q0 -10 -14 -28q-179 -227 -384 -366t-341 -139q-74 0 -145.5 48.5t-113 113.5t-41.5 117q0 95 71 203t192.5 203.5
t269.5 172t317.5 118t319.5 33.5q92 -4 188.5 -53t161 -126t64.5 -154zM2176 1437q-85 -45 -218 -72t-201 -29q-4 0 -5 9t2.5 19.5t9.5 12.5q99 33 217 105.5t185 148.5q29 32 16 56q-2 1 1 1t5 -1q46 -24 46 -96q0 -28 -17 -85t-41 -69z" />
    <glyph glyph-name="Ucircumflex" unicode="&#xdb;" horiz-adv-x="2329" 
d="M1649 1145q0 -67 -42 -137.5t-129 -175.5q-49 -60 -154.5 -185t-174 -206.5t-159 -196.5t-143.5 -193t-91.5 -154.5t-37.5 -120.5q0 -63 71 -63q62 0 233 133t361 312.5t396 391.5q262 269 510 573q55 67 90.5 140t33.5 117q0 33 -23 46q3 1 9 1q31 0 69.5 -23t69.5 -60
q23 -27 36 -56t13 -47q0 -6 -5 -14q-119 -171 -246.5 -333t-137.5 -176q-70 -99 -139 -208t-147 -247t-122.5 -264t-36.5 -205q8 -87 90 -114q59 -20 177.5 19.5t241.5 112.5t207 150q10 10 16 6q4 -3 -4 -14q-134 -192 -265 -279.5t-239 -87.5q-96 0 -187 52t-145 128.5
t-54 150.5q0 135 101 340t227 377q-161 -209 -369 -443t-390.5 -405t-239.5 -171q-97 0 -187.5 41t-143.5 112t-41 148q10 59 64 149t147 207t177 215t206.5 237.5t183.5 211.5q3 4 19.5 23.5t25.5 31l27 34.5t30 38.5t28 37.5t26.5 39t20 34.5t14.5 31t5 23.5
q0 152 -235 152q-127 0 -281.5 -52.5t-293.5 -138t-257 -184.5t-188 -201t-70 -179q0 -20 11.5 -33.5t38.5 -13.5q133 0 391 127t447 289q19 17 19 6q0 -10 -14 -28q-179 -227 -384 -366t-341 -139q-74 0 -145.5 48.5t-113 113.5t-41.5 117q0 95 71 203t192.5 203.5
t269.5 172t317.5 118t319.5 33.5q92 -4 188.5 -53t161 -126t64.5 -154zM2111 1631q8 -38 14.5 -60.5t32 -68t66.5 -89.5q18 -18 4 -20q-9 -2 -24 6q-110 61 -150 121q-119 -46 -348 -72q-14 -1 -18 4t-1 11t7 8q70 31 165.5 89.5t160.5 107.5q10 7 48.5 -8t42.5 -29z" />
    <glyph glyph-name="Udieresis" unicode="&#xdc;" horiz-adv-x="2329" 
d="M1649 1145q0 -67 -42 -137.5t-129 -175.5q-49 -60 -154.5 -185t-174 -206.5t-159 -196.5t-143.5 -193t-91.5 -154.5t-37.5 -120.5q0 -63 71 -63q62 0 233 133t361 312.5t396 391.5q262 269 510 573q55 67 90.5 140t33.5 117q0 33 -23 46q3 1 9 1q31 0 69.5 -23t69.5 -60
q23 -27 36 -56t13 -47q0 -6 -5 -14q-119 -171 -246.5 -333t-137.5 -176q-70 -99 -139 -208t-147 -247t-122.5 -264t-36.5 -205q8 -87 90 -114q59 -20 177.5 19.5t241.5 112.5t207 150q10 10 16 6q4 -3 -4 -14q-134 -192 -265 -279.5t-239 -87.5q-96 0 -187 52t-145 128.5
t-54 150.5q0 135 101 340t227 377q-161 -209 -369 -443t-390.5 -405t-239.5 -171q-97 0 -187.5 41t-143.5 112t-41 148q10 59 64 149t147 207t177 215t206.5 237.5t183.5 211.5q3 4 19.5 23.5t25.5 31l27 34.5t30 38.5t28 37.5t26.5 39t20 34.5t14.5 31t5 23.5
q0 152 -235 152q-127 0 -281.5 -52.5t-293.5 -138t-257 -184.5t-188 -201t-70 -179q0 -20 11.5 -33.5t38.5 -13.5q133 0 391 127t447 289q19 17 19 6q0 -10 -14 -28q-179 -227 -384 -366t-341 -139q-74 0 -145.5 48.5t-113 113.5t-41.5 117q0 95 71 203t192.5 203.5
t269.5 172t317.5 118t319.5 33.5q92 -4 188.5 -53t161 -126t64.5 -154zM1974 1558q-38 -6 -91 -71t-62 -94q-9 -14 -32 -3.5t-49 34t-28 38.5q-6 36 32 90t74 64q41 11 91.5 -10t64.5 -48zM2242 1560q-38 -6 -91 -71.5t-62 -94.5q-6 -24 -55 9q-43 30 -53 55l-1 4
q-6 37 30 88.5t74 61.5q43 10 94 -9t64 -43z" />
    <glyph glyph-name="Yacute" unicode="&#xdd;" horiz-adv-x="2128" 
d="M1520 217q229 306 504 807q4 8 6.5 12t5.5 10t6 11q-115 -174 -295.5 -378.5t-352.5 -350t-246 -145.5q-129 0 -220.5 63.5t-95.5 178.5q-1 31 21.5 77.5t73.5 113t90.5 114t112.5 130.5q12 14 54.5 60t74 83t68 86t57 94.5t20.5 81.5q0 37 -13.5 62.5t-38.5 38.5
t-45 18.5t-48 9.5q-85 12 -198.5 -15.5t-227 -81.5t-225 -127.5t-196.5 -150.5t-138 -154t-53 -134q0 -25 16.5 -41t44.5 -16q93 0 333.5 123.5t400.5 259.5q19 15 19 7q-1 -9 -14 -27q-140 -193 -332 -325t-316 -132q-65 0 -133 47t-108.5 108.5t-40.5 107.5q0 71 47 150.5
t126 152t187 138t224.5 112t243.5 71t240 17.5q148 -8 260 -111.5t112 -239.5q0 -15 -5.5 -34t-17.5 -42t-23.5 -43t-31.5 -48t-33.5 -46.5t-37.5 -48.5t-35.5 -43.5t-35.5 -42t-30 -35.5q-32 -39 -86.5 -101.5t-86 -99.5t-65.5 -82.5t-50 -80.5t-16 -63q0 -54 52 -54
q72 0 255 128.5t390.5 322t343.5 365.5q63 77 123 175t60 150q0 31 -21 41q3 2 8 2q30 0 70 -30q34 -25 63 -61.5t29 -66.5q0 -13 -3 -21q-267 -590 -561 -1009q126 16 260 20q7 0 11.5 -4t2 -9.5t-13.5 -8.5q-93 -8 -296 -42q-55 -85 -116.5 -172.5t-142.5 -190
t-163.5 -193.5t-177.5 -177.5t-185 -149t-186 -100t-182 -37.5q-78 0 -167 21t-168.5 58t-132 95.5t-52.5 125.5q0 84 77 172t206 166t305 150q69 28 149 54t179.5 51.5t166.5 41t189.5 43t170.5 38.5zM241 -591q9 -57 62.5 -86.5t118.5 -29.5q104 1 220 51t223.5 131.5
t221 195.5t209.5 232.5t191 252.5q-130 -34 -218 -60t-206.5 -67.5t-233 -96t-230.5 -124.5q-176 -107 -273 -213t-85 -186zM2020 1536q-85 -45 -218 -72t-201 -29q-4 0 -5 9t2.5 19.5t9.5 12.5q99 33 217 105.5t185 148.5q29 32 16 56q-2 2 1 1.5t5 -1.5q46 -24 46 -96
q0 -28 -17 -85t-41 -69z" />
    <glyph glyph-name="Thorn" unicode="&#xde;" horiz-adv-x="1918" 
d="M373 306q-51 0 -118 44.5t-115 106.5t-52 110q-6 78 60 161t187 155t273.5 128t335 85.5t356.5 22.5q16 19 43.5 51.5t41 48t35 41.5t32 40t25.5 35t22 34t14.5 28.5t10.5 28.5t3 25q0 20 -15 35q0 3 7 3q33 0 104 -65t71 -105q0 -30 -171 -223q63 -15 117 -38.5
t92 -50.5t69.5 -58t49.5 -61.5t32.5 -62t17.5 -58.5t5.5 -50.5t-3.5 -39.5q-25 -105 -144.5 -193.5t-276 -140t-320 -76t-286.5 -13.5q-143 -213 -229 -374t-86 -228q0 -20 6 -27q0 -3 -5 -3q-29 0 -98 45t-69 95q0 17 8 35q94 210 330 558.5t493 671.5q-140 -11 -290 -57.5
t-273 -111t-223 -136t-156 -138t-56 -111.5q0 -28 17.5 -47.5t42.5 -23.5q131 -16 432 165q18 10 17 -2q-1 -6 -9 -18q-53 -77 -159 -159t-196 -82zM1462 1018q-265 -309 -544 -714l67 6q136 15 306 91t301.5 182t157.5 197q8 30 10 55t-5.5 53.5t-26.5 50t-58 41t-95 30.5
q-64 11 -113 8z" />
    <glyph glyph-name="germandbls" unicode="&#xdf;" horiz-adv-x="1183" 
d="M1126 484q12 -2 11.5 -9t-12.5 -7q-119 5 -230 -3q20 -29 36 -71.5t16 -75.5q0 -117 -84 -226.5t-223 -198.5q-137 -87 -288 -143t-256 -56q-91 0 -175 54t-115 142q-131 -243 -131 -330q0 -29 13 -42q0 -3 -5 -3q-29 0 -94.5 51t-65.5 108q0 19 6 35q46 125 140.5 293.5
t209.5 338.5t208.5 300t183.5 248q186 242 325.5 362.5t217.5 120.5q45 0 91 -13.5t90.5 -40.5t72.5 -77t28 -115q0 -122 -139.5 -259t-349.5 -238q63 -5 135 -37.5t126 -92.5q111 2 258 -15zM838 424q0 19 -8 33q-184 -16 -401.5 -92.5t-354.5 -181.5q-68 -52 -141 -141
t-73 -140q0 -71 120 -71q99 2 220 44.5t231 110.5t203 145.5t148.5 156t55.5 136.5zM400 789q-184 -243 -348 -496q133 85 333 137t422 63q-37 39 -103 61.5t-131 26.5q-142 5 -201 -31q-2 3 -2 24.5t4 50t10 32.5q233 112 404 276.5t171 295.5q0 34 -16 48.5t-32 14.5
q-32 0 -92 -43t-171 -161.5t-248 -298.5z" />
    <glyph glyph-name="agrave" unicode="&#xe0;" 
d="M797 660q0 -16 -30.5 -38t-67.5 -39q25 -22 44.5 -55.5t17.5 -45.5q0 -4 -3 -8l-40 -44q-94 -107 -156 -201.5t-64 -119.5q0 -8 8 -8q26 0 189 134.5t318 285.5q5 5 12 4t9 -5.5t-1 -10.5q-68 -96 -272 -299.5t-271 -222.5q-2 -1 -8 -1q-52 0 -104 44q-32 27 -54 59.5
t-20 55.5q0 9 3 16q14 41 186 261q-122 -129 -203 -198q-139 -116 -224.5 -176.5t-125.5 -60.5q-41 0 -110 60t-69 117q0 74 96 201.5t234 242.5q121 101 240 165t200 64q112 0 189 -50.5t77 -126.5zM603 614q0 7 -6 11q10 3 35 -1.5t38 -15.5q19 19 25 87q2 29 -11 46.5
t-37 17.5q-69 0 -186.5 -76.5t-211.5 -165.5q-134 -125 -231 -246t-97 -161q0 -11 13 -11q32 0 192.5 102t315.5 229.5t161 183.5zM446 1008q-7 7 -10 13q-7 14 -7.5 46t6 67t23.5 66.5t40 42.5l6 1l-1 -1q-16 -20 1 -55q37 -73 121 -137t177 -107q5 -2 7 -9t0 -12.5
t-6 -5.5q-63 0 -179 24t-178 67z" />
    <glyph glyph-name="aacute" unicode="&#xe1;" 
d="M797 660q0 -16 -30.5 -38t-67.5 -39q25 -22 44.5 -55.5t17.5 -45.5q0 -4 -3 -8l-40 -44q-94 -107 -156 -201.5t-64 -119.5q0 -8 8 -8q26 0 189 134.5t318 285.5q5 5 12 4t9 -5.5t-1 -10.5q-68 -96 -272 -299.5t-271 -222.5q-2 -1 -8 -1q-52 0 -104 44q-32 27 -54 59.5
t-20 55.5q0 9 3 16q14 41 186 261q-122 -129 -203 -198q-139 -116 -224.5 -176.5t-125.5 -60.5q-41 0 -110 60t-69 117q0 74 96 201.5t234 242.5q121 101 240 165t200 64q112 0 189 -50.5t77 -126.5zM603 614q0 7 -6 11q10 3 35 -1.5t38 -15.5q19 19 25 87q2 29 -11 46.5
t-37 17.5q-69 0 -186.5 -76.5t-211.5 -165.5q-134 -125 -231 -246t-97 -161q0 -11 13 -11q32 0 192.5 102t315.5 229.5t161 183.5zM759 1018q-85 -45 -218 -72t-201 -29q-4 0 -4.5 9t3 19.5t9.5 12.5q99 33 217.5 105t184.5 148q29 32 16 57q-2 2 1 1.5t5 -1.5
q46 -24 46 -96q0 -28 -17.5 -85t-41.5 -69z" />
    <glyph glyph-name="acircumflex" unicode="&#xe2;" 
d="M797 660q0 -16 -30.5 -38t-67.5 -39q25 -22 44.5 -55.5t17.5 -45.5q0 -4 -3 -8l-40 -44q-94 -107 -156 -201.5t-64 -119.5q0 -8 8 -8q26 0 189 134.5t318 285.5q5 5 12 4t9 -5.5t-1 -10.5q-68 -96 -272 -299.5t-271 -222.5q-2 -1 -8 -1q-52 0 -104 44q-32 27 -54 59.5
t-20 55.5q0 9 3 16q14 41 186 261q-122 -129 -203 -198q-139 -116 -224.5 -176.5t-125.5 -60.5q-41 0 -110 60t-69 117q0 74 96 201.5t234 242.5q121 101 240 165t200 64q112 0 189 -50.5t77 -126.5zM603 614q0 7 -6 11q10 3 35 -1.5t38 -15.5q19 19 25 87q2 29 -11 46.5
t-37 17.5q-69 0 -186.5 -76.5t-211.5 -165.5q-134 -125 -231 -246t-97 -161q0 -11 13 -11q32 0 192.5 102t315.5 229.5t161 183.5zM737 1119q8 -37 15 -60.5t32.5 -68.5t66.5 -89q17 -17 4 -20q-9 -2 -25 6q-108 60 -149 121q-118 -46 -349 -72q-14 -1 -18 4t-1 11t7 8
q70 31 165.5 89.5t160.5 107.5q10 7 48.5 -8t42.5 -29z" />
    <glyph glyph-name="atilde" unicode="&#xe3;" 
d="M797 660q0 -16 -30.5 -38t-67.5 -39q25 -22 44.5 -55.5t17.5 -45.5q0 -4 -3 -8l-40 -44q-94 -107 -156 -201.5t-64 -119.5q0 -8 8 -8q26 0 189 134.5t318 285.5q5 5 12 4t9 -5.5t-1 -10.5q-68 -96 -272 -299.5t-271 -222.5q-2 -1 -8 -1q-52 0 -104 44q-32 27 -54 59.5
t-20 55.5q0 9 3 16q14 41 186 261q-122 -129 -203 -198q-139 -116 -224.5 -176.5t-125.5 -60.5q-41 0 -110 60t-69 117q0 74 96 201.5t234 242.5q121 101 240 165t200 64q112 0 189 -50.5t77 -126.5zM603 614q0 7 -6 11q10 3 35 -1.5t38 -15.5q19 19 25 87q2 29 -11 46.5
t-37 17.5q-69 0 -186.5 -76.5t-211.5 -165.5q-134 -125 -231 -246t-97 -161q0 -11 13 -11q32 0 192.5 102t315.5 229.5t161 183.5zM681 922q-30 0 -69.5 25t-76 49.5t-61.5 24.5q-28 0 -63 -14.5t-55 -37.5q-2 -2 -5.5 -2t-6 1t-1.5 4q10 49 77.5 113.5t135.5 64.5
q29 0 94.5 -52t100.5 -52q51 0 102 30t91 87q2 4 7.5 3.5t4.5 -8.5q-13 -75 -106.5 -155.5t-168.5 -80.5z" />
    <glyph glyph-name="adieresis" unicode="&#xe4;" 
d="M797 660q0 -16 -30.5 -38t-67.5 -39q25 -22 44.5 -55.5t17.5 -45.5q0 -4 -3 -8l-40 -44q-94 -107 -156 -201.5t-64 -119.5q0 -8 8 -8q26 0 189 134.5t318 285.5q5 5 12 4t9 -5.5t-1 -10.5q-68 -96 -272 -299.5t-271 -222.5q-2 -1 -8 -1q-52 0 -104 44q-32 27 -54 59.5
t-20 55.5q0 9 3 16q14 41 186 261q-122 -129 -203 -198q-139 -116 -224.5 -176.5t-125.5 -60.5q-41 0 -110 60t-69 117q0 74 96 201.5t234 242.5q121 101 240 165t200 64q112 0 189 -50.5t77 -126.5zM603 614q0 7 -6 11q10 3 35 -1.5t38 -15.5q19 19 25 87q2 29 -11 46.5
t-37 17.5q-69 0 -186.5 -76.5t-211.5 -165.5q-134 -125 -231 -246t-97 -161q0 -11 13 -11q32 0 192.5 102t315.5 229.5t161 183.5zM676 1126q-38 -6 -91 -71t-62 -94q-9 -14 -32 -3.5t-49 34t-28 38.5q-6 36 32 90.5t74 64.5q41 11 91.5 -10.5t64.5 -48.5zM944 1128
q-38 -6 -91 -71t-62 -94q-6 -24 -55 9q-43 29 -53 54q-1 2 -1 4q-6 37 30 88.5t74 61.5q43 10 94 -9t64 -43z" />
    <glyph glyph-name="aring" unicode="&#xe5;" 
d="M797 660q0 -16 -30.5 -38t-67.5 -39q25 -22 44.5 -55.5t17.5 -45.5q0 -4 -3 -8l-40 -44q-94 -107 -156 -201.5t-64 -119.5q0 -8 8 -8q26 0 189 134.5t318 285.5q5 5 12 4t9 -5.5t-1 -10.5q-68 -96 -272 -299.5t-271 -222.5q-2 -1 -8 -1q-52 0 -104 44q-32 27 -54 59.5
t-20 55.5q0 9 3 16q14 41 186 261q-122 -129 -203 -198q-139 -116 -224.5 -176.5t-125.5 -60.5q-41 0 -110 60t-69 117q0 74 96 201.5t234 242.5q121 101 240 165t200 64q112 0 189 -50.5t77 -126.5zM603 614q0 7 -6 11q10 3 35 -1.5t38 -15.5q19 19 25 87q2 29 -11 46.5
t-37 17.5q-69 0 -186.5 -76.5t-211.5 -165.5q-134 -125 -231 -246t-97 -161q0 -11 13 -11q32 0 192.5 102t315.5 229.5t161 183.5zM463 996q-6 48 28.5 104.5t89.5 92.5q-2 20 52 38t107 18q62 0 112 -31t54 -76q3 -40 -35 -98.5t-105.5 -105t-133.5 -46.5
q-52 0 -109.5 29.5t-59.5 74.5zM794 1188q4 13 0 20t-14 7q-32 2 -106 -96.5t-91 -162.5q-4 -20 12 -23q34 -1 111.5 106.5t87.5 148.5z" />
    <glyph glyph-name="ae" unicode="&#xe6;" horiz-adv-x="1329" 
d="M720 679q52 40 112 74q142 80 233 80q71 0 141 -61.5t70 -122.5q0 -30 -66.5 -86.5t-163.5 -112.5t-222 -98t-227 -43q-77 -107 -85 -191q-3 -33 41 -33q41 -2 107 25q145 61 325 168.5t345 242.5q3 2 9.5 0t11 -6.5t1.5 -7.5q-173 -184 -415.5 -354t-355.5 -170
q-37 0 -92.5 34.5t-98 83.5t-43.5 86q-3 49 28 115l-3 -3q-144 -134 -261.5 -223t-160.5 -89q-38 0 -108 60t-74 111q-3 47 35 116q54 103 170.5 226.5t257.5 220.5t245 111q7 1 19 1q138 0 189 -61q36 -43 36 -93zM13 260q-85 -118 -82 -147q0 -11 11 -11q28 0 136.5 64
t245.5 169.5t218 198.5q46 53 78 108.5t32 80.5q0 13 -12 22.5t-26 9.5q-60 0 -150.5 -56.5t-177.5 -139.5t-158.5 -161.5t-114.5 -137.5zM1167 744q-89 0 -248 -121.5t-289 -272.5q142 28 383 205q49 36 88.5 81t55.5 74.5t10 33.5z" />
    <glyph glyph-name="ccedilla" unicode="&#xe7;" horiz-adv-x="746" 
d="M622 748q-89 0 -231.5 -100t-255.5 -234q-78 -91 -119 -168.5t-44 -117.5q-1 -18 10.5 -29t30.5 -11q38 -2 121 32q134 57 300.5 164t312.5 237q3 2 9.5 0t11 -6.5t1.5 -7.5q-135 -154 -335.5 -309t-331.5 -198q-39 -30 -67 -75q-12 -18 -5 -16q19 7 52.5 9t70.5 -9
q38 -17 60 -59t22 -80q0 -21 -31.5 -60.5t-78 -79.5t-108.5 -69.5t-115 -29.5q-44 0 -81.5 46.5t-37.5 96.5q0 28 54 68t95 36q-29 -32 -60.5 -80.5t-29.5 -56.5q38 0 110.5 50t123.5 105.5t37 69.5q-30 30 -129 -11q-19 -8 -39 9t-25 29q-8 25 88 98q-36 10 -83 41.5
t-83 74t-37 74.5q-4 104 112.5 251.5t274.5 262.5q163 116 315 137q7 1 19 1q68 0 128 -44.5t60 -100.5q0 -37 -68.5 -96.5t-111.5 -73.5q-4 -1 -4 1.5t2 6.5q29 42 67.5 113.5t38.5 93.5q0 15 -16 15z" />
    <glyph glyph-name="egrave" unicode="&#xe8;" horiz-adv-x="786" 
d="M400 1015q-6 6 -9 12q-7 14 -7.5 46t6 67t23 66.5t39.5 42.5l6 1l-1 -1q-16 -20 1 -55q37 -73 121 -137t177 -107q5 -2 7 -9t0.5 -12.5t-5.5 -5.5q-62 0 -178.5 24.5t-179.5 67.5zM227 715q183 118 294 118q71 0 141.5 -61.5t70.5 -122.5q0 -30 -66.5 -86.5
t-163.5 -112.5t-222 -98t-227 -43q-41 -56 -62 -108t-24 -83q-3 -33 41 -33q42 -2 108 25q144 61 324 168.5t345 242.5q3 2 9.5 0t11 -6.5t1.5 -7.5q-173 -184 -415 -354t-355 -170q-37 0 -93 34.5t-98.5 83.5t-43.5 86q-3 78 76 197q58 87 154.5 178t193.5 153zM624 744
q-89 0 -248 -121.5t-289 -272.5q141 28 382 205q49 36 88.5 81t56 74.5t10.5 33.5z" />
    <glyph glyph-name="eacute" unicode="&#xe9;" horiz-adv-x="786" 
d="M720 1013q-85 -45 -218 -72t-201 -29q-4 0 -4.5 9t3 19.5t9.5 12.5q99 33 216.5 105.5t184.5 148.5q29 32 16 56q-1 1 1 1l6 -1q45 -23 45 -96q0 -28 -17 -85t-41 -69zM227 715q183 118 294 118q71 0 141.5 -61.5t70.5 -122.5q0 -30 -66.5 -86.5t-163.5 -112.5t-222 -98
t-227 -43q-41 -56 -62 -108t-24 -83q-3 -33 41 -33q42 -2 108 25q144 61 324 168.5t345 242.5q3 2 9.5 0t11 -6.5t1.5 -7.5q-173 -184 -415 -354t-355 -170q-37 0 -93 34.5t-98.5 83.5t-43.5 86q-3 78 76 197q58 87 154.5 178t193.5 153zM624 744q-89 0 -248 -121.5
t-289 -272.5q141 28 382 205q49 36 88.5 81t56 74.5t10.5 33.5z" />
    <glyph glyph-name="ecircumflex" unicode="&#xea;" horiz-adv-x="786" 
d="M701 1111q8 -38 14.5 -60.5t32 -68t66.5 -89.5q18 -18 4 -20q-10 -1 -24 6q-110 61 -150 121q-119 -46 -348 -72q-14 -1 -18 4.5t-1 11.5t7 8q70 31 166 89.5t160 106.5q10 7 48.5 -8t42.5 -29zM227 715q183 118 294 118q71 0 141.5 -61.5t70.5 -122.5q0 -30 -66.5 -86.5
t-163.5 -112.5t-222 -98t-227 -43q-41 -56 -62 -108t-24 -83q-3 -33 41 -33q42 -2 108 25q144 61 324 168.5t345 242.5q3 2 9.5 0t11 -6.5t1.5 -7.5q-173 -184 -415 -354t-355 -170q-37 0 -93 34.5t-98.5 83.5t-43.5 86q-3 78 76 197q58 87 154.5 178t193.5 153zM624 744
q-89 0 -248 -121.5t-289 -272.5q141 28 382 205q49 36 88.5 81t56 74.5t10.5 33.5z" />
    <glyph glyph-name="edieresis" unicode="&#xeb;" horiz-adv-x="786" 
d="M227 715q183 118 294 118q71 0 141.5 -61.5t70.5 -122.5q0 -30 -66.5 -86.5t-163.5 -112.5t-222 -98t-227 -43q-41 -56 -62 -108t-24 -83q-3 -33 41 -33q42 -2 108 25q144 61 324 168.5t345 242.5q3 2 9.5 0t11 -6.5t1.5 -7.5q-173 -184 -415 -354t-355 -170
q-37 0 -93 34.5t-98.5 83.5t-43.5 86q-3 78 76 197q58 87 154.5 178t193.5 153zM624 744q-89 0 -248 -121.5t-289 -272.5q141 28 382 205q49 36 88.5 81t56 74.5t10.5 33.5zM622 1103q-38 -6 -91 -71.5t-62 -94.5q-8 -23 -56 11q-43 31 -51 56q-1 1 -1 3q-6 36 31.5 90
t73.5 64q41 11 91.5 -10t64.5 -48zM890 1104q-38 -6 -91 -71t-62 -94q-6 -25 -55 10q-43 30 -52 55l-1 3q-6 37 30 88t74 61q42 10 93 -9t64 -43z" />
    <glyph glyph-name="igrave" unicode="&#xec;" horiz-adv-x="455" 
d="M250 580q-13 -17 -43 -57t-59.5 -79t-56.5 -77q-62 -88 -104 -161t-42 -96q0 -8 8 -8q25 0 185 133.5t317 285.5q10 10 21 1q6 -5 1 -12q-63 -83 -214 -241q-93 -98 -200 -190.5t-139 -92.5q-41 0 -101.5 56.5t-60.5 96.5q0 9 6 25q21 52 72.5 131.5t139.5 204.5t138 201
q31 49 41.5 85.5t-8.5 50.5q43 0 79 -26q28 -18 58 -55t30 -63q0 -20 -68 -113zM172 1037q-8 8 -10 12q-7 14 -7.5 46t6 67t23.5 66.5t40 42.5q4 2 4 0q-16 -19 2 -55q37 -73 121 -137t177 -107q5 -2 7 -9t0 -12.5t-6 -5.5q-62 0 -178 24.5t-179 67.5z" />
    <glyph glyph-name="iacute" unicode="&#xed;" horiz-adv-x="455" 
d="M250 580q-13 -17 -43 -57t-59.5 -79t-56.5 -77q-62 -88 -104 -161t-42 -96q0 -8 8 -8q25 0 185 133.5t317 285.5q10 10 21 1q6 -5 1 -12q-63 -83 -214 -241q-93 -98 -200 -190.5t-139 -92.5q-41 0 -101.5 56.5t-60.5 96.5q0 9 6 25q21 52 72.5 131.5t139.5 204.5t138 201
q31 49 41.5 85.5t-8.5 50.5q43 0 79 -26q28 -18 58 -55t30 -63q0 -20 -68 -113zM507 1062q-85 -45 -218 -72t-201 -29q-4 0 -4.5 9t3 19.5t9.5 12.5q99 33 217 105.5t185 148.5q29 32 16 56q-2 2 1 1.5t5 -1.5q46 -24 46 -96q0 -28 -17.5 -85t-41.5 -69z" />
    <glyph glyph-name="icircumflex" unicode="&#xee;" horiz-adv-x="455" 
d="M250 580q-13 -17 -43 -57t-59.5 -79t-56.5 -77q-62 -88 -104 -161t-42 -96q0 -8 8 -8q25 0 185 133.5t317 285.5q10 10 21 1q6 -5 1 -12q-63 -83 -214 -241q-93 -98 -200 -190.5t-139 -92.5q-41 0 -101.5 56.5t-60.5 96.5q0 9 6 25q21 52 72.5 131.5t139.5 204.5t138 201
q31 49 41.5 85.5t-8.5 50.5q43 0 79 -26q28 -18 58 -55t30 -63q0 -20 -68 -113zM460 1141q7 -43 11 -62.5t25.5 -68.5t58.5 -95q16 -20 2 -22q-9 -1 -25 10q-99 66 -138 134q-114 -33 -353 -43q-14 0 -18 6t-0.5 12t7.5 7q153 52 342 167q11 7 48.5 -11t39.5 -34z" />
    <glyph glyph-name="idieresis" unicode="&#xef;" horiz-adv-x="455" 
d="M250 580q-13 -17 -43 -57t-59.5 -79t-56.5 -77q-62 -88 -104 -161t-42 -96q0 -8 8 -8q25 0 185 133.5t317 285.5q10 10 21 1q6 -5 1 -12q-63 -83 -214 -241q-93 -98 -200 -190.5t-139 -92.5q-41 0 -101.5 56.5t-60.5 96.5q0 9 6 25q21 52 72.5 131.5t139.5 204.5t138 201
q31 49 41.5 85.5t-8.5 50.5q43 0 79 -26q28 -18 58 -55t30 -63q0 -20 -68 -113zM369 1120q-38 -6 -91 -71t-62 -94q-9 -14 -32 -3.5t-49 34t-28 38.5q-6 36 32 90t74 64q41 11 91.5 -10t64.5 -48zM636 1122q-38 -6 -90.5 -71.5t-61.5 -94.5q-6 -24 -55 9q-43 30 -53 55
q-1 2 -1 4q-6 37 30 88.5t74 61.5q42 10 93 -9t64 -43z" />
    <glyph glyph-name="eth" unicode="&#xf0;" horiz-adv-x="841" 
d="M370 835q-4 -25 -17 -14q-8 7 -13.5 36t1 75t31.5 84q18 27 96 63.5t167 61.5l14 3q-25 114 -96 162q-8 5 -8 9q0 8 13 8q10 0 22 -4q44 -18 91.5 -58.5t75.5 -99.5q72 14 151 21.5t130.5 6.5t47.5 -12q-1 -2 -6 -5q-89 -22 -293 -96q39 -123 39 -210q0 -166 -68.5 -332
t-172.5 -286.5t-231.5 -196t-242.5 -75.5q-36 0 -62 4q-34 6 -85 37t-96 85t-45 108q0 83 67 185.5t164.5 186.5t212 141.5t203.5 57.5q51 0 94 -43t43 -81q0 -2 -2 -2q-1 0 -10 4.5t-23.5 9t-30.5 4.5q-67 0 -150 -43t-157.5 -110.5t-138.5 -142.5t-102 -145.5t-38 -114.5
q0 -32 11.5 -48.5t41.5 -16.5q65 0 143.5 42.5t154 113.5t147 166.5t124 197.5t81.5 212t23 204q-3 38 -6 55q-133 -55 -209 -110t-86 -98z" />
    <glyph glyph-name="ntilde" unicode="&#xf1;" horiz-adv-x="932" 
d="M814 659q-19 -22 -53.5 -62t-55 -64t-54 -67t-68.5 -91q-158 -217 -161 -265q0 -8 8 -8q26 0 183.5 131.5t319.5 287.5q5 5 12 4t9 -5.5t-1 -10.5q-90 -113 -213 -240q-104 -106 -204.5 -194.5t-133.5 -88.5q-55 0 -115.5 59t-56.5 105q0 8 3 15q23 66 205 319
q31 43 81 106.5t81.5 103.5t31.5 42l-3 3q-7 0 -48.5 -26t-123.5 -91t-169 -148q-153 -145 -281 -283.5t-119 -171.5q4 -6 6 -6q12 -4 0 -10q-9 -5 -20 -3q-29 5 -77.5 61.5t-42.5 83.5q10 38 69.5 127.5t152.5 218.5t137 197q32 50 42.5 86t-8.5 50q25 0 36 -3
q24 -6 47 -22q41 -29 64 -62.5t23 -57.5q0 -14 -44 -75t-126.5 -169.5t-127.5 -171.5q84 100 239 254q320 315 388 315q38 0 93 -46q44 -35 62.5 -67.5t16.5 -50.5q0 -3 -4 -9zM635 934q-37 0 -107 49.5t-99 49.5q-28 0 -63.5 -14.5t-55.5 -37.5q-2 -3 -7.5 -1.5t-4.5 5.5
q10 49 77 113.5t135 64.5q29 0 95 -52t101 -52q51 0 101.5 29.5t90.5 86.5q2 4 8 4t5 -8q-13 -75 -107 -156t-169 -81z" />
    <glyph glyph-name="ograve" unicode="&#xf2;" horiz-adv-x="885" 
d="M471 997q-5 5 -9 13q-7 14 -7.5 46t6 67t23 66.5t39.5 42.5l6 1l-1 -1q-16 -20 1 -55q37 -73 121 -137t177 -107q5 -2 7 -9t0.5 -12.5t-5.5 -5.5q-63 0 -179.5 24t-178.5 67zM-186 197q0 92 81.5 210.5t198.5 211t218 121.5q35 35 99 66t114 31q97 0 163 -61.5t79 -148.5
q86 -4 156 -2.5t90 5.5q17 3 21 -6q3 -7 -15 -15l-15 -6q-27 -9 -98.5 -19t-146.5 -11q-3 -50 -44.5 -125.5t-110 -154.5t-149 -148.5t-173 -113.5t-170.5 -44q-124 0 -211 56.5t-87 153.5zM-35 110q0 -18 2 -27.5t11 -17t27 -7.5q67 0 186 82.5t233 205.5t170 231
q-98 7 -178 44q-84 -28 -170 -97.5t-145.5 -147t-97.5 -151t-38 -115.5zM636 707q0 44 -17.5 64.5t-54.5 13.5q-35 -6 -58.5 -28t-28.5 -47q-4 -28 34 -46t111 -28q14 36 14 71z" />
    <glyph glyph-name="oacute" unicode="&#xf3;" horiz-adv-x="885" 
d="M745 1005q-85 -45 -218 -72t-201 -29q-4 0 -4.5 9t3 19.5t9.5 12.5q99 33 217 105.5t185 148.5q29 31 15 57q-1 1 1 1l6 -1q45 -23 45 -97q0 -28 -17 -85t-41 -69zM-186 197q0 92 81.5 210.5t198.5 211t218 121.5q35 35 99 66t114 31q97 0 163 -61.5t79 -148.5
q86 -4 156 -2.5t90 5.5q17 3 21 -6q3 -7 -15 -15l-15 -6q-27 -9 -98.5 -19t-146.5 -11q-3 -50 -44.5 -125.5t-110 -154.5t-149 -148.5t-173 -113.5t-170.5 -44q-124 0 -211 56.5t-87 153.5zM-35 110q0 -18 2 -27.5t11 -17t27 -7.5q67 0 186 82.5t233 205.5t170 231
q-98 7 -178 44q-84 -28 -170 -97.5t-145.5 -147t-97.5 -151t-38 -115.5zM636 707q0 44 -17.5 64.5t-54.5 13.5q-35 -6 -58.5 -28t-28.5 -47q-4 -28 34 -46t111 -28q14 36 14 71z" />
    <glyph glyph-name="ocircumflex" unicode="&#xf4;" horiz-adv-x="885" 
d="M736 1109q8 -37 15 -60t32 -68t66 -89q18 -18 4 -21q-10 -1 -24 6q-108 60 -150 122q-123 -48 -348 -73q-14 -1 -18.5 4.5t-1.5 11.5t7 8q70 31 165.5 89.5t160.5 107.5q10 7 49 -8t43 -30zM-186 197q0 92 81.5 210.5t198.5 211t218 121.5q35 35 99 66t114 31
q97 0 163 -61.5t79 -148.5q86 -4 156 -2.5t90 5.5q17 3 21 -6q3 -7 -15 -15l-15 -6q-27 -9 -98.5 -19t-146.5 -11q-3 -50 -44.5 -125.5t-110 -154.5t-149 -148.5t-173 -113.5t-170.5 -44q-124 0 -211 56.5t-87 153.5zM-35 110q0 -18 2 -27.5t11 -17t27 -7.5q67 0 186 82.5
t233 205.5t170 231q-98 7 -178 44q-84 -28 -170 -97.5t-145.5 -147t-97.5 -151t-38 -115.5zM636 707q0 44 -17.5 64.5t-54.5 13.5q-35 -6 -58.5 -28t-28.5 -47q-4 -28 34 -46t111 -28q14 36 14 71z" />
    <glyph glyph-name="otilde" unicode="&#xf5;" horiz-adv-x="885" 
d="M692 912q-38 0 -108 49.5t-99 49.5q-28 0 -63 -14.5t-55 -37.5q-2 -3 -8 -1.5t-5 5.5q10 49 77.5 113.5t135.5 64.5q29 0 94.5 -52t100.5 -52q51 0 102 30t91 86q2 4 7.5 3.5t4.5 -8.5q-13 -75 -106.5 -155.5t-168.5 -80.5zM-186 197q0 92 81.5 210.5t198.5 211
t218 121.5q35 35 99 66t114 31q97 0 163 -61.5t79 -148.5q86 -4 156 -2.5t90 5.5q17 3 21 -6q3 -7 -15 -15l-15 -6q-27 -9 -98.5 -19t-146.5 -11q-3 -50 -44.5 -125.5t-110 -154.5t-149 -148.5t-173 -113.5t-170.5 -44q-124 0 -211 56.5t-87 153.5zM-35 110q0 -18 2 -27.5
t11 -17t27 -7.5q67 0 186 82.5t233 205.5t170 231q-98 7 -178 44q-84 -28 -170 -97.5t-145.5 -147t-97.5 -151t-38 -115.5zM636 707q0 44 -17.5 64.5t-54.5 13.5q-35 -6 -58.5 -28t-28.5 -47q-4 -28 34 -46t111 -28q14 36 14 71z" />
    <glyph glyph-name="odieresis" unicode="&#xf6;" horiz-adv-x="885" 
d="M662 1085q-38 -6 -91 -71t-62 -94q-9 -14 -32 -3.5t-49 34t-28 38.5q-6 36 32 90.5t74 64.5q41 11 91.5 -10.5t64.5 -48.5zM929 1087q-38 -6 -90.5 -71t-61.5 -94q-6 -24 -55 9q-43 29 -53 54q-1 2 -1 4q-6 37 30 88.5t74 61.5q42 10 93 -9t64 -43zM-186 197
q0 92 81.5 210.5t198.5 211t218 121.5q35 35 99 66t114 31q97 0 163 -61.5t79 -148.5q86 -4 156 -2.5t90 5.5q17 3 21 -6q3 -7 -15 -15l-15 -6q-27 -9 -98.5 -19t-146.5 -11q-3 -50 -44.5 -125.5t-110 -154.5t-149 -148.5t-173 -113.5t-170.5 -44q-124 0 -211 56.5
t-87 153.5zM-35 110q0 -18 2 -27.5t11 -17t27 -7.5q67 0 186 82.5t233 205.5t170 231q-98 7 -178 44q-84 -28 -170 -97.5t-145.5 -147t-97.5 -151t-38 -115.5zM636 707q0 44 -17.5 64.5t-54.5 13.5q-35 -6 -58.5 -28t-28.5 -47q-4 -28 34 -46t111 -28q14 36 14 71z" />
    <glyph glyph-name="divide" unicode="&#xf7;" horiz-adv-x="1198" 
d="M573 595q-15 -11 -51 14t-34 34q3 12 11 25.5t23.5 36.5t28.5 48q58 118 11 142q28 0 60 -21q47 -31 76.5 -74t27.5 -63q0 -5 -3 -9q-13 -18 -49.5 -51t-66.5 -56.5t-34 -25.5zM540 230q0 -26 -51.5 -84t-72.5 -70q-14 -8 -54.5 30.5t-40.5 55.5q0 5 12 26t28 50t23 49
q13 38 4 47q15 13 52.5 -5t68.5 -49t31 -50zM137 280q-13 -24 -22 -9q-7 15 22.5 94.5t70.5 127.5q25 29 120 44t182 11q54 -2 118 -12t119.5 -23.5t101 -28t69.5 -27.5t18 -21q-3 -3 -16 -3q-323 17 -530 -30t-253 -123z" />
    <glyph glyph-name="oslash" unicode="&#xf8;" horiz-adv-x="910" 
d="M-161 197q0 92 81.5 210.5t198.5 211t218 121.5q35 35 99 66t114 31q46 0 90 -18q85 106 89 133q5 26 -12 37h11q28 -4 68.5 -38t40.5 -58q0 -16 -63 -79l-49 -50q54 -57 67 -137q86 -4 156 -2.5t90 5.5q17 3 21 -6q3 -7 -15 -15q-6 -3 -15 -6q-35 -11 -237 -15
q-4 -63 -69.5 -165.5t-159 -199t-211.5 -166.5t-215 -70q-57 0 -115 15q-124 -148 -131 -196q-2 -8 3 -15t5 -8q-4 -11 -23 -7q-20 2 -42 16t-18 38q6 47 130 202q-107 58 -107 165zM562 595q-301 -312 -488 -529q119 38 297.5 206.5t255.5 318.5zM-9 110q0 -20 1 -23
q59 71 135.5 157.5t184 205t148.5 164.5q-15 5 -19 7q-84 -28 -170 -97.5t-145.5 -147t-97 -151t-37.5 -115.5zM517 677l94 109q-18 0 -22 -1q-35 -6 -58 -27.5t-28 -47.5q-4 -18 14 -33zM662 699l-55 -56q15 -3 40 -7q12 34 15 63z" />
    <glyph glyph-name="ugrave" unicode="&#xf9;" horiz-adv-x="967" 
d="M843 659q-30 -32 -66 -78q-102 -126 -210 -286t-110 -185q0 -8 8 -8q25 0 185 133.5t317 285.5q10 10 21 1q6 -5 1 -12q-63 -83 -214 -241q-93 -98 -200 -190.5t-139 -92.5q-45 0 -106 59.5t-61 104.5q0 10 6 26.5t20 40t26.5 43.5t35.5 52.5t36.5 51t39.5 54t35 48.5
q-388 -418 -503 -477q-5 -2 -8 -2q-49 0 -118 65.5t-69 120.5q0 21 26 67t94.5 140t102 138.5t131.5 173.5q51 68 59 100q7 29 -25 35q3 2 12.5 3t28.5 -4.5t36 -20.5q58 -48 78.5 -86.5t18.5 -61.5q0 -5 -3 -10q-111 -126 -171 -200q-90 -113 -151 -206t-61 -118
q0 -16 13 -16q40 0 314 236.5t357 341.5q58 75 55 120q0 17 -14 25q43 0 77 -25q49 -37 74.5 -77t23.5 -60q0 -4 -3 -9zM402 1026q-8 8 -10 12q-7 14 -7.5 46t6 67t23.5 66.5t40 42.5q4 2 4 0q-16 -19 2 -55q37 -73 121 -137t177 -107q5 -2 7 -9t0 -12.5t-6 -5.5
q-62 0 -178 24.5t-179 67.5z" />
    <glyph glyph-name="uacute" unicode="&#xfa;" horiz-adv-x="967" 
d="M843 659q-30 -32 -66 -78q-102 -126 -210 -286t-110 -185q0 -8 8 -8q25 0 185 133.5t317 285.5q10 10 21 1q6 -5 1 -12q-63 -83 -214 -241q-93 -98 -200 -190.5t-139 -92.5q-45 0 -106 59.5t-61 104.5q0 10 6 26.5t20 40t26.5 43.5t35.5 52.5t36.5 51t39.5 54t35 48.5
q-388 -418 -503 -477q-5 -2 -8 -2q-49 0 -118 65.5t-69 120.5q0 21 26 67t94.5 140t102 138.5t131.5 173.5q51 68 59 100q7 29 -25 35q3 2 12.5 3t28.5 -4.5t36 -20.5q58 -48 78.5 -86.5t18.5 -61.5q0 -5 -3 -10q-111 -126 -171 -200q-90 -113 -151 -206t-61 -118
q0 -16 13 -16q40 0 314 236.5t357 341.5q58 75 55 120q0 17 -14 25q43 0 77 -25q49 -37 74.5 -77t23.5 -60q0 -4 -3 -9zM740 1021q-85 -45 -218 -72t-201 -29q-4 0 -4.5 9t3 19.5t9.5 12.5q99 33 217 105.5t185 148.5q29 32 16 56q-1 1 1.5 1t4.5 -1q46 -24 46 -96
q0 -28 -17.5 -85t-41.5 -69z" />
    <glyph glyph-name="ucircumflex" unicode="&#xfb;" horiz-adv-x="967" 
d="M843 659q-30 -32 -66 -78q-102 -126 -210 -286t-110 -185q0 -8 8 -8q25 0 185 133.5t317 285.5q10 10 21 1q6 -5 1 -12q-63 -83 -214 -241q-93 -98 -200 -190.5t-139 -92.5q-45 0 -106 59.5t-61 104.5q0 10 6 26.5t20 40t26.5 43.5t35.5 52.5t36.5 51t39.5 54t35 48.5
q-388 -418 -503 -477q-5 -2 -8 -2q-49 0 -118 65.5t-69 120.5q0 21 26 67t94.5 140t102 138.5t131.5 173.5q51 68 59 100q7 29 -25 35q3 2 12.5 3t28.5 -4.5t36 -20.5q58 -48 78.5 -86.5t18.5 -61.5q0 -5 -3 -10q-111 -126 -171 -200q-90 -113 -151 -206t-61 -118
q0 -16 13 -16q40 0 314 236.5t357 341.5q58 75 55 120q0 17 -14 25q43 0 77 -25q49 -37 74.5 -77t23.5 -60q0 -4 -3 -9zM712 1150q8 -36 15 -60t32.5 -68.5t66.5 -88.5q17 -17 4 -21q-9 -2 -25 6q-108 60 -150 122q-123 -48 -348 -73q-14 -1 -18 4.5t-1 11.5t7 8
q70 31 165.5 89.5t160.5 107.5q10 7 48.5 -8t42.5 -30z" />
    <glyph glyph-name="udieresis" unicode="&#xfc;" horiz-adv-x="967" 
d="M843 659q-30 -32 -66 -78q-102 -126 -210 -286t-110 -185q0 -8 8 -8q25 0 185 133.5t317 285.5q10 10 21 1q6 -5 1 -12q-63 -83 -214 -241q-93 -98 -200 -190.5t-139 -92.5q-45 0 -106 59.5t-61 104.5q0 10 6 26.5t20 40t26.5 43.5t35.5 52.5t36.5 51t39.5 54t35 48.5
q-388 -418 -503 -477q-5 -2 -8 -2q-49 0 -118 65.5t-69 120.5q0 21 26 67t94.5 140t102 138.5t131.5 173.5q51 68 59 100q7 29 -25 35q3 2 12.5 3t28.5 -4.5t36 -20.5q58 -48 78.5 -86.5t18.5 -61.5q0 -5 -3 -10q-111 -126 -171 -200q-90 -113 -151 -206t-61 -118
q0 -16 13 -16q40 0 314 236.5t357 341.5q58 75 55 120q0 17 -14 25q43 0 77 -25q49 -37 74.5 -77t23.5 -60q0 -4 -3 -9zM603 1095q-38 -6 -90.5 -71.5t-61.5 -94.5q-9 -14 -32 -3.5t-49 34.5t-28 39q-6 36 31.5 90t73.5 64q41 11 91.5 -10t64.5 -48zM871 1096
q-38 -6 -91 -71t-62 -94q-6 -25 -55 10q-43 30 -52 55l-1 3q-6 37 30 88t74 61q42 10 93 -9t64 -43z" />
    <glyph glyph-name="yacute" unicode="&#xfd;" horiz-adv-x="920" 
d="M331 651q-109 -126 -169 -200q-99 -123 -167.5 -220.5t-68.5 -120.5q0 -15 13 -15q34 0 201 128.5t331 285.5q16 15 55 52.5t65 64t52 56.5q59 70 56 126q-3 19 -12 24q39 0 74 -27q44 -35 69.5 -70t23.5 -53q0 -4 -3 -9q-100 -128 -163 -211q-206 -275 -379 -558
q115 138 310.5 331t281.5 266q3 3 6.5 2t6.5 -3.5t5 -6t2 -6.5t-1 -5q-53 -49 -246 -259.5t-332 -378.5q-222 -270 -285 -413q-33 -71 -33 -126q0 -18 8 -28q0 -13 -48 12t-87 75.5t-21 99.5q76 198 461 791q59 93 140 202q-156 -168 -296 -301.5t-203 -166.5q-5 -2 -8 -2
q-50 0 -121 74.5t-71 132.5q0 12 9.5 33t32 54.5t43 63t59.5 80.5t63.5 82t73.5 93.5t72 91.5q49 63 58 100q7 29 -25 35l19 2q30 -1 55 -22q52 -44 75 -85t21 -62q0 -4 -3 -9zM755 1010q-85 -45 -218 -72t-201 -29q-4 0 -5 9t2.5 19.5t9.5 12.5q99 33 217 105.5t185 148.5
q29 32 16 56q-1 2 1.5 1.5t4.5 -1.5q46 -24 46 -96q0 -28 -17 -85t-41 -69z" />
    <glyph glyph-name="thorn" unicode="&#xfe;" horiz-adv-x="894" 
d="M-208 228q56 82 222 316.5t289 415.5t177 280q60 111 21 131q46 0 77 -22q45 -32 71.5 -73t26.5 -69q0 -5 -3 -10l-292 -425q105 58 218 58q81 0 161.5 -58t80.5 -128q0 -152 -173 -342q-53 -57 -113.5 -109.5t-133.5 -101.5t-154.5 -78.5t-156.5 -29.5
q-44 0 -109.5 28.5t-96.5 68.5q-32 -52 -54 -88t-56 -93t-57.5 -98.5t-54 -96.5t-51 -97t-42.5 -88.5t-34 -82t-20 -68t-6 -55.5t13 -36q0 -13 -52 13t-94.5 78t-24.5 101q52 138 181.5 368t239.5 391zM558 463q132 154 132 257q0 52 -55 52q-43 0 -112 -33t-140 -85
q-166 -119 -347 -378q58 43 167 85q34 13 36 8q3 -5 -28 -30q-61 -51 -134.5 -140t-70.5 -119q109 0 263.5 113.5t288.5 269.5z" />
    <glyph glyph-name="ydieresis" unicode="&#xff;" horiz-adv-x="920" 
d="M331 651q-109 -126 -169 -200q-99 -123 -167.5 -220.5t-68.5 -120.5q0 -15 13 -15q34 0 201 128.5t331 285.5q16 15 55 52.5t65 64t52 56.5q59 70 56 126q-3 19 -12 24q39 0 74 -27q44 -35 69.5 -70t23.5 -53q0 -4 -3 -9q-100 -128 -163 -211q-206 -275 -379 -558
q115 138 310.5 331t281.5 266q3 3 6.5 2t6.5 -3.5t5 -6t2 -6.5t-1 -5q-53 -49 -246 -259.5t-332 -378.5q-222 -270 -285 -413q-33 -71 -33 -126q0 -18 8 -28q0 -13 -48 12t-87 75.5t-21 99.5q76 198 461 791q59 93 140 202q-156 -168 -296 -301.5t-203 -166.5q-5 -2 -8 -2
q-50 0 -121 74.5t-71 132.5q0 12 9.5 33t32 54.5t43 63t59.5 80.5t63.5 82t73.5 93.5t72 91.5q49 63 58 100q7 29 -25 35l19 2q30 -1 55 -22q52 -44 75 -85t21 -62q0 -4 -3 -9zM595 1093q-38 -6 -90.5 -71t-61.5 -94q-9 -14 -32 -3.5t-49 34t-28 38.5q-6 36 32 90.5t74 64.5
q41 11 91 -10.5t64 -48.5zM863 1095q-38 -6 -91 -71.5t-62 -94.5q-6 -25 -55 10q-43 30 -52 55l-1 3q-6 37 30 88.5t74 61.5q42 10 93 -9t64 -43z" />
    <glyph glyph-name="Lslash" unicode="&#x141;" horiz-adv-x="1788" 
d="M1429 -191q-148 35 -352.5 54t-403.5 13q-294 -5 -437 -48q-42 -34 -247.5 -128.5t-281.5 -99.5q-23 -2 -37.5 11.5t-14.5 34.5q0 24 19.5 76.5t41.5 79.5q49 64 379 121q56 19 119.5 69t133 131t131.5 162.5t142 196.5q-230 -50 -389.5 -125t-159.5 -119q0 -20 73 -44.5
t142 -24.5v-2q0 -5 -25.5 -16t-64.5 -20.5t-69 -9.5q-49 0 -87.5 20t-38.5 62q0 107 61 193t161 130q179 78 491 93l11 16q120 174 188.5 270t171 224.5t176.5 194t163 115.5t172 53q103 4 196 -36t144 -115.5t31 -163.5q-12 -56 -59 -117t-116.5 -116.5t-139 -101
t-144.5 -86.5q-5 -2 -10 -3.5t-9 -0.5t-5.5 3.5t1.5 9t11 15.5q6 7 59.5 66t94 108t90.5 114.5t78.5 123.5t28.5 98q0 63 -25.5 88.5t-76.5 23.5q-66 -3 -145 -48.5t-153 -113.5t-166.5 -176.5t-167 -206.5t-172.5 -235q212 -6 392 -41t274 -91q3 -3 -3 -3q-249 57 -534 50
q-114 -3 -201 -14q-148 -196 -303 -366t-222 -222q241 41 510 49q266 9 471 -13t254 -69q10 -10 36 -49q27 -41 49 -95t24 -92q2 -11 -1 -13q-2 -1 -6 6l-1 2q-9 18 -14 26.5t-24 28t-42.5 33t-68 30.5t-103.5 30z" />
    <glyph glyph-name="lslash" unicode="&#x142;" horiz-adv-x="458" 
d="M280 630q0 -1 -16.5 -23.5t-39 -54t-53 -75t-61 -87.5t-60 -90t-52 -83t-36.5 -66t-14 -41q0 -8 8 -8q25 0 185 133.5t317 285.5q10 10 21 1q6 -5 1 -12q-63 -83 -214 -241q-94 -98 -200 -190.5t-138 -92.5q-16 0 -43 13t-47 28q-77 59 -74 99q0 9 6 25q48 124 304 479
l88 123q-175 -78 -201 -124q-17 67 45 170q29 49 270 112q170 237 219 329q60 111 20 131q46 0 77 -22q45 -32 71.5 -73t26.5 -69q0 -5 -3 -10l-175 -244q207 25 255 12q9 -2 7 -6q-1 -2 -7 -6q-178 -41 -320 -90z" />
    <glyph glyph-name="OE" unicode="&#x152;" horiz-adv-x="3220" 
d="M1971 -395q-98 -3 -214 30t-222.5 107t-146.5 171q-183 -146 -374.5 -230.5t-367.5 -84.5q-56 0 -120 16t-130.5 50.5t-120.5 83t-88 121t-34 156.5q0 58 23 148q-52 43 -85.5 101.5t-33.5 119.5q0 167 133.5 372.5t349.5 372.5q206 160 442 256.5t477 96.5
q140 0 268 -57t218 -168.5t105 -255.5q64 117 220.5 228t335.5 180q199 74 373 59q128 -13 221 -81t97 -170q2 -66 -121.5 -177t-254.5 -168q-8 -4 -15 3q-3 3 1 7q97 93 177.5 220.5t78.5 196.5q-3 80 -110 80q-150 0 -343 -92q-129 -60 -241.5 -141t-187.5 -174.5
t-75 -170.5q0 -21 14 -42t45 -43t93 -39.5t147 -26.5q16 3 83.5 23.5t135 36.5t105.5 16q45 0 45 -18q2 -38 -48.5 -96t-118.5 -58q-56 0 -136 18.5t-94 19.5q-409 -111 -661 -309.5t-252 -393.5q0 -73 49.5 -118.5t161.5 -45.5q140 0 308 55t324 140.5t324.5 203.5
t302.5 229t266 232q18 16 17 0q-1 -11 -7 -18q-55 -63 -140.5 -150.5t-203.5 -199t-249.5 -217.5t-262 -197t-259 -148t-224.5 -60zM736 728q-138 -124 -242 -279.5t-152 -317.5q24 -3 31 -3q68 0 203 44t303 122t365 206t360 274q9 9 7 -1q-2 -8 -6 -15
q-163 -198 -387.5 -364.5t-428.5 -255.5t-340 -89q-50 0 -124 30q-24 -93 -24 -167q0 -91 59.5 -149t170.5 -58q134 0 292.5 66t308 175t291 254t246.5 297t168.5 310t63.5 288q0 151 -102 226t-257 73q-237 -4 -472.5 -106.5t-431.5 -274.5q-194 -169 -320.5 -371
t-126.5 -343q0 -37 4 -60q59 164 201.5 356.5t298.5 319.5q41 34 91 70.5t116 77.5t132.5 72.5t140 57.5t139 32.5t129.5 -4.5q82 -17 134 -79q26 -30 42 -70t18 -61q2 -16 -4 -16q-3 0 -7 7q-19 33 -62.5 61.5t-109.5 28.5q-159 0 -347.5 -100t-370.5 -264zM2032 810
q-37 -143 -121 -292q134 53 262 83.5t215 30.5q-88 5 -200.5 53t-155.5 125z" />
    <glyph glyph-name="oe" unicode="&#x153;" horiz-adv-x="1367" 
d="M808 715q183 118 295 118q71 0 141 -61.5t70 -122.5q0 -30 -66.5 -86.5t-163.5 -112.5t-222 -98t-227 -43q-77 -107 -85 -191q-3 -33 41 -33q41 -2 107 25q144 61 324 168.5t345 242.5q3 2 9.5 0t11 -6.5t1.5 -7.5q-173 -184 -415 -354t-355 -170q-42 0 -105.5 42.5
t-100.5 94.5q-174 -133 -307 -133q-64 0 -134.5 24t-122 71.5t-49.5 104.5q4 90 77 198t180 193q54 97 187 179t255 73q78 -6 145.5 -50.5t95.5 -111.5q27 21 68 47zM629 703q-14 74 -100 74q-98 0 -184 -76q27 5 46 5q51 0 85 -33t34 -70q0 -3 -4 0q-1 0 -11.5 5t-22.5 8
t-25 3q-49 0 -118.5 -35.5t-128.5 -82.5q-17 -60 12.5 -99t108.5 -43q44 -3 125 16l72 87q124 160 111 241zM-19 68q54 -20 176 56t242 199q-63 -8 -103 -5q-60 4 -111.5 27.5t-82.5 60.5q-67 -77 -107 -149.5t-45 -122.5q-3 -29 3 -43.5t28 -22.5zM1205 744
q-89 0 -248 -121.5t-289 -272.5q142 28 383 205q49 36 88.5 81t55.5 74.5t10 33.5z" />
    <glyph glyph-name="Scaron" unicode="&#x160;" horiz-adv-x="1909" 
d="M1886 507q15 -5 15 -14q-1 -5 -9 -3q-105 23 -260 39q32 -59 32 -116q0 -88 -75 -191t-191 -193.5t-259 -168.5q-225 -122 -485 -193.5t-438 -71.5q-108 0 -229 38.5t-211.5 112.5t-90.5 161q0 144 178 286t462 242q435 153 921 157q116 0 232 -12q-51 60 -160.5 105.5
t-269.5 89.5q-38 10 -125 32.5t-142.5 38.5t-92.5 30q-54 20 -86 57q-24 29 -24 63q0 49 42 108.5t111 113.5q146 112 381 195q239 82 430 82q128 0 212 -83t84 -205q0 -53 -67 -118.5t-155.5 -116.5t-174 -86t-124.5 -35q-11 0 -13.5 5.5t8.5 13.5q53 35 128.5 98t146 131
t117.5 131t42 92q-5 28 -25 41.5t-67 13.5q-135 0 -296 -47.5t-288.5 -114.5t-213.5 -143t-86 -130q0 -11 8.5 -21t26.5 -19t37 -16.5t50.5 -16.5t55 -15t63 -16t62.5 -16q85 -23 150.5 -44t145.5 -52.5t141 -71.5t97 -85q139 -21 279 -62zM1504 496q0 13 -6 35
q-97 5 -159 3q-197 -4 -407.5 -47t-397.5 -115q-305 -117 -507.5 -272.5t-202.5 -277.5q0 -93 220 -93q176 0 432 78.5t480 190.5q246 123 397 259t151 239zM1367 1586q0 3 -3 44.5t-7 65t-20.5 63t-43.5 70.5q-12 14 -5 19.5t24 -3.5q29 -14 69.5 -51t63.5 -75
q81 54 225.5 125t205.5 83q15 3 18 -3t-1 -13.5t-9 -10.5q-78 -49 -146 -101.5t-103.5 -85t-90.5 -86.5t-77 -74q-10 -9 -54 5t-46 28z" />
    <glyph glyph-name="scaron" unicode="&#x161;" horiz-adv-x="729" 
d="M145 477q22 -24 90 -50q264 91 539 126q9 1 8 -7q0 -9 -7 -12q-23 -7 -100.5 -27.5t-167 -48.5t-182.5 -67q57 -25 97 -61.5t40 -69.5t-15 -60.5t-64 -67.5q-92 -70 -229.5 -120.5t-244.5 -50.5q-72 0 -134.5 62t-51.5 106q15 58 153.5 141t303.5 136q-43 15 -69 26
t-57.5 29t-47 39.5t-15.5 47.5q0 62 87 134.5t205 119.5t207 47q68 0 124 -48.5t56 -94.5q0 -49 -78 -93t-123 -44q-14 0 -15 6q-1 1 1 3q5 5 33.5 31.5t50 47.5t41 45t19.5 34q0 8 -16 8q-50 0 -129.5 -29t-149.5 -71q-55 -32 -96 -68t-57 -62.5t-6 -36.5zM176 219
q133 76 133 123q0 11 -6 16t-26 12q-110 -48 -170 -80q-88 -46 -164 -98.5t-112.5 -86.5t-36.5 -45q21 -11 163 51.5t219 107.5zM369 925q0 3 -3 44t-7 64.5t-20.5 63t-43.5 70.5q-12 14 -5 19.5t24 -3.5q29 -14 69 -50.5t63 -75.5q81 54 225.5 125t205.5 83q15 3 18 -3
t-1 -13.5t-9 -10.5q-78 -49 -146 -101.5t-103.5 -84.5t-91 -86t-76.5 -74q-10 -9 -53.5 5t-45.5 28z" />
    <glyph glyph-name="Ydieresis" unicode="&#x178;" horiz-adv-x="2128" 
d="M1520 217q229 306 504 807q4 8 6.5 12t5.5 10t6 11q-115 -174 -295.5 -378.5t-352.5 -350t-246 -145.5q-129 0 -220.5 63.5t-95.5 178.5q-1 31 21.5 77.5t73.5 113t90.5 114t112.5 130.5q12 14 54.5 60t74 83t68 86t57 94.5t20.5 81.5q0 37 -13.5 62.5t-38.5 38.5
t-45 18.5t-48 9.5q-85 12 -198.5 -15.5t-227 -81.5t-225 -127.5t-196.5 -150.5t-138 -154t-53 -134q0 -25 16.5 -41t44.5 -16q93 0 333.5 123.5t400.5 259.5q19 15 19 7q-1 -9 -14 -27q-140 -193 -332 -325t-316 -132q-65 0 -133 47t-108.5 108.5t-40.5 107.5q0 71 47 150.5
t126 152t187 138t224.5 112t243.5 71t240 17.5q148 -8 260 -111.5t112 -239.5q0 -15 -5.5 -34t-17.5 -42t-23.5 -43t-31.5 -48t-33.5 -46.5t-37.5 -48.5t-35.5 -43.5t-35.5 -42t-30 -35.5q-32 -39 -86.5 -101.5t-86 -99.5t-65.5 -82.5t-50 -80.5t-16 -63q0 -54 52 -54
q72 0 255 128.5t390.5 322t343.5 365.5q63 77 123 175t60 150q0 31 -21 41q3 2 8 2q30 0 70 -30q34 -25 63 -61.5t29 -66.5q0 -13 -3 -21q-267 -590 -561 -1009q126 16 260 20q7 0 11.5 -4t2 -9.5t-13.5 -8.5q-93 -8 -296 -42q-55 -85 -116.5 -172.5t-142.5 -190
t-163.5 -193.5t-177.5 -177.5t-185 -149t-186 -100t-182 -37.5q-78 0 -167 21t-168.5 58t-132 95.5t-52.5 125.5q0 84 77 172t206 166t305 150q69 28 149 54t179.5 51.5t166.5 41t189.5 43t170.5 38.5zM241 -591q9 -57 62.5 -86.5t118.5 -29.5q104 1 220 51t223.5 131.5
t221 195.5t209.5 232.5t191 252.5q-130 -34 -218 -60t-206.5 -67.5t-233 -96t-230.5 -124.5q-176 -107 -273 -213t-85 -186zM1835 1607q-38 -6 -90.5 -71.5t-61.5 -94.5q-9 -14 -32 -3.5t-49 34.5t-28 39q-6 36 31.5 90t73.5 64q41 11 91.5 -10t64.5 -48zM2103 1608
q-38 -6 -91 -71t-62 -94q-6 -25 -55 10q-43 30 -52 55q-1 1 -1 3q-6 37 30 88t74 61q42 10 93 -9t64 -43z" />
    <glyph glyph-name="Zcaron" unicode="&#x17d;" horiz-adv-x="1819" 
d="M832 668q14 -10 1 -12q-10 -1 -28 6q-45 18 -87 46t-71.5 70.5t-22.5 83.5q12 89 67 196t153 198q149 143 412 187q63 8 139.5 8.5t162 -6t157.5 -14t164.5 -21.5t142 -22t128.5 -22q16 -1 45 -49t40.5 -88.5t-6.5 -48.5q-57 24 -402.5 -135t-542.5 -281
q-411 -247 -698 -498q-167 -143 -286.5 -272t-119.5 -159q345 101 833 94q249 -4 495 -61t367 -159q8 -7 -2 -11q-6 -2 -12 3q-86 55 -216.5 85.5t-238.5 37.5t-270 9q-207 2 -446 -38.5t-414 -93.5q-162 -52 -202 -104q-17 -22 -67.5 6t-89 78.5t-26.5 82.5
q86 191 461 489.5t919 601.5q248 137 454.5 230t418.5 145q-141 16 -294.5 26.5t-339 13.5t-297.5 -14q-414 -59 -491 -273q-18 -49 4 -122.5t54.5 -126.5t51.5 -66zM1514 1530q0 3 -3 44t-7 64.5t-20.5 63t-43.5 70.5q-12 14 -5 19.5t24 -3.5q29 -14 69 -50.5t63 -75.5
q81 54 226 125t206 83q15 3 18 -3t-1 -13.5t-9 -10.5q-78 -49 -146.5 -101.5t-103.5 -84t-91.5 -86.5t-76.5 -74q-10 -9 -53.5 5t-45.5 28z" />
    <glyph glyph-name="zcaron" unicode="&#x17e;" horiz-adv-x="768" 
d="M402 928q0 3 -3 44.5t-7 65t-20.5 63t-43.5 70.5q-8 9 -7 14.5t8 5.5t18 -5q29 -14 69 -50.5t63 -75.5q81 54 226 125t206 83q15 3 18 -3t-1.5 -13.5t-9.5 -10.5q-78 -49 -146 -101.5t-103.5 -84.5t-91 -86t-76.5 -74q-10 -9 -53.5 5t-45.5 28zM-247 -41
q-28 1 -38.5 55.5t0.5 94.5q23 94 135 102q170 108 716 525q-15 -6 -89 -36.5t-120.5 -48t-108.5 -34t-97 -14.5q-36 4 -53 26t-11 52q15 71 102 176q12 12 12 7q0 -2 -1 -5q-11 -29 -13.5 -51.5t4.5 -36t15.5 -22t23.5 -13t24.5 -5.5t22.5 -2q156 -10 408 68q28 8 54 40
q7 9 18 -18q23 -57 28 -130v-13q0 -8 -3.5 -12t-11 -6.5t-8.5 -3.5q-154 -82 -360.5 -235t-336.5 -263q281 -6 452 -95q26 -14 50.5 -34.5t24.5 -32.5l-1 -3q-47 28 -99 45q-87 28 -197.5 39t-192.5 8t-149 -12q-80 -59 -126.5 -86t-73.5 -26z" />
    <glyph glyph-name="circumflex" unicode="&#x2c6;" horiz-adv-x="768" 
d="M676 1087q8 -37 15 -60t32 -68t66 -89q18 -18 4 -21q-10 -1 -24 6q-108 60 -150 122q-123 -48 -348 -73q-14 -1 -18.5 4.5t-1.5 11.5t7 8q70 31 165.5 89.5t160.5 107.5q10 7 49 -8t43 -30z" />
    <glyph glyph-name="caron" unicode="&#x2c7;" horiz-adv-x="669" 
d="M392 920q0 3 -3 44.5t-7 65t-20.5 63t-43.5 70.5q-8 9 -7 14.5t8 5.5t18 -5q29 -14 69 -50.5t63 -75.5q81 54 226 125t206 83q15 3 18 -3t-1 -13t-9 -10q-78 -49 -146 -101.5t-103.5 -85t-90.5 -86.5t-77 -74q-10 -9 -54 5t-46 28z" />
    <glyph glyph-name="ring" unicode="&#x2da;" horiz-adv-x="628" 
d="M269 928q-6 48 29 104.5t90 92.5q-2 20 52 38.5t107 18.5q61 0 111 -31.5t54 -76.5q3 -40 -35 -98.5t-105.5 -105t-133.5 -46.5q-52 0 -109.5 29.5t-59.5 74.5zM600 1120q4 13 0 20t-14 7q-32 2 -106 -96t-91 -162q-4 -20 13 -24q34 -1 111 106.5t87 148.5z" />
    <glyph glyph-name="tilde" unicode="&#x2dc;" horiz-adv-x="773" 
d="M636 925q-30 0 -69 24.5t-75.5 49.5t-61.5 25q-28 0 -63 -14.5t-55 -37.5q-2 -2 -5.5 -2t-6 1t-1.5 4q10 49 77.5 113.5t135.5 64.5q29 0 94.5 -52t100.5 -52q51 0 102 30t91 87q2 4 7.5 3.5t4.5 -8.5q-13 -75 -107 -155.5t-169 -80.5z" />
    <glyph glyph-name="quoteleft" unicode="&#x2018;" horiz-adv-x="512" 
d="M399 1115q40 65 132.5 145t142.5 109q7 6 31 -8q11 -8 9 -12q-164 -216 -167 -352q-3 -37 22 -50q3 0 -1 -1q-1 -1 -4 -1q-50 0 -110.5 61t-58.5 95q0 8 4 14z" />
    <glyph glyph-name="quoteright" unicode="&#x2019;" horiz-adv-x="460" 
d="M572 1202q-40 -65 -133 -145t-143 -109q-3 -2 -14.5 1.5t-20 9.5t-4.5 10q164 216 167 351q3 38 -22 51l1 1h3q50 0 110.5 -61t58.5 -95q0 -10 -3 -14z" />
    <glyph glyph-name="quotedblleft" unicode="&#x201c;" horiz-adv-x="753" 
d="M378 1115q40 65 133 145t143 109q7 5 30 -8q14 -7 9 -12q-164 -216 -167 -352q-3 -37 22 -50q2 0 0.5 -1t-4.5 -1q-50 0 -110.5 61t-58.5 95q0 9 3 14zM605 1115q40 65 133 145t143 109q7 5 30 -8q14 -7 9 -12q-164 -216 -167 -352q-3 -37 22 -50q3 0 -1 -1q-1 -1 -4 -1
q-50 0 -110 61t-58 95q0 9 3 14z" />
    <glyph glyph-name="quotedblright" unicode="&#x201d;" horiz-adv-x="664" 
d="M821 1196q-40 -65 -133 -145t-143 -109q-3 -2 -14.5 1.5t-20 9.5t-4.5 10q164 216 167 351q3 37 -22 50q-2 0 -0.5 1t4.5 1q50 0 110.5 -61t58.5 -95q0 -10 -3 -14zM594 1196q-40 -65 -133 -145t-143 -109q-3 -2 -14.5 1.5t-20 9.5t-4.5 10q164 216 167 351q3 37 -22 50
q-3 0 1 1l4 1q50 0 110 -61t58 -95q0 -10 -3 -14z" />
    <glyph glyph-name="bullet" unicode="&#x2022;" horiz-adv-x="727" 
d="M161 435q0 67 50 131t117 64q41 0 64.5 -30t23.5 -75q0 -61 -48 -126t-119 -65q-38 0 -63 29t-25 72z" />
    <glyph glyph-name="ellipsis" unicode="&#x2026;" horiz-adv-x="1372" 
d="M290 150q-38 -9 -87 -77.5t-55 -97.5q-6 -24 -56 7q-44 27 -55 52l-2 4q-8 37 24 91.5t69 64.5q28 7 88 -8t74 -36zM603 150q-24 -9 -64 -67.5t-52 -91.5q-3 -9 -17.5 -10.5t-34 4t-38.5 14.5t-33 19.5t-16 19.5q-8 37 24 91.5t69 64.5q28 7 88 -8t74 -36zM917 150
q-25 -17 -81.5 -86t-60.5 -89q-8 -15 -36 -7.5t-60 29t-36 36.5q-8 35 38 92t85 67q28 7 82.5 -7t68.5 -35z" />
    <glyph glyph-name="perthousand" unicode="&#x2030;" horiz-adv-x="2224" 
d="M807 191q4 89 69 195t153 173q2 36 88.5 71t164.5 35q53 0 101.5 -20.5t81.5 -56.5q32 31 104 54t134 23q94 0 163 -57.5t65 -139.5q-2 -56 -46 -136.5t-109 -154.5t-151 -126.5t-163 -52.5q-49 0 -106.5 25t-93.5 68q-117 -93 -221 -93q-47 0 -100.5 21.5t-94.5 68
t-39 103.5zM123 611q4 89 69 195.5t153 173.5q2 36 88.5 70.5t165.5 34.5q95 0 163.5 -57t64.5 -139q-2 -56 -46 -136.5t-109 -154.5t-151 -126.5t-163 -52.5q-34 0 -74.5 13t-77.5 36.5t-61 61t-22 81.5zM1804 558q9 52 -35 52q-50 0 -140 -92t-165 -212.5t-89 -196.5
q-4 -40 29 -40q53 0 148.5 106.5t169 223.5t82.5 159zM699 978q9 52 -34 52q-50 0 -140 -92t-165 -212.5t-89 -196.5q-4 -39 28 -39q53 0 148.5 106.5t169 223t82.5 158.5zM1383 558q9 52 -34 52q-50 0 -140 -92t-165 -212.5t-89 -196.5q-4 -40 28 -40q53 0 148.5 106.5
t169 223.5t82.5 159zM1234 1130q3 3 14 3q47 0 116 -36.5t81 -70.5q4 -11 0 -11q-9 6 -19 6q-52 0 -189 -121t-311 -306q-173 -185 -311.5 -356t-138.5 -200q0 -6 2 -12.5t2 -8.5q0 -6 -9 -6q-12 0 -35 10t-36 26q-15 17 -9 48q9 50 177.5 274.5t371 459t294.5 301.5z" />
    <glyph glyph-name="fraction" unicode="&#x2044;" horiz-adv-x="1072" 
d="M96 27q0 47 73.5 192t178 322.5t209 353t178 309.5t73.5 165t-17 38l7 1h2q30 0 68 -30q41 -31 74 -70t33 -62q0 -4 -3 -12q-10 -16 -237.5 -350t-382.5 -586t-155 -315q0 -10 4.5 -17.5t4.5 -8.5q0 -11 -20 -11q-25 0 -57.5 27t-32.5 54z" />
    <glyph glyph-name="Euro" unicode="&#x20ac;" horiz-adv-x="1816" 
d="M293 492q-64 30 -68 55q0 39 39 101.5t75 74.5q18 6 39.5 10.5t38.5 7.5t43.5 5.5t40.5 3.5t44.5 3t42.5 3q168 218 416 369t456 151q63 0 115 -27t82 -67t44.5 -83.5t9.5 -79.5q-6 -38 -51 -82t-106 -80t-106 -59t-73 -34q-22 -9 -22 2q2 10 18 28q131 140 185 224
t54 137q0 63 -76 63q-143 0 -344.5 -132t-363.5 -324q273 -3 475 -53q4 -1 5.5 -6.5t-1.5 -10.5t-10 -5q-185 9 -550 -27q-55 -78 -88 -143q204 -4 499 -55q7 -2 5.5 -10.5t-11.5 -8.5q-241 3 -540 -37q-30 -90 -30 -163q0 -167 189 -167q337 0 847 469q8 8 16 8q3 -1 2 -5
q0 -6 -18 -34q-439 -564 -693 -564q-52 0 -117.5 13t-137 42t-130 69t-97 101t-38.5 131q0 31 5 71q-112 -16 -209.5 -51t-135.5 -71q-10 -10 -9 9q2 46 38 111q44 80 102 96q66 16 99 21zM354 498l89 9q18 45 50 104q-104 -25 -139 -56q-11 -11 -11 -26q0 -11 11 -31z" />
    <glyph glyph-name="trademark" unicode="&#x2122;" horiz-adv-x="1376" 
d="M584 803q0 30 58.5 108t127.5 165.5t84 128.5q-52 0 -140 -6q36 -45 36 -57q-1 -3 -3 -5q-92 -103 -190.5 -234t-98.5 -175q0 -4 7 -14q0 -4 -14 -4q-17 0 -65.5 36t-48.5 57q0 29 52 101t119 157t89 127q-96 -17 -161.5 -48t-88.5 -61q-14 -17 -19 -8q-8 10 27.5 86
t69.5 100q37 24 164.5 36t248.5 -3q178 -25 304 -88q8 -5 -5 -8q-6 -2 -11 -1q-38 6 -167 11q53 -61 48 -65q-10 -9 -31.5 -51t-34.5 -89t3 -74q81 54 202 184t102 158q-2 4 -2 7t1.5 4t4.5 0q24 -5 92 -60.5t68 -75.5q-2 -3 -4 -5q-75 -85 -210.5 -291t-135.5 -252
q0 -4 5 -11q0 -6 -13 -6q-18 0 -64 35.5t-46 57.5q0 8 3 18.5t10.5 25t15 28.5t21 35t23.5 36.5t28 41.5t29.5 42t32.5 46.5t32 45.5q-90 -77 -191 -123q-18 -8 -40 -9.5t-27 2.5q-9 6 -9.5 40.5t2.5 60t5 40.5q-172 -222 -172 -272q0 -5 2.5 -9t2.5 -5q0 -4 -13 -4
q-18 0 -66.5 34.5t-48.5 58.5z" />
    <glyph glyph-name="a.alt" horiz-adv-x="937" 
d="M545 206q-80 -116 -80 -145q0 -11 11 -11q38 0 197 101q6 4 9.5 3t3.5 -4.5t-1 -6.5q-35 -56 -97.5 -112t-102.5 -56q-49 0 -114 48t-65 101q0 24 10.5 49t42.5 73q32 44 134 176q-122 -129 -203 -198q-139 -116 -224.5 -176.5t-125.5 -60.5q-41 0 -110 60t-69 117
q0 74 96 201.5t234 242.5q121 101 240 165t200 64q112 0 189 -50.5t77 -126.5q0 -16 -30.5 -38t-67.5 -39q25 -22 44.5 -55.5t17.5 -45.5q0 -4 -3 -8l-40 -44q-91 -104 -173 -224zM603 614q0 7 -6 11q10 3 35 -1.5t38 -15.5q19 19 25 87q2 29 -11 46.5t-37 17.5
q-69 0 -186.5 -76.5t-211.5 -165.5q-134 -125 -231 -246t-97 -161q0 -11 13 -11q32 0 192.5 102t315.5 229.5t161 183.5z" />
    <glyph glyph-name="b.alt" horiz-adv-x="857" 
d="M44 -8q-95 0 -184 51q-107 61 -92 132q6 26 51.5 61.5t100.5 62.5q-27 22 -27 37q0 34 72 159q58 100 204.5 306.5t188.5 269.5q42 62 102 170q60 111 20 131h31q30 -5 55 -22q40 -28 66.5 -68t26.5 -66q0 -3 -4 -9l-290 -404q68 30 161 30q77 0 159 -56.5t90 -110.5
q10 -66 -18 -141.5t-81 -143.5t-109 -123t-115 -99q-221 -167 -408 -167zM329 665q-162 -121 -249 -249q-64 -93 -72 -134q-3 -5 -10 -5q-12 0 -18 3q-100 -122 -100 -163q0 -19 17.5 -28t39.5 -9q39 0 95 19q180 63 385 266q37 37 86 100.5t91.5 143.5t35.5 124
q-7 41 -64 41q-91 0 -237 -109z" />
    <glyph glyph-name="d.alt" horiz-adv-x="957" 
d="M572 247q-95 -158 -95 -186q0 -11 11 -11q38 0 197 101q6 4 10 3t4 -4.5t-1 -6.5q-35 -56 -97.5 -112t-102.5 -56q-49 0 -114.5 48t-65.5 101q0 56 131 251l-80 -76q-144 -133 -262 -222.5t-161 -89.5q-38 0 -107.5 60t-73.5 111q-3 47 35 116q55 103 178 233t269 228
t243 98q183 0 211 -99q17 24 58.5 81.5t61 85.5t54.5 77.5t55.5 79.5t45 67t41.5 65t29 50q60 111 21 131q36 0 61 -12l13 -7q41 -26 73 -72t32 -73q0 -5 -3 -10l-406 -567q-1 -1 -20.5 -28t-49 -67.5t-63.5 -88.5t-70 -102t-62 -97zM9 260q-85 -117 -81 -147q0 -11 11 -11
q29 0 138.5 62.5t246.5 168t215 201.5q110 158 110 189q0 13 -12 22.5t-26 9.5q-60 0 -150.5 -56.5t-178 -139.5t-159 -162t-114.5 -137z" />
    <glyph glyph-name="e.alt" horiz-adv-x="784" 
d="M148 336q-18 -2 -16 4q1 6 22 18q186 96 314 197q48 38 87.5 82.5t56 73.5t10.5 33q-91 0 -254 -122.5t-283 -271.5q-109 -135 -118 -232q-3 -33 41 -33q41 -2 107 25q145 61 325 168.5t345 242.5q3 2 9.5 0t11 -6.5t1.5 -7.5q-173 -184 -415.5 -354t-355.5 -170
q-37 0 -92.5 34.5t-98 83.5t-43.5 86q-3 79 75 197q58 87 154.5 178t193.5 153q183 118 295 118q71 0 141 -61.5t70 -122.5q0 -27 -53.5 -74.5t-134.5 -96.5t-189.5 -90t-205.5 -52z" />
    <glyph glyph-name="f.alt" horiz-adv-x="546" 
d="M367 740q40 -4 88 -4q144 0 227 22q7 2 8 -4q-1 -6 -5 -9q-147 -79 -386 -98l-104 -148q39 -122 43 -275q1 -139 -27 -271.5t-74.5 -233t-103 -186t-114 -140.5t-106.5 -85.5t-81 -30.5q-75 0 -158 61t-84 128q-2 212 375 851q86 146 203 307q-16 23 -30 33
q-44 14 -44 38q0 15 27.5 58t52.5 63q54 -28 99 -44q32 46 122 162q339 438 474 438q72 0 135 -50t65 -96q0 -38 -66 -96t-114 -78q-2 -1 -4 0.5t-1.5 4.5t2.5 6q31 44 55 97.5t29.5 85t-2.5 41.5q-70 0 -293 -272q-118 -146 -208 -275zM-20 -312q111 171 167 376t22 398
q-186 -284 -360 -642.5t-174 -441.5q0 -10 4 -15t6.5 -5.5t7.5 -0.5q36 0 137.5 96.5t189.5 234.5z" />
    <glyph glyph-name="g.alt" horiz-adv-x="847" 
d="M583 186q-48 -95 -147 -246q157 -45 223 -90q8 -5 12 -46q5 -43 -12 -40q-7 2 -16 11q-51 45 -102.5 75.5t-126.5 56.5q-41 -59 -124 -173q-183 -245 -383 -399.5t-395 -172.5q-121 -11 -248.5 43.5t-213.5 150.5t-93 197q-7 95 95 178.5t265.5 138.5t361 85.5
t384.5 28.5q73 0 172 -11q83 128 115 181q33 53 156 275q-16 -16 -96 -93.5t-119 -111.5q-126 -110 -220.5 -173.5t-128.5 -63.5q-41 0 -110.5 60t-69.5 117q0 74 96.5 201.5t234.5 242.5q121 101 239.5 165t199.5 64q115 0 191 -52t76 -125q0 -38 -57.5 -79.5t-106.5 -57.5
l9 -9l10.5 -10.5t9 -9.5t9.5 -11t6.5 -10t5.5 -11t2 -10q0 -1 -1 -8.5t-1 -8.5q-13 -69 -102 -249zM112 -202q6 8 42.5 58t55.5 78q-63 5 -117 5q-231 1 -460.5 -67t-377.5 -180.5t-148 -230.5q0 -91 71 -148.5t214 -48.5q64 4 135.5 30t163 83t201 164.5t220.5 256.5z
M608 548q29 31 54 81t25 85q0 22 -7 33.5t-31 11.5q-70 0 -185 -75.5t-214 -166.5q-133 -125 -230 -245.5t-97 -161.5q0 -11 12 -11q30 0 196.5 109t281.5 205q6 5 20.5 17t21 18t19.5 17t19.5 17.5l16 16t15 15.5t10.5 13t7.5 12.5t2.5 10.5q0 18 -19 27q4 1 6 1
q15 0 38.5 -8t37.5 -22z" />
    <glyph glyph-name="h.alt" horiz-adv-x="893" 
d="M600 375q-93 -126 -143 -216q-43 -77 -43 -98q0 -11 11 -11q38 0 197 101q6 4 10 3t4 -4.5t-1 -6.5q-35 -56 -97.5 -112t-102.5 -56q-49 0 -114.5 51.5t-65.5 105.5q0 33 33 90q91 158 188 292q31 43 75.5 99.5t72.5 90.5t28 36l-3 4q-7 0 -48 -26.5t-123 -92
t-169 -148.5q-194 -183 -307 -313q-77 -88 -90 -120q-14 -36 -5 -47q13 -11 -6 -14q-7 -1 -16 0q-21 3 -74 61.5t-44 92.5q14 51 103.5 191.5t205.5 301.5q20 28 67 94t72.5 101t67 94t67.5 97.5t56.5 83.5t51.5 79.5t35 60.5q60 111 21 131q26 0 41 -5q17 -5 34 -16
q44 -29 72.5 -75.5t26.5 -67.5q0 -5 -3 -10l-403 -567q-8 -12 -65.5 -91.5t-102 -144.5t-100.5 -153q81 102 265 280q58 57 118.5 114t150 127t120.5 70q44 0 105.5 -59.5t61.5 -104.5q0 -4 -3 -9q-35 -44 -58 -68q-25 -29 -43.5 -50.5t-38.5 -46t-27 -33.5t-32.5 -43
t-32.5 -43z" />
    <glyph glyph-name="i.alt" horiz-adv-x="390" 
d="M90 367q-61 -86 -114 -175q-61 -104 -61 -131q0 -11 11 -11q38 0 197 101q6 4 9.5 3t3.5 -4.5t-1 -6.5q-35 -56 -97.5 -112t-102.5 -56q-49 0 -111.5 46t-62.5 99q0 58 85 189q61 93 113 165l158 227q32 47 42.5 85t-9.5 51q42 0 78 -26q28 -18 58.5 -55t30.5 -63
q0 -20 -68 -113q-13 -17 -43.5 -57t-59.5 -79t-56 -77zM325 901q-14 -7 -28 -4.5t-24.5 9.5t-7.5 12q94 176 94 270q0 30 -23 39q40 0 77 -22q50 -30 78 -71t26 -63q0 -1 -5 -9q-13 -19 -59.5 -59t-84.5 -69.5t-43 -32.5z" />
    <glyph glyph-name="j.alt" horiz-adv-x="332" 
d="M-359 -27h6q35 45 70.5 98.5t88.5 139t63 101.5q162 258 237 398q25 49 25 90q0 18 -16 27q-2 0 0.5 1t5.5 1q28 0 86.5 -62t58.5 -97q0 -43 -186 -345q-10 -16 -62 -102t-96.5 -156.5t-82.5 -124.5q163 -49 226 -92q8 -5 12 -46q5 -43 -12 -40q-7 2 -16 11
q-51 45 -102.5 75.5t-126.5 56.5q-41 -59 -124 -173q-183 -245 -383 -399.5t-395 -172.5q-121 -11 -248.5 43.5t-213.5 150.5t-93 197q-7 95 95 178.5t265.5 138.5t361 85.5t384.5 28.5q73 0 172 -11zM-482 -202q6 8 42.5 58t55.5 78q-63 5 -117 5q-231 1 -460.5 -67
t-377.5 -180.5t-148 -230.5q0 -91 71 -148.5t214 -48.5q64 4 135.5 30t163 83t201 164.5t220.5 256.5zM279 901q-14 -7 -29.5 -3.5t-27.5 11.5t-9 13q94 176 94 269q0 30 -23 39q40 0 77 -22q50 -30 81 -72.5t29 -64.5q0 -1 -5 -9q-13 -19 -59.5 -59t-84.5 -69.5t-43 -32.5z
" />
    <glyph glyph-name="k.alt" horiz-adv-x="793" 
d="M307 660l-93 -142q0 -6 3 -11q27 29 90 88q268 238 350 256q26 5 56 -46.5t26 -106.5q-8 -81 -32 -103q3 22 -14 48q-27 35 -88 28q-159 -18 -309 -146l-64 -57q48 -130 97 -213q100 -170 211.5 -286.5t176.5 -116.5q55 0 126 71q6 6 8.5 3t-0.5 -9q-17 -35 -41 -70
q-30 -42 -84.5 -90t-92.5 -48q-69 1 -173 125t-189 274t-131 269q-98 -102 -168 -215q-77 -139 -60 -164q13 -11 -6 -14q-7 -1 -16 0q-11 2 -42 27t-56.5 61t-19.5 60q14 50 94 182.5t184 280.5q-10 34 -1 59q3 9 9.5 16.5t13 13t17.5 11t17 8t17 6.5t12 5q267 363 334 469
q21 33 34 57q60 111 20 131l18 1q24 -3 50 -19q48 -31 78.5 -75.5t28.5 -64.5q0 -5 -3 -9z" />
    <glyph glyph-name="l.alt" horiz-adv-x="412" 
d="M-148 309q99 156 217 321q29 40 116.5 162t130.5 183t96.5 141t77.5 124q60 111 20 131q48 -1 78 -22q46 -32 72.5 -73t26.5 -68q0 -4 -3 -9l-407 -567q-227 -312 -310 -462q-49 -90 -49 -107q0 -11 11 -11q38 0 197 101q6 4 10 3t4 -4.5t-1 -6.5q-35 -56 -97.5 -112.5
t-102.5 -56.5q-49 0 -113 47.5t-64 100.5q0 47 90 185z" />
    <glyph glyph-name="m.alt" horiz-adv-x="1293" 
d="M659 124q0 19 8 44.5t27 61t36 65.5t49 77t51 75t58.5 80.5t54 72t53.5 71t44 57.5l17 27q-35 -16 -126 -90.5t-206 -191.5q-132 -133 -246.5 -265.5t-127.5 -185.5q3 -7 8 -9q12 -4 0 -10q-9 -5 -20 -3q-19 3 -74.5 58.5t-48.5 86.5q13 55 89 166.5t173 243.5t135 200
q-33 -13 -127 -87t-215 -194q-152 -152 -281.5 -299.5t-101.5 -160.5q1 -1 3 -1q12 -4 0 -10q-9 -5 -20 -3q-18 3 -70 58.5t-47 86.5q7 39 66.5 128t154 218t138.5 197q32 50 42.5 86t-8.5 50q27 0 41 -5q17 -5 33 -16q46 -32 69.5 -66.5t23.5 -57.5q0 -13 -41 -70.5
t-121.5 -163t-123.5 -165.5q96 118 211 234q91 93 213.5 202.5t161.5 109.5q42 0 87 -37q40 -31 64.5 -68t22.5 -55q0 -4 -3 -9q-109 -126 -169 -200q-67 -82 -147 -199q97 122 224 254q86 88 201 193t162 117l4 1q4 1 7 1q45 0 100 -55q70 -74 67 -107q0 -4 -4 -10
q-108 -126 -168 -200q-104 -129 -183 -260q-61 -100 -61 -131q0 -11 11 -11q38 0 197 101q6 4 9.5 3t3.5 -4.5t-1 -6.5q-35 -56 -97.5 -112t-102.5 -56q-49 0 -114 48t-65 101z" />
    <glyph glyph-name="n.alt" horiz-adv-x="893" 
d="M591 375q-70 -96 -99 -142q-78 -122 -78 -157q0 -11 11 -11q39 0 197 100q6 4 10 3t4 -4t-1 -6q-35 -56 -97.5 -112.5t-102.5 -56.5q-49 0 -114.5 48.5t-65.5 101.5q0 87 189 345q31 43 81 106.5t81.5 103.5t31.5 42l-3 3q-8 0 -49.5 -26t-125 -91t-170.5 -148
q-153 -145 -281 -283.5t-119 -171.5q4 -6 6 -6q12 -4 0 -10q-9 -5 -20 -3q-29 5 -77.5 61.5t-42.5 83.5q10 38 69.5 127.5t152.5 218.5t137 197q31 49 41.5 85.5t-8.5 50.5q26 0 36 -2q25 -7 48 -23q41 -29 63.5 -62.5t22.5 -57.5q0 -14 -44 -75t-126.5 -169.5
t-127.5 -171.5q79 95 240 254q320 315 392 315q40 0 95 -46q44 -35 62.5 -67.5t16.5 -50.5q0 -3 -4 -9q-19 -22 -53.5 -62t-55 -64t-54 -67t-68.5 -91z" />
    <glyph glyph-name="o.alt" horiz-adv-x="883" 
d="M-195 187q4 90 76.5 198t179.5 193q54 97 187.5 179t255.5 73q101 -7 179 -75.5t78 -162.5q0 -53 -36 -118q120 59 280 159q7 4 10 -4q3 -15 -26 -37q-175 -125 -307 -187q-66 -99 -158.5 -191.5t-206 -159.5t-207.5 -67q-64 0 -134.5 24t-121.5 71.5t-49 104.5zM633 703
q-14 74 -99 74q-98 0 -184 -76q27 5 45 5q51 0 85.5 -33t34.5 -70q0 -3 -5 0q-1 0 -11 5t-22 8t-25 3q-49 0 -118.5 -35.5t-128.5 -82.5q-17 -58 15 -94t112 -40q44 -3 125 16q87 96 136 182t40 138zM-14 68q54 -20 175.5 55.5t241.5 199.5q-63 -8 -102 -5
q-60 4 -111.5 27.5t-82.5 60.5q-67 -77 -107.5 -149.5t-45.5 -122.5q-2 -29 3.5 -43.5t28.5 -22.5z" />
    <glyph glyph-name="p.alt" horiz-adv-x="886" 
d="M841 644q0 -152 -173 -342q-53 -57 -113.5 -109.5t-133.5 -101.5t-154.5 -78.5t-156.5 -29.5q-44 0 -109.5 28.5t-96.5 68.5q-32 -52 -54 -88t-56 -93t-57.5 -98.5t-54 -96.5t-51 -97t-42.5 -88.5t-34 -82t-20 -68t-6 -55.5t13 -36q0 -13 -52 13t-95 78t-25 101
q51 135 180.5 363.5t241.5 395.5q51 75 174 248.5t151 215.5q33 49 43 86t-10 49h18q23 -3 49 -20q51 -32 85 -84q146 107 297 107q81 0 161.5 -58t80.5 -128zM558 463q132 154 132 257q0 52 -55 52q-43 0 -112 -33t-140 -85q-166 -119 -347 -378q58 43 167 85q34 13 36 8
q3 -5 -28 -30q-61 -51 -134.5 -140t-70.5 -119q109 0 263.5 113.5t288.5 269.5z" />
    <glyph glyph-name="q.alt" horiz-adv-x="938" 
d="M104 -544q-76 -160 -27 -211q0 -13 -50 12t-91 76t-24 100q76 209 272 524q67 105 183 271q52 73 161 215q-139 -139 -334.5 -297.5t-251.5 -158.5q-41 0 -110.5 60t-69.5 117q0 74 96.5 201.5t234.5 242.5q121 101 239.5 165t199.5 64q111 0 189 -51.5t78 -125.5
q0 -16 -30.5 -38t-67.5 -39q30 -30 41 -46q31 -46 24 -55q-2 -2 -12 -14.5t-21 -26.5q-203 -265 -345 -484q123 138 300.5 310t255.5 237q4 4 9 0t6.5 -10t-0.5 -9q-62 -58 -238 -246t-327 -371q-67 -82 -103 -127.5t-96.5 -133t-90.5 -151.5zM605 614q0 7 -6 11
q10 3 34.5 -1.5t37.5 -15.5q19 19 25 87q2 29 -10.5 46.5t-36.5 17.5q-70 0 -187.5 -77t-211.5 -165q-133 -125 -230 -245.5t-97 -161.5q0 -11 12 -11q32 0 192.5 102t316 229.5t161.5 183.5z" />
    <glyph glyph-name="r.alt" horiz-adv-x="801" 
d="M312 679q0 -7 -12.5 -27.5t-37.5 -55t-50.5 -68t-64 -84.5t-64.5 -86q138 153 330.5 312t243.5 176q21 6 48 -9t51 -48q53 -72 30 -101q-44 -14 -160 -151t-116 -186q0 -3 4 -3q26 0 130 66.5t158 110.5q8 7 12.5 2.5t-1.5 -12.5q-39 -54 -130 -138t-122 -86
q-52 -4 -122 45.5t-70 85.5q0 56 89.5 169t162.5 159q-54 -24 -215 -152.5t-294 -263.5q-137 -138 -188 -228q-19 -32 -27 -59t-4 -34q10 -8 -4 -13q-7 -2 -17 0q-20 4 -74 59t-44 86q11 35 60 110l82 122q24 35 72.5 104.5t86.5 125t55 81.5q31 49 41.5 85.5t-8.5 50.5
q33 0 70 -24q38 -26 68.5 -64.5t30.5 -56.5z" />
    <glyph glyph-name="s.alt" horiz-adv-x="567" 
d="M528 451q-113 -11 -230 -29q-3 -35 -6.5 -110t-6.5 -106q-10 -95 -86 -158.5t-180 -63.5q-109 0 -200 46q-74 38 -130 100.5t-56 112.5q0 75 220 138q70 62 130 125q64 64 141 164.5t125 173.5q24 40 55 45q32 4 71 -13.5t63 -39t24 -31.5q0 -3 -5 -5q-33 -10 -53 -32.5
t-42 -66.5q-49 -96 -63 -249q189 19 230 21q18 0 18 -8q0 -14 -19 -14zM-238 195q-9 -37 45.5 -97t118.5 -60q45 0 83.5 33.5t56.5 95.5q25 87 46 227q-131 -37 -234 -92.5t-116 -106.5zM-58 402q80 18 176 31q14 117 43 205q-55 -66 -219 -236z" />
    <glyph glyph-name="t.alt" horiz-adv-x="362" 
d="M-287 9q49 180 432 725q34 50 94 132.5t82 113.5q-119 -27 -176 -60q-12 15 32.5 87t71.5 78q89 19 159 26q60 89 82 127q60 111 20 131q38 0 74 -25q45 -32 75 -74.5t28 -61.5q0 -4 -3 -9q-12 -17 -34 -45t-31 -40h13q154 0 340.5 -21.5t242.5 -49.5q3 -1 1.5 -3
t-3.5 -2q-244 19 -663 -25q-39 -53 -108.5 -145.5t-98.5 -133.5q-203 -285 -343 -524.5t-140 -338.5q0 -39 17 -57q0 -12 -42.5 10t-84.5 66.5t-41 89.5q0 17 4 29z" />
    <glyph glyph-name="u.alt" horiz-adv-x="907" 
d="M375 331q36 59 91 132q-386 -416 -499 -474q-5 -2 -8 -2q-49 0 -118 65.5t-69 120.5q0 21 26 67t94.5 140t102 138.5t131.5 173.5q50 66 58 100q7 29 -25 35q3 2 12.5 3t28.5 -4.5t36 -20.5q58 -48 79 -86.5t19 -61.5q0 -5 -3 -10q-112 -126 -172 -200
q-90 -112 -150.5 -205.5t-60.5 -118.5q0 -16 13 -16q26 0 171 118t298.5 258.5t202.5 201.5q58 75 55 120q0 17 -14 25q43 0 77 -25q49 -37 74.5 -77t23.5 -60q0 -4 -3 -9q-30 -32 -66 -78q-157 -192 -276 -383q-57 -92 -57 -122q0 -11 11 -11q39 0 197 100q6 4 10 3t4 -4
t-1 -6q-35 -56 -97.5 -112.5t-102.5 -56.5q-49 0 -114.5 48.5t-65.5 101.5t87 192z" />
    <glyph glyph-name="v.alt" horiz-adv-x="669" 
d="M30 101q147 252 366.5 493.5t328.5 284.5q49 19 113 -42.5t71 -111.5q3 -11 -4 -14q-2 -2 -4 1q-18 24 -57 28q-41 5 -85 -7.5t-93 -44.5t-76.5 -52.5t-77.5 -62.5q-108 -90 -217.5 -214t-198.5 -264q-54 -84 -46 -111q-53 18 -119.5 71t-72.5 98q-3 22 5.5 55t40.5 107
t56 125t89 187q9 19 21 44t20 40.5t16 34.5t11 31t3.5 23.5t-5 18.5t-16.5 11l12 4q34 3 69 -18q53 -31 88.5 -66t37.5 -55q0 -9 -7 -16q-36 -41 -107.5 -164t-126.5 -252.5t-35 -161.5z" />
    <glyph glyph-name="w.alt" horiz-adv-x="1074" 
d="M482 -11q-54 17 -119.5 70.5t-69.5 98.5q-4 38 18.5 89t112.5 217q29 53 45 84q12 24 30.5 58.5t30.5 57.5t17 39q-136 -141 -259 -312q-263 -356 -238 -405q-53 18 -123 73t-74 99t38 144t153 309q10 19 24 44.5t22.5 40.5t18 34t13 30.5t4 23.5t-5 19t-16.5 11l21 4
q39 0 72 -19q38 -22 72.5 -61t36.5 -59q0 -8 -11 -19q-69 -77 -178.5 -277t-83.5 -246q15 50 147.5 224.5t270.5 320.5q10 11 35.5 38t39.5 41q5 2 15 2.5t32 -6.5t46 -21q41 -24 78 -64t36 -64q-30 -24 -102.5 -130t-130 -222t-37.5 -150q59 115 198.5 288.5t285 315
t217.5 169.5q35 14 78.5 -14t73 -70t33.5 -72q0 -14 -5 -15q-1 0 -3 2q-10 12 -33.5 24.5t-50.5 12.5q-113 0 -293 -153q-111 -93 -224.5 -221.5t-205.5 -273.5q-57 -95 -52 -110z" />
    <glyph glyph-name="x.alt" horiz-adv-x="745" 
d="M137 46q-52 47 -55 263q-38 -28 -79 -62.5t-94.5 -84.5t-88.5 -100.5t-37 -86.5q0 -9 6 -20t5 -13q-3 -1 -20 3t-41 14t-40 21q-38 27 -38 63q2 41 130 139t298 199q1 32 4.5 84.5t6.5 94t5 82t0 63.5t-8 23q-23 0 -127 -63q-13 -4 -13 3q52 70 150 124q46 26 92.5 33
t73.5 -2t29 -26q3 -25 -6 -124q-18 -183 -19 -202q37 24 91.5 65.5t121 99t112.5 117.5t47 101q0 15 -13 31q5 3 18 3.5t35 -5.5t42 -20q26 -18 41 -42t15.5 -39.5t-0.5 -23.5q-14 -27 -175 -134t-338 -210q-7 -96 -0.5 -229t28.5 -133q3 0 8.5 2.5t14.5 7.5t17.5 10.5
t22 15.5t24 17.5t27.5 20.5t28 21.5t30.5 23.5t30.5 23q5 4 5 -5q0 -6 -3 -11q-22 -47 -80 -122.5t-87 -75.5q-124 0 -197 66z" />
    <glyph glyph-name="y.alt" horiz-adv-x="841" 
d="M176 -27h7q27 35 60.5 85t61 94t87.5 142t107 174q-151 -160 -305.5 -304t-215.5 -175q-5 -2 -8 -2q-50 0 -121 74.5t-71 132.5q0 12 9.5 33t32 54.5t43 63t59.5 80.5t63.5 82t73.5 93.5t72 91.5q49 63 58 100q7 29 -25 35l19 2q30 -1 55 -22q52 -44 75 -85t21 -62
q0 -4 -3 -9q-109 -126 -169 -200q-99 -123 -167.5 -220.5t-68.5 -120.5q0 -15 13 -15q34 0 203.5 130t333.5 287q107 103 165 198q25 49 25 90q0 19 -15 27q-2 0 0.5 1t5.5 1q28 0 86.5 -62t58.5 -97q0 -43 -186 -345q-10 -16 -62 -102t-96.5 -156.5t-82.5 -124.5
q161 -48 225 -92q8 -5 12 -46q5 -43 -12 -40q-7 2 -16 11q-97 87 -228 132q-41 -59 -124 -173q-183 -245 -383.5 -399.5t-395.5 -172.5q-121 -11 -248 43.5t-213 150.5t-93 197q-7 95 95 178.5t265.5 138.5t361 85.5t384.5 28.5q72 0 171 -11zM54 -202q86 121 97 136
q-63 5 -116 5q-172 1 -351.5 -40t-318.5 -106.5t-228 -154.5t-89 -177q0 -91 71.5 -148.5t214.5 -48.5q64 4 135.5 30t163 83t201 164.5t220.5 256.5z" />
    <glyph glyph-name="z.alt" horiz-adv-x="719" 
d="M597 123q20 2 23 -11q1 -11 -12 -14q-68 -12 -230 -59q6 -25 10 -75q3 -81 -47.5 -182.5t-134 -194.5t-181.5 -172.5t-200.5 -127.5t-180.5 -48q-161 0 -287 71t-134 178q-6 80 123.5 188t333.5 200q213 97 556 185q3 12 3 24q-1 38 -38.5 70t-84 40.5t-89.5 -3.5
q-31 -22 -61 -47t-42.5 -36t-27.5 -18t-30 -6q-28 1 -47.5 49.5t-12.5 76.5q9 34 37 48t83 18q73 46 169.5 120t233 184t222.5 175q-4 -2 -46 -22t-72.5 -34t-81.5 -35t-89 -34.5t-78.5 -22.5t-65.5 -8q-68 4 -68 77q0 39 34 97.5t75 106.5q15 17 14 8q0 -2 -1 -5
q-12 -31 -13.5 -54.5t7.5 -37.5t19 -23t28 -13.5t28 -5.5t25 -2q72 -4 190 19t187 54q37 15 55 39q10 11 24 -37q25 -81 25 -147q0 -8 -3.5 -12t-11 -6.5t-9.5 -3.5q-178 -97 -352.5 -211.5t-269.5 -195.5q70 0 150 -47.5t111 -117.5q122 28 235 41zM222 3
q-230 -81 -426 -191t-308.5 -218t-112.5 -188q0 -72 108 -72q97 3 217 70t223.5 165.5t186 216t112.5 217.5z" />
    <glyph glyph-name="a.end" horiz-adv-x="1784" 
d="M758 474q-55 -58 -109 -127q-209 -268 -209 -434q0 -47 28.5 -79t84.5 -32q118 0 278 67.5t350.5 207.5t363.5 328q18 20 19 7q1 -11 -12 -31q-66 -108 -175.5 -229.5t-230.5 -223.5t-247 -169.5t-215 -67.5q-88 0 -173.5 43t-142 120t-56.5 165q0 77 50 187t131 216
q-122 -129 -203 -198q-139 -116 -224.5 -176.5t-125.5 -60.5q-41 0 -110 60t-69 117q0 74 96 201.5t234 242.5q121 101 240 165t200 64q112 0 189 -50.5t77 -126.5q0 -16 -30.5 -38t-67.5 -39q25 -22 44.5 -55.5t17.5 -45.5q0 -4 -3 -8zM603 614q0 7 -6 11q10 3 35 -1.5
t38 -15.5q19 19 25 87q2 29 -11 46.5t-37 17.5q-69 0 -186.5 -76.5t-211.5 -165.5q-134 -125 -231 -246t-97 -161q0 -11 13 -11q32 0 192.5 102t315.5 229.5t161 183.5z" />
    <glyph glyph-name="b.end" horiz-adv-x="2038" 
d="M47 -8q-64 0 -134 27q-35 14 -64 31.5t-56.5 44t-35 57t1.5 70.5q33 99 161 184q15 31 48 89q58 100 204.5 306.5t188.5 269.5q42 62 102 170q60 111 21 131h31q30 -6 54 -22q40 -28 66.5 -68t26.5 -66q0 -4 -3 -9l-290 -404q68 30 160 30q62 0 142 -49t101 -100
q342 45 625 19q71 -6 133 -17t107.5 -25t83.5 -31t63 -34t43.5 -35t28 -35t13.5 -32t3 -27t-7 -20q-32 -48 -104.5 -77t-101.5 -27q13 13 27.5 32t29 56t7.5 67q-10 39 -51.5 69.5t-102.5 48.5t-125.5 27.5t-131.5 11.5q-299 8 -532 -25q-1 -63 -32.5 -133.5t-82 -133
t-103.5 -113t-107 -91.5q-221 -167 -408 -167zM594 595q-258 -61 -424 -144q-76 -38 -151.5 -103.5t-118 -130.5t-28.5 -99q6 -18 26.5 -28t41.5 -10q39 0 95 19q181 63 386 266q34 34 85.5 101t87.5 129zM332 665q-86 -62 -152 -131q220 90 445 128q16 51 13 74
q-7 41 -65 41q-91 0 -241 -112z" />
    <glyph glyph-name="c.end" horiz-adv-x="1307" 
d="M625 751q-89 0 -233 -101.5t-257 -235.5q-78 -91 -119 -168.5t-44 -117.5q-1 -18 10.5 -29t30.5 -11q90 0 254.5 75t333 181t317.5 214.5t230 183.5q1 1 3 1t4.5 -1.5t4.5 -3t4 -4t3 -4.5t1 -4t-1 -3q-75 -86 -225.5 -212t-317.5 -246t-329.5 -205t-247.5 -85
q-38 0 -95.5 35t-101.5 84.5t-45 86.5q-4 104 112.5 251.5t274.5 262.5q163 116 315 137q7 1 19 1q67 0 127.5 -46t60.5 -99q0 -37 -68.5 -96.5t-111.5 -73.5q-4 -1 -4 1.5t2 6.5q30 43 69.5 115.5t39.5 94.5q0 15 -16 15z" />
    <glyph glyph-name="d.end" horiz-adv-x="1762" 
d="M854 654q-4 -6 -55.5 -74t-87.5 -117.5t-92 -135t-91.5 -151t-62.5 -138.5t-27 -125q0 -47 28.5 -79t84.5 -32q183 0 459 161.5t534 441.5q18 20 19 7q0 -10 -13 -31q-66 -108 -175.5 -229.5t-230.5 -223.5t-247 -169.5t-215 -67.5q-88 0 -175.5 43t-146 120t-58.5 165
q0 94 78 243q22 38 69 113l-80 -76q-144 -133 -262 -222.5t-161 -89.5q-38 0 -107.5 60t-73.5 111q-3 47 35 116q54 103 170.5 226.5t257.5 220.5t245 111q7 1 19 1q100 0 151 -30.5t58 -68.5q17 24 58.5 81.5t61 85.5t54.5 77.5t55.5 79.5t45 67t41.5 65t29 50
q60 111 21 131q36 0 61 -12l13 -7q41 -26 73 -72t32 -73q0 -5 -3 -10zM9 260q-85 -117 -81 -147q0 -11 11 -11q29 0 138.5 62.5t246.5 168t215 201.5q110 158 110 189q0 13 -12 22.5t-26 9.5q-60 0 -150.5 -56.5t-178 -139.5t-159 -162t-114.5 -137z" />
    <glyph glyph-name="e.end" horiz-adv-x="1205" 
d="M230 715q183 118 295 118q71 0 141 -61.5t70 -122.5q0 -30 -66.5 -86.5t-163.5 -112.5t-222 -98t-227 -43q-71 -98 -81 -166q-4 -30 13.5 -46.5t51.5 -16.5q116 -2 412 137t631 366q3 2 9 -1t9.5 -8t0.5 -8q-308 -253 -601.5 -423t-446.5 -170q-74 0 -160.5 77t-88.5 137
q-3 78 76 197q58 87 154.5 178t193.5 153zM627 744q-89 0 -248 -121.5t-289 -272.5q142 28 383 205q49 36 88.5 81t55.5 74.5t10 33.5z" />
    <glyph glyph-name="f.end" horiz-adv-x="1591" 
d="M377 742l-65 -90q83 -54 275 -113t338 -59q46 0 97 6.5t110 21t105 46t64 75.5q15 40 -0.5 88t-48.5 71q35 -6 60 -13t55 -19.5t50.5 -32.5t30.5 -47q7 -18 -1.5 -45t-42 -61.5t-87.5 -64t-152 -50.5t-223 -23q-150 -2 -355 38.5t-335 99.5q-14 -17 -49 -69
q39 -122 43 -276q1 -139 -27 -271.5t-74.5 -233t-103 -186t-114 -140.5t-106.5 -85.5t-81 -30.5q-75 0 -158.5 61.5t-84.5 128.5q-2 211 375 850q82 139 204 307q-17 25 -30 34q-44 14 -44 37q0 19 35 79q40 70 53 46q20 -34 75 -71q239 329 325 488q60 111 20 131l21 2
q27 -3 53 -19q51 -31 81 -78t28 -69q0 -5 -3 -9zM-13 -310q111 171 167 375.5t22 397.5q-186 -284 -360 -642.5t-174 -441.5q0 -10 4 -15t6.5 -5h8.5q36 0 137 96.5t189 234.5z" />
    <glyph glyph-name="g.end" horiz-adv-x="2013" 
d="M583 186q-87 -175 -293 -452q-181 -246 -382 -401t-396 -171q-80 -6 -179 19.5t-189 74t-154.5 126.5t-71.5 166q-6 73 109.5 175t308 204.5t417.5 184.5q12 4 20 6q-11 22 -11 46q0 74 96.5 201.5t234.5 242.5q121 101 239.5 165t199.5 64q115 0 191 -52t76 -125
q0 -38 -57.5 -79.5t-106.5 -57.5l9 -9l10.5 -10.5t9 -9.5t9.5 -11t6.5 -10t5.5 -11t2 -10q0 -11 -11 -55q345 64 616 44q91 -8 165 -24t122.5 -36t84 -43.5t52.5 -46.5t24.5 -45.5t4.5 -40.5t-12 -30q-30 -40 -100.5 -69t-96.5 -27q22 22 49 70.5t17 83.5q-12 42 -58.5 77
t-111.5 54q-91 28 -310 38q-197 8 -462 -46q-18 -51 -77 -170zM-58 -13q-21 0 -59.5 22.5t-71.5 55.5q-13 -6 -42 -19t-45 -21q-140 -67 -266.5 -153.5t-209.5 -166.5t-132 -149.5t-49 -110.5q0 -46 29.5 -87t81.5 -65q90 -42 204 -37q64 4 138 31t167.5 85t204.5 167.5
t220 258.5q130 177 238 356q17 27 86 148q-17 -5 -47.5 -14t-38.5 -11q-21 -21 -59 -53q-126 -110 -220.5 -173.5t-128.5 -63.5zM608 548q29 31 54 81t25 85q0 22 -7 33.5t-31 11.5q-70 0 -185 -75.5t-214 -166.5q-201 -192 -293 -330q122 45 292 100q114 85 164 126
q6 5 20.5 17t21 18t19.5 17t19.5 17.5l16 16t15 15.5t10.5 13t7.5 12.5t2.5 10.5q0 18 -19 27q4 1 6 1q15 0 38.5 -8t37.5 -22zM-65 99q27 0 172 92q-111 -44 -184 -76v-5q0 -11 12 -11zM506 429l-96 -93l52 14z" />
    <glyph glyph-name="h.end" horiz-adv-x="1766" 
d="M660 740l-8 4q-7 0 -49.5 -26.5t-125.5 -92t-170 -148.5q-194 -183 -307 -313q-77 -88 -90 -120q-14 -36 -5 -47q13 -11 -6 -14q-7 -1 -16 0q-21 3 -74 61.5t-44 92.5q14 51 103.5 191.5t205.5 301.5q17 24 92 129t106 148.5t84 120.5t85 126.5t51 85.5q60 111 20 131
q27 0 42 -5q17 -5 34 -16q44 -29 72.5 -75.5t26.5 -67.5q0 -5 -3 -10l-404 -567q-192 -272 -277 -405q103 129 271 292q36 35 82.5 78.5t113 101.5t122 96.5t79.5 38.5q35 0 68 -27q51 -41 75.5 -80t22.5 -57q0 -5 -4 -9q-262 -277 -378 -486q-90 -159 -90 -260
q0 -47 29 -79t85 -32q118 0 278 67.5t350.5 207.5t363.5 328q18 20 19 7q1 -11 -12 -31q-66 -108 -178 -229.5t-236 -224t-252.5 -170t-217.5 -67.5q-85 0 -168 48t-135 125t-52 156q0 105 73 243q68 128 169 261t179 217z" />
    <glyph glyph-name="i.end" horiz-adv-x="1272" 
d="M117 704q32 47 42.5 85t-9.5 51q42 0 78 -26q30 -22 62.5 -58.5t32.5 -62.5q0 -20 -68 -113q-23 -32 -86.5 -112.5t-116 -154t-90.5 -140.5q-90 -159 -90 -260q0 -47 29 -79t85 -32q118 0 278 67.5t350.5 207.5t363.5 328q18 20 19 7q1 -11 -12 -31q-66 -108 -178 -229.5
t-236 -224t-252.5 -170t-217.5 -67.5q-85 0 -168 48t-135 125t-52 156q0 105 73 243q15 28 39 66t59.5 90t61 89t72.5 103.5t66 93.5zM323 901q-14 -7 -28 -4.5t-24.5 9.5t-7.5 12q95 178 95 270q0 30 -24 39q40 0 77 -22q50 -30 78 -71t26 -63q0 -1 -5 -9
q-13 -19 -59.5 -59t-84.5 -69.5t-43 -32.5z" />
    <glyph glyph-name="j.end" horiz-adv-x="1480" 
d="M-332 -268q-440 -533 -826 -565q-122 -11 -253.5 41t-221.5 145.5t-98 194.5q-6 73 109 179.5t309.5 214.5t416.5 189q459 166 805 242q135 217 197 337q25 49 25 90q0 18 -16 27q-2 0 0.5 1t5.5 1q28 0 89 -62t61 -97q0 -2 -1.5 -6t-1.5 -5q-21 -67 -128 -243
q343 47 611 25q91 -7 165.5 -23t122.5 -36t83.5 -43.5t53 -47t24.5 -46t4.5 -40.5t-11.5 -30q-30 -40 -104 -69t-101 -27q22 22 49 70.5t17 83.5q-12 42 -58.5 77t-111.5 54q-93 29 -295 38q-206 8 -468 -29l-12 -11q-232 -380 -441 -630zM-1248 -750q303 19 739 548
q222 270 383 520l6 8q-199 -48 -381.5 -118.5t-423.5 -182.5q-141 -66 -267.5 -153t-208.5 -168t-130 -151t-48 -112q0 -86 91.5 -143t239.5 -48zM274 901q-14 -7 -29.5 -3.5t-27.5 11.5t-9 13q94 176 94 269q0 30 -23 39q40 0 77 -22q50 -30 81 -72.5t29 -64.5q0 -2 -4 -9
q-13 -19 -60 -59t-85 -69.5t-43 -32.5z" />
    <glyph glyph-name="k.end" horiz-adv-x="1958" 
d="M482 -206q-97 76 -210.5 252.5t-162.5 330.5q-63 -88 -90 -131q-58 -94 -88.5 -163t-20.5 -85q13 -11 -6 -14q-7 -1 -16 0q-11 2 -42 27t-56.5 61t-19.5 60q29 102 274 452q0 59 5 73q4 10 11.5 18.5t19 15t19 10t21 8.5t14.5 5q105 143 151.5 206.5t117 166t98.5 153.5
q60 111 20 131l18 1q24 -3 50 -19q48 -31 78.5 -75.5t28.5 -64.5q0 -5 -3 -9l-387 -544q86 75 166 128t120 53q61 0 126 -55.5t65 -119.5q0 -34 -35.5 -80.5t-88.5 -87.5t-123.5 -69.5t-133.5 -28.5q-86 0 -150 29q53 -143 157.5 -320.5t212.5 -289.5q114 -118 244 -118
q67 0 152.5 35.5t169.5 93t169 130.5t155.5 146.5t125.5 142.5q12 14 15 10.5t-2 -21.5q-10 -34 -41.5 -95t-89.5 -143.5t-127.5 -157t-164.5 -134t-191 -75.5q-137 -23 -284.5 21.5t-270.5 139.5zM633 767q-66 0 -183 -61.5t-229 -173.5q24 -39 77 -39q54 0 119 37.5
t113 85t78.5 92t24.5 59.5z" />
    <glyph glyph-name="l.end" horiz-adv-x="1351" 
d="M69 630q29 40 116.5 162t130.5 183t96.5 141t77.5 124q60 111 20 131q48 -1 78 -22q46 -33 74 -74t28 -68q0 -5 -3 -10l-407 -567q-141 -187 -215 -316q-90 -159 -90 -260q0 -47 28.5 -79.5t84.5 -32.5q183 0 459 161.5t534 441.5q18 20 19 7q0 -10 -13 -31
q-66 -108 -178 -229.5t-236 -224t-252.5 -170t-217.5 -67.5q-85 0 -168 48t-134.5 125t-51.5 156q0 72 37 162.5t78 154.5t105 154z" />
    <glyph glyph-name="m.end" horiz-adv-x="2139" 
d="M1071 473q-46 -58 -107.5 -148.5t-95.5 -151.5q-90 -159 -90 -260q0 -47 29 -79t85 -32q118 0 278 67.5t350.5 207.5t363.5 328q18 20 19 7q0 -10 -13 -31q-89 -145 -248.5 -305t-338 -273t-296.5 -113q-85 0 -168 48t-135 125t-52 156q0 105 73 243t195 305
q86 114 132 188q-33 -15 -121.5 -89t-205.5 -193q-132 -133 -246.5 -265.5t-127.5 -185.5q3 -7 8 -9q12 -4 0 -10q-9 -5 -20 -3q-19 3 -74.5 58.5t-48.5 86.5q13 55 89 166.5t173 243.5t135 200q-33 -13 -127 -87t-215 -194q-150 -150 -280.5 -298.5t-102.5 -161.5
q1 -1 3 -1q12 -4 0 -10q-9 -5 -20 -3q-18 3 -70 58.5t-47 86.5q7 39 66.5 128t154 218t138.5 197q32 50 42.5 86t-8.5 50q27 0 41 -5q17 -5 33 -16q46 -32 69.5 -66.5t23.5 -57.5q0 -13 -41 -70.5t-121.5 -163t-123.5 -165.5q96 118 211 234q91 93 213.5 202.5t161.5 109.5
q42 0 87 -37q40 -31 64.5 -68t22.5 -55q0 -4 -3 -9q-109 -126 -169 -200q-67 -82 -147 -199q97 122 224 254q52 54 107.5 108.5t136.5 123.5t114 78q1 0 4 1t7 1q42 0 97 -55q70 -74 67 -107q0 -4 -4 -10q-90 -105 -151 -179z" />
    <glyph glyph-name="n.end" horiz-adv-x="1702" 
d="M736 566q-189 -208 -293 -393q-90 -159 -90 -260q0 -47 28.5 -79t84.5 -32q183 0 459 161.5t534 441.5q18 20 19 7q0 -10 -13 -31q-66 -108 -178 -229.5t-236 -224t-252.5 -170t-217.5 -67.5q-85 0 -168 48t-134.5 125t-51.5 156q0 107 72 243q91 171 262 379
q72 91 72 95l-3 3q-7 0 -48 -26t-123 -91t-169 -148q-153 -145 -281 -283.5t-119 -171.5q4 -6 6 -6q12 -4 0 -10q-9 -5 -20 -3q-29 5 -77.5 61t-42.5 84q9 38 68.5 127.5t153 218.5t137.5 197q31 49 41.5 85.5t-8.5 50.5q26 0 36 -2q25 -7 48 -23q41 -29 63.5 -62.5
t22.5 -57.5q0 -14 -44 -75t-126.5 -169.5t-127.5 -171.5q79 95 240 254q320 315 387 315q38 0 93 -46q44 -35 62.5 -67.5t16.5 -50.5q0 -4 -3 -9q-50 -61 -80 -93z" />
    <glyph glyph-name="o.end" horiz-adv-x="2019" 
d="M761 592q0 -93 -126 -252q85 0 226 28t292 75q257 80 426 184q164 100 241.5 226.5t38.5 220.5q33 -2 69.5 -24t56.5 -58q41 -74 -45 -189.5t-297 -230.5q-201 -109 -511 -194t-535 -85q-110 -129 -242.5 -217.5t-244.5 -88.5q-64 0 -134.5 24t-121.5 71.5t-49 104.5
q4 90 76.5 198t179.5 193q54 97 187.5 179t255.5 73q101 -7 179 -75.5t78 -162.5zM205 501q-10 -31 -7 -49q4 -43 66 -71t157 -39l30 33q87 96 139 186t43 142q-14 74 -99 74q-98 0 -184 -76q27 5 45 5q51 0 85.5 -33t34.5 -70q0 -3 -5 0q-1 0 -11 5t-22 8t-25 3
q-49 0 -118.5 -35.5t-128.5 -82.5zM107 406q-69 -82 -108.5 -153.5t-44.5 -118.5q-2 -29 3.5 -43.5t28.5 -22.5q51 -18 164 49.5t228 180.5q-199 23 -271 108z" />
    </font>
</defs>
</svg>
