<?xml version="1.0" encoding="UTF-8"?>
<!-- Generator: Adobe Illustrator 23.0.3, SVG Export Plug-In . SVG Version: 6.00 Build 0)  -->
<svg version="1.1" id="Layer_1" xmlns="http://www.w3.org/2000/svg" xmlns:xlink="http://www.w3.org/1999/xlink" x="0px" y="0px" viewBox="0 0 500 500" style="enable-background:new 0 0 500 500;" xml:space="preserve">
<style type="text/css">
	.st0{fill:#383838;}
	.st1{fill:#FFFFFF;}
	.st2{fill:#046582;}
	.st3{fill:#B7B7B7;}
	.st4{fill-rule:evenodd;clip-rule:evenodd;fill:#046582;}
	.st5{fill-rule:evenodd;clip-rule:evenodd;fill:#FFFFFF;}
</style>
<g>
	<path class="st2" d="M61.4,183.8c1.4,1.4,3.2,2.1,5.1,2.1c1.8,0,3.7-0.7,5.1-2.1c2.8-2.8,2.8-7.3,0-10.1l-17.4-17.4l17.4-17.4   c2.8-2.8,2.8-7.3,0-10.1c-2.8-2.8-7.3-2.8-10.1,0l-22.5,22.5c-1.3,1.3-2.1,3.2-2.1,5.1c0,1.9,0.8,3.7,2.1,5.1L61.4,183.8z"/>
	<path class="st2" d="M132.6,156.2l-17.4,17.4c-2.8,2.8-2.8,7.3,0,10.1c1.4,1.4,3.2,2.1,5.1,2.1s3.7-0.7,5.1-2.1l22.5-22.5   c2.8-2.8,2.8-7.3,0-10.1l-22.5-22.5c-2.8-2.8-7.3-2.8-10.1,0c-2.8,2.8-2.8,7.3,0,10.1L132.6,156.2z"/>
	<path class="st2" d="M82.7,185.4c0.9,0.3,1.7,0.5,2.6,0.5c2.9,0,5.6-1.7,6.7-4.5l17.7-45c1.5-3.7-0.4-7.8-4.1-9.3   c-3.7-1.4-7.8,0.4-9.3,4.1l-17.7,45C77.2,179.8,79,184,82.7,185.4z"/>
	<path class="st2" d="M48.1,228h48.3c4,0,7.2-3.2,7.2-7.2c0-4-3.2-7.2-7.2-7.2H48.1c-4,0-7.2,3.2-7.2,7.2   C40.9,224.8,44.1,228,48.1,228z"/>
	<path class="st2" d="M207.7,213.6h-84.9c-4,0-7.2,3.2-7.2,7.2c0,4,3.2,7.2,7.2,7.2h84.9c4,0,7.2-3.2,7.2-7.2   C214.8,216.8,211.6,213.6,207.7,213.6z"/>
	<path class="st2" d="M48.1,258.2h20.6c4,0,7.2-3.2,7.2-7.2c0-4-3.2-7.2-7.2-7.2H48.1c-4,0-7.2,3.2-7.2,7.2   C40.9,255,44.1,258.2,48.1,258.2z"/>
	<path class="st2" d="M181.4,243.9c-4,0-7.2,3.2-7.2,7.2c0,4,3.2,7.2,7.2,7.2H194c4,0,7.2-3.2,7.2-7.2c0-4-3.2-7.2-7.2-7.2H181.4z"/>
	<path class="st2" d="M162.5,251c0-4-3.2-7.2-7.2-7.2H93.8c-4,0-7.2,3.2-7.2,7.2c0,4,3.2,7.2,7.2,7.2h61.6   C159.3,258.2,162.5,255,162.5,251z"/>
	<path class="st2" d="M209.5,251c0,4,3.2,7.2,7.2,7.2h23.5c4,0,7.2-3.2,7.2-7.2c0-4-3.2-7.2-7.2-7.2h-23.5   C212.7,243.9,209.5,247.1,209.5,251z"/>
	<path class="st2" d="M170.5,162h24.8c4,0,7.2-3.2,7.2-7.2c0-4-3.2-7.2-7.2-7.2h-24.8c-4,0-7.2,3.2-7.2,7.2   C163.3,158.8,166.5,162,170.5,162z"/>
	<path class="st2" d="M223,162H374c4,0,7.2-3.2,7.2-7.2c0-4-3.2-7.2-7.2-7.2H223c-4,0-7.2,3.2-7.2,7.2C215.8,158.8,219,162,223,162z   "/>
	<path class="st2" d="M351.1,179.2h-61.2c-4,0-7.2,3.2-7.2,7.2c0,4,3.2,7.2,7.2,7.2h61.2c4,0,7.2-3.2,7.2-7.2   C358.3,182.4,355,179.2,351.1,179.2z"/>
	<path class="st2" d="M266.9,179.2h-21c-4,0-7.2,3.2-7.2,7.2c0,4,3.2,7.2,7.2,7.2h21c4,0,7.2-3.2,7.2-7.2   C274.1,182.4,270.9,179.2,266.9,179.2z"/>
	<path class="st2" d="M170.5,193.5H222c4,0,7.2-3.2,7.2-7.2c0-4-3.2-7.2-7.2-7.2h-51.5c-4,0-7.2,3.2-7.2,7.2   C163.3,190.3,166.5,193.5,170.5,193.5z"/>
	<path class="st2" d="M155.5,273.9h-48.3c-4,0-7.2,3.2-7.2,7.2c0,4,3.2,7.2,7.2,7.2h48.3c4,0,7.2-3.2,7.2-7.2   C162.6,277.1,159.4,273.9,155.5,273.9z"/>
	<path class="st2" d="M85.2,273.9H48.1c-4,0-7.2,3.2-7.2,7.2c0,4,3.2,7.2,7.2,7.2h37.1c4,0,7.2-3.2,7.2-7.2   C92.4,277.1,89.2,273.9,85.2,273.9z"/>
	<path class="st2" d="M243,273.9h-63.1c-4,0-7.2,3.2-7.2,7.2c0,4,3.2,7.2,7.2,7.2H243c4,0,7.2-3.2,7.2-7.2   C250.2,277.1,247,273.9,243,273.9z"/>
	<path class="st1" d="M328.4,237h-34.5c-4,0-7.2,3.2-7.2,7.2c0,4,3.2,7.2,7.2,7.2h34.5c4,0,7.2-3.2,7.2-7.2   C335.6,240.2,332.3,237,328.4,237z"/>
	<path class="st1" d="M388.3,251.4H437c4,0,7.2-3.2,7.2-7.2c0-4-3.2-7.2-7.2-7.2h-48.7c-4,0-7.2,3.2-7.2,7.2   C381.1,248.2,384.3,251.4,388.3,251.4z"/>
	<path class="st1" d="M363.9,237h-11.2c-4,0-7.2,3.2-7.2,7.2c0,4,3.2,7.2,7.2,7.2h11.2c4,0,7.2-3.2,7.2-7.2   C371.1,240.2,367.9,237,363.9,237z"/>
	<path class="st1" d="M293.9,329.5h34.5c4,0,7.2-3.2,7.2-7.2c0-4-3.2-7.2-7.2-7.2h-34.5c-4,0-7.2,3.2-7.2,7.2   C286.7,326.3,289.9,329.5,293.9,329.5z"/>
	<path class="st1" d="M388.3,329.5H437c4,0,7.2-3.2,7.2-7.2c0-4-3.2-7.2-7.2-7.2h-48.7c-4,0-7.2,3.2-7.2,7.2   C381.1,326.3,384.3,329.5,388.3,329.5z"/>
	<path class="st1" d="M352.7,329.5h11.2c4,0,7.2-3.2,7.2-7.2c0-4-3.2-7.2-7.2-7.2h-11.2c-4,0-7.2,3.2-7.2,7.2   C345.6,326.3,348.8,329.5,352.7,329.5z"/>
	<path class="st1" d="M328.4,393.3h-34.5c-4,0-7.2,3.2-7.2,7.2c0,4,3.2,7.2,7.2,7.2h34.5c4,0,7.2-3.2,7.2-7.2   C335.6,396.5,332.3,393.3,328.4,393.3z"/>
	<path class="st1" d="M437,393.3h-48.7c-4,0-7.2,3.2-7.2,7.2c0,4,3.2,7.2,7.2,7.2H437c4,0,7.2-3.2,7.2-7.2   C444.2,396.5,440.9,393.3,437,393.3z"/>
	<path class="st1" d="M363.9,393.3h-11.2c-4,0-7.2,3.2-7.2,7.2c0,4,3.2,7.2,7.2,7.2h11.2c4,0,7.2-3.2,7.2-7.2   C371.1,396.5,367.9,393.3,363.9,393.3z"/>
	<path class="st1" d="M463.4,5.3H36.6C19.2,5.3,5,19.4,5,36.8v347c0,17.4,14.2,31.6,31.6,31.6h27c4,0,7.2-3.2,7.2-7.2   c0-4-3.2-7.2-7.2-7.2h-27c-9.5,0-17.2-7.7-17.2-17.2v-27.2h261.3V369h-5.7c-7.8,0-14.1,6.3-14.1,14.1v18H107.2   c-4,0-7.2,3.2-7.2,7.2c0,4,3.2,7.2,7.2,7.2h69v25.7h-21.7c-14.4,0-26.2,11.8-26.2,26.2v15.5c0,6.6,5.4,12,12,12h219   c6.6,0,12-5.4,12-12v-15.5c0-14.4-11.7-26.2-26.2-26.2h-21.7V432h132.6c7.8,0,14.1-6.3,14.1-14.1v-3.4c14-3.2,24.4-15.8,24.4-30.7   l0.5-347C495,19.4,480.8,5.3,463.4,5.3z M275.2,339.5v-34.4h180.5v34.4H275.2z M295,290.8v-15.1h140.9v15.1H295z M435.9,353.9V369   H295v-15.1H435.9z M190.4,415.4h70.4v2.6c0,7.8,6.3,14.1,14.1,14.1H309v9.1H190.4V415.4z M345,455.4c6.5,0,11.9,5.3,11.9,11.9v13.1   H142.6v-13.1c0-6.5,5.3-11.9,11.9-11.9H345z M455.7,417.7H275.2v-34.4h180.5V417.7z M480.1,383.8c0,6.9-4.1,12.9-10.1,15.6v-16.4   c0-7.8-6.3-14.1-14.1-14.1h-5.7v-12.4h29.9V383.8z M480.1,342.3h-10.3c0.1-0.8,0.2-37.3,0.2-37.3c0-7.8-6.3-14.1-14.1-14.1h-5.7   v-15.1h5.7c7.8,0,14.1-6.3,14.1-14.1v-34.9c0-7.8-6.3-14.1-14.1-14.1h-40.5c-4,0-7.2,3.2-7.2,7.2c0,4,3.2,7.2,7.2,7.2h40.3v34.4   H275.2V227h95.6c4,0,7.2-3.2,7.2-7.2c0-4-3.2-7.2-7.2-7.2h-95.9c-7.8,0-14.1,6.3-14.1,14.1v34.9c0,7.8,6.3,14.1,14.1,14.1h5.7v15.1   h-5.7c-7.8,0-14.1,6.3-14.1,14.1c0,0,0.1,36.5,0.2,37.3H19.3V102.8h460.8V342.3z M480.1,88.5H19.9V36.8c0-9.5,7.7-17.2,17.2-17.2   h425.8c9.5,0,17.2,7.7,17.2,17.2V88.5z"/>
	<path class="st1" d="M57.9,32.8c-11.6,0-21,9.4-21,21s9.4,21,21,21s21-9.4,21-21S69.5,32.8,57.9,32.8z M57.9,60.5   c-3.7,0-6.7-3-6.7-6.7c0-3.7,3-6.7,6.7-6.7c3.7,0,6.7,3,6.7,6.7C64.6,57.5,61.6,60.5,57.9,60.5z"/>
	<path class="st1" d="M111.5,32.8c-11.6,0-21,9.4-21,21s9.4,21,21,21s21-9.4,21-21S123.1,32.8,111.5,32.8z M111.5,60.5   c-3.7,0-6.7-3-6.7-6.7c0-3.7,3-6.7,6.7-6.7c3.7,0,6.7,3,6.7,6.7C118.2,57.5,115.2,60.5,111.5,60.5z"/>
	<path class="st1" d="M165,32.8c-11.6,0-21,9.4-21,21s9.4,21,21,21s21-9.4,21-21S176.7,32.8,165,32.8z M165,60.5   c-3.7,0-6.7-3-6.7-6.7c0-3.7,3-6.7,6.7-6.7c3.7,0,6.7,3,6.7,6.7C171.8,57.5,168.7,60.5,165,60.5z"/>
</g>
</svg>