<?xml version="1.0" encoding="UTF-8"?>
<!-- Generator: Adobe Illustrator 17.0.0, SVG Export Plug-In . SVG Version: 6.00 Build 0)  -->
<!DOCTYPE svg PUBLIC "-//W3C//DTD SVG 1.1//EN" "http://www.w3.org/Graphics/SVG/1.1/DTD/svg11.dtd">
<svg version="1.1" id="Layer_1" xmlns="http://www.w3.org/2000/svg" xmlns:xlink="http://www.w3.org/1999/xlink" x="0px" y="0px" width="50px" height="50px" viewBox="0 0 50 50" enable-background="new 0 0 50 50" xml:space="preserve">
<title>streamline-icon-monetization-idea@50x50</title>
<desc>Created with Sketch.</desc>
<g id="Icons">
	<g id="Bonfire-_x2013_-Web-Design----Icons-_x28_Desktop_x29_" transform="translate(-549.000000, -443.000000)">
		<g id="streamline-icon-monetization-idea_x40_50x50" transform="translate(550.000000, 444.000000)">
			<g id="Group" transform="translate(0.570833, 0.041667)">
				<path id="Path" fill="none" stroke="#db984a" stroke-width="2.0833" stroke-linecap="round" stroke-linejoin="round" d="      M14.583,22.917h-6.25"/>
				<path id="Path_1_" fill="none" stroke="#db984a" stroke-width="2.0833" stroke-linecap="round" stroke-linejoin="round" d="      M17.708,11.458c-0.098-3.41-2.84-6.152-6.25-6.25c-3.41,0.098-6.152,2.84-6.25,6.25c0.048,2.167,1.235,4.146,3.125,5.208v2.083      h6.25v-2.083C16.471,15.604,17.66,13.625,17.708,11.458z"/>
				<path id="Path_2_" fill="none" stroke="#db984a" stroke-width="2.0833" stroke-linecap="round" stroke-linejoin="round" d="      M11.458,0v2.083"/>
				<path id="Path_3_" fill="none" stroke="#db984a" stroke-width="2.0833" stroke-linecap="round" stroke-linejoin="round" d="      M19.56,3.356l-1.473,1.473"/>
				<path id="Path_4_" fill="none" stroke="#db984a" stroke-width="2.0833" stroke-linecap="round" stroke-linejoin="round" d="      M22.917,10.417h-2.083"/>
				<path id="Path_5_" fill="none" stroke="#db984a" stroke-width="2.0833" stroke-linecap="round" stroke-linejoin="round" d="      M3.356,3.356l1.473,1.473"/>
				<path id="Path_6_" fill="none" stroke="#db984a" stroke-width="2.0833" stroke-linecap="round" stroke-linejoin="round" d="      M0,10.417h2.083"/>
			</g>
			<path id="Path_7_" fill="none" stroke="#db984a" stroke-width="2.0833" stroke-linecap="round" stroke-linejoin="round" d="     M26.625,4.456C36.223,5.998,43.281,14.279,43.279,24"/>
			<path id="Path_8_" fill="none" stroke="#db984a" stroke-width="2.0833" stroke-linecap="round" stroke-linejoin="round" d="     M20.367,43.548C10.762,42.013,3.698,33.725,3.7,24"/>
			<path id="Path_9_" fill="none" stroke="#046582" stroke-width="2.0833" stroke-linecap="round" stroke-linejoin="round" d="     M37.029,27.125c5.752,0,10.417,4.665,10.417,10.417s-4.665,10.417-10.417,10.417s-10.417-4.665-10.417-10.417     S31.277,27.125,37.029,27.125z"/>
			<path id="Path_10_" fill="none" stroke="#046582" stroke-width="2.0833" stroke-linecap="round" stroke-linejoin="round" d="     M37.029,41.708v2.083"/>
			<path id="Path_11_" fill="none" stroke="#046582" stroke-width="2.0833" stroke-linecap="round" stroke-linejoin="round" d="     M37.029,31.292v2.083"/>
			<path id="Path_12_" fill="none" stroke="#046582" stroke-width="2.0833" stroke-linecap="round" stroke-linejoin="round" d="     M32.862,41.708h6.25c1.15,0,2.083-0.933,2.083-2.083s-0.933-2.083-2.083-2.083h-4.167c-1.15,0-2.083-0.933-2.083-2.083     c0-1.15,0.933-2.083,2.083-2.083h6.25"/>
			
				<polyline id="Path_13_" fill="none" stroke="#db984a" stroke-width="2.0833" stroke-linecap="round" stroke-linejoin="round" points="     18.279,37.542 21.404,43.792 16.196,46.917    "/>
			
				<polyline id="Path_14_" fill="none" stroke="#db984a" stroke-width="2.0833" stroke-linecap="round" stroke-linejoin="round" points="     28.696,9.417 26.612,4.208 30.779,1.083    "/>
		</g>
	</g>
</g>
</svg>